<svg width="630" height="544" viewBox="0 0 630 544" fill="none" xmlns="http://www.w3.org/2000/svg">
<path d="M566.291 102.041L562.806 96.2964C533.423 47.8761 480.297 18.6866 424.284 22.2277C417.085 22.6834 409.916 23.6575 402.842 25.1722C351.916 36.0728 307.603 74.5853 289.235 123.907C278.433 152.914 275.416 186.311 254.917 209.335C228.238 239.3 182.946 240.241 143.125 238.999C103.303 237.758 57.9803 238.817 31.4309 268.899C14.8046 287.739 9.51922 314.531 10.8605 339.763C14.4102 406.564 60.9587 466.293 120.156 495.982C179.352 525.672 249.052 528.33 313.838 515.271C404.598 496.975 490.91 446.731 542.79 369.128C594.67 291.526 607.801 185.8 566.291 102.041Z" fill="#DBEAFE"/>
<path d="M78.0627 180.599C113.778 180.599 142.73 151.647 142.73 115.932C142.73 80.217 113.778 51.2644 78.0627 51.2644C42.3479 51.2644 13.3953 80.217 13.3953 115.932C13.3953 151.647 42.3479 180.599 78.0627 180.599Z" fill="#DBEAFE"/>
<path d="M391.637 246.06H280.026L258.708 278.064L237.908 246.06H128.274C121.262 246.06 115.578 240.31 115.578 233.217V13.2585C115.578 6.16544 121.262 0.415771 128.274 0.415771H391.637C398.649 0.415771 404.333 6.16544 404.333 13.2585V233.217C404.332 240.31 398.649 246.06 391.637 246.06Z" fill="#FAFAFA"/>
<path d="M391.637 246.06C391.637 246.06 391.873 246.035 392.335 246.004C392.799 245.993 393.488 245.897 394.382 245.71C396.13 245.296 398.849 244.292 401.199 241.533C402.369 240.179 403.363 238.368 403.875 236.209C404.038 235.677 404.065 235.103 404.167 234.533C404.187 233.952 404.246 233.364 404.23 232.751C404.227 231.529 404.224 230.256 404.221 228.931C404.211 223.633 404.2 217.522 404.187 210.642C404.158 183.112 404.118 143.293 404.068 94.0907C404.053 69.4858 404.039 42.5369 404.022 13.6056C404.114 10.0561 402.672 6.48638 400.028 4.06685C398.725 2.85127 397.16 1.91308 395.462 1.35104C393.752 0.745428 391.969 0.697507 390.105 0.73672C382.716 0.739624 375.21 0.742524 367.592 0.745429C352.356 0.749786 336.676 0.755597 320.597 0.761406C288.438 0.768668 254.681 0.775928 219.687 0.78319C202.19 0.784642 184.382 0.787555 166.311 0.789007C157.274 0.789007 148.173 0.790458 139.01 0.790458C136.72 0.790458 134.426 0.790458 132.127 0.790458H128.677C128.094 0.77884 127.555 0.835476 126.99 0.857261C126.442 0.958922 125.878 0.990873 125.342 1.15934C123.16 1.67636 121.157 2.85708 119.553 4.44445C117.984 6.06667 116.815 8.09989 116.306 10.3234C115.78 12.3058 115.994 14.4305 115.948 16.5523C115.948 18.6654 115.948 20.7756 115.948 22.8829C115.948 27.0975 115.948 31.3004 115.948 35.4903C115.948 43.8715 115.947 52.2019 115.947 60.4786C115.945 77.032 115.944 93.3689 115.942 109.455C115.937 141.626 115.931 172.792 115.925 202.672C115.924 210.143 115.921 217.532 115.919 224.837C115.919 226.664 115.918 228.484 115.918 230.299C115.948 232.122 115.805 233.936 116.155 235.648C116.808 239.109 119.013 242.181 121.962 243.948C123.434 244.838 125.087 245.409 126.778 245.615C128.453 245.791 130.242 245.688 131.971 245.717C135.451 245.718 138.908 245.72 142.343 245.721C149.211 245.724 155.988 245.727 162.668 245.73C189.387 245.743 214.558 245.756 237.905 245.768H238.059L238.143 245.897C245.405 257.087 252.338 267.769 258.923 277.914L258.493 277.912C266.09 266.527 273.208 255.858 279.837 245.925L279.904 245.823H280.025C315.328 245.868 343.227 245.904 362.312 245.929C371.844 245.955 379.171 245.975 384.127 245.988C386.593 246.002 388.467 246.013 389.736 246.019C390.997 246.038 391.637 246.06 391.637 246.06C391.637 246.06 390.997 246.081 389.738 246.092C388.47 246.099 386.595 246.109 384.128 246.122C379.172 246.135 371.844 246.155 362.314 246.182C343.23 246.206 315.33 246.243 280.026 246.288L280.214 246.186C273.603 256.13 266.5 266.81 258.923 278.208L258.706 278.533L258.492 278.205C251.893 268.068 244.947 257.395 237.671 246.215L237.908 246.344C214.561 246.356 189.39 246.369 162.671 246.382C155.991 246.385 149.214 246.388 142.346 246.391C138.911 246.392 135.454 246.394 131.974 246.395C130.225 246.365 128.511 246.476 126.7 246.292C124.916 246.076 123.173 245.474 121.619 244.536C118.508 242.674 116.182 239.437 115.489 235.785C115.117 233.942 115.269 232.102 115.236 230.302C115.236 228.487 115.235 226.666 115.235 224.84C115.233 217.535 115.23 210.146 115.229 202.675C115.223 172.795 115.217 141.629 115.212 109.458C115.21 93.3718 115.209 77.0349 115.207 60.4815C115.207 52.2048 115.206 43.8745 115.206 35.4932C115.206 31.3033 115.206 27.1004 115.206 22.8858C115.206 20.7785 115.206 18.6683 115.206 16.5552V13.3834C115.226 12.3029 115.312 11.2049 115.584 10.1491C116.126 7.79056 117.365 5.63243 119.029 3.9129C120.728 2.22823 122.854 0.977805 125.17 0.427383C125.738 0.250202 126.336 0.213893 126.919 0.107875C127.504 0.0817332 128.113 0.0250882 128.682 0.0367066H132.132C134.43 0.0367066 136.725 0.0367066 139.015 0.0367066C148.177 0.0367066 157.279 0.0381581 166.315 0.0381581C184.387 0.0396104 202.194 0.0425229 219.691 0.0439752C254.686 0.0512368 288.443 0.0584974 320.602 0.0657589C336.68 0.0715681 352.36 0.0759162 367.596 0.0817254C375.214 0.08463 382.72 0.0875409 390.11 0.0904455C391.927 0.0526857 393.888 0.103513 395.662 0.741074C397.448 1.33361 399.091 2.32118 400.458 3.59921C401.825 4.87723 402.922 6.44281 403.637 8.16669C404.355 9.88912 404.662 11.7728 404.645 13.6056C404.629 42.5369 404.613 69.4858 404.599 94.0907C404.549 143.292 404.508 183.112 404.48 210.642C404.467 217.522 404.455 223.632 404.445 228.931C404.442 230.256 404.44 231.528 404.437 232.751C404.45 233.359 404.388 233.966 404.363 234.553C404.257 235.132 404.226 235.713 404.058 236.252C403.525 238.442 402.507 240.269 401.314 241.632C398.916 244.407 396.161 245.393 394.4 245.784C393.496 245.959 392.803 246.042 392.338 246.041C391.871 246.061 391.637 246.06 391.637 246.06Z" fill="#263238"/>
<path d="M227.763 135.677C227.763 138.527 225.649 140.299 222.272 140.299H219.725V143.823H216.801V131.037H222.272C225.649 131.037 227.763 132.809 227.763 135.677ZM224.801 135.677C224.801 134.27 223.898 133.448 222.11 133.448H219.727V137.888H222.11C223.898 137.888 224.801 137.066 224.801 135.677Z" fill="#263238"/>
<path d="M238.146 138.216V143.823H235.51V142.599C234.986 143.494 233.975 143.969 232.548 143.969C230.272 143.969 228.919 142.69 228.919 140.991C228.919 139.256 230.129 138.05 233.091 138.05H235.33C235.33 136.826 234.608 136.114 233.091 136.114C232.061 136.114 230.996 136.462 230.291 137.028L229.28 135.037C230.346 134.269 231.918 133.849 233.47 133.849C236.43 133.85 238.146 135.239 238.146 138.216ZM235.329 140.718V139.713H233.397C232.079 139.713 231.664 140.206 231.664 140.863C231.664 141.575 232.259 142.051 233.253 142.051C234.192 142.051 235.005 141.614 235.329 140.718Z" fill="#263238"/>
<path d="M239.754 142.911L240.693 140.865C241.56 141.431 242.878 141.815 244.07 141.815C245.371 141.815 245.857 141.468 245.857 140.92C245.857 139.312 239.989 140.956 239.989 137.029C239.989 135.166 241.651 133.85 244.486 133.85C245.823 133.85 247.303 134.161 248.225 134.709L247.286 136.736C246.328 136.189 245.371 136.006 244.486 136.006C243.223 136.006 242.68 136.408 242.68 136.919C242.68 138.599 248.548 136.974 248.548 140.846C248.548 142.673 246.869 143.97 243.962 143.97C242.318 143.97 240.657 143.514 239.754 142.911Z" fill="#263238"/>
<path d="M249.343 142.911L250.282 140.865C251.149 141.431 252.467 141.815 253.659 141.815C254.96 141.815 255.447 141.468 255.447 140.92C255.447 139.312 249.577 140.956 249.577 137.029C249.577 135.166 251.238 133.85 254.073 133.85C255.409 133.85 256.891 134.161 257.811 134.709L256.872 136.736C255.915 136.189 254.957 136.006 254.073 136.006C252.809 136.006 252.268 136.408 252.268 136.919C252.268 138.599 258.136 136.974 258.136 140.846C258.136 142.673 256.457 143.97 253.55 143.97C251.907 143.97 250.246 143.514 249.343 142.911Z" fill="#263238"/>
<path d="M275.293 133.997L271.772 143.825H269.063L266.878 137.724L264.621 143.825H261.912L258.408 133.997H261.063L263.356 140.646L265.739 133.997H268.123L270.434 140.646L272.799 133.997H275.293Z" fill="#263238"/>
<path d="M275.619 138.91C275.619 135.95 277.876 133.85 280.964 133.85C284.052 133.85 286.29 135.95 286.29 138.91C286.29 141.868 284.051 143.97 280.964 143.97C277.876 143.97 275.619 141.868 275.619 138.91ZM283.438 138.91C283.438 137.211 282.372 136.189 280.964 136.189C279.555 136.189 278.473 137.211 278.473 138.91C278.473 140.608 279.555 141.632 280.964 141.632C282.372 141.632 283.438 140.609 283.438 138.91Z" fill="#263238"/>
<path d="M294.201 133.85V136.48C293.967 136.462 293.786 136.444 293.569 136.444C292.017 136.444 290.988 137.302 290.988 139.185V143.825H288.171V133.997H290.862V135.294C291.546 134.344 292.702 133.85 294.201 133.85Z" fill="#263238"/>
<path d="M305.686 130.271V143.825H302.995V142.692C302.292 143.55 301.262 143.97 299.961 143.97C297.216 143.97 295.104 141.998 295.104 138.91C295.104 135.823 297.218 133.85 299.961 133.85C301.153 133.85 302.165 134.234 302.869 135.038V130.271H305.686ZM302.923 138.91C302.923 137.211 301.839 136.189 300.449 136.189C299.041 136.189 297.958 137.211 297.958 138.91C297.958 140.608 299.042 141.632 300.449 141.632C301.839 141.632 302.923 140.609 302.923 138.91Z" fill="#263238"/>
<path d="M189.168 213.516H170.864C166.522 213.516 163.003 209.957 163.003 205.565V173.842C163.003 169.451 166.522 165.891 170.864 165.891H189.168C193.509 165.891 197.028 169.451 197.028 173.842V205.565C197.03 209.957 193.509 213.516 189.168 213.516Z" fill="#EBEBEB"/>
<path d="M269.465 213.516H252.078C247.737 213.516 244.218 209.957 244.218 205.565V173.842C244.218 169.451 247.737 165.891 252.078 165.891H269.465C273.807 165.891 277.326 169.451 277.326 173.842V205.565C277.327 209.957 273.807 213.516 269.465 213.516Z" fill="#EBEBEB"/>
<path d="M229.671 213.516H212.285C207.943 213.516 204.424 209.957 204.424 205.565V173.842C204.424 169.451 207.943 165.891 212.285 165.891H229.671C234.013 165.891 237.532 169.451 237.532 173.842V205.565C237.532 209.957 234.013 213.516 229.671 213.516Z" fill="#EBEBEB"/>
<path d="M310.007 213.516H291.686C287.344 213.516 283.825 209.957 283.825 205.565V173.842C283.825 169.451 287.344 165.891 291.686 165.891H310.007C314.349 165.891 317.868 169.451 317.868 173.842V205.565C317.869 209.957 314.349 213.516 310.007 213.516Z" fill="#EBEBEB"/>
<path d="M349.055 213.516H330.734C326.392 213.516 322.873 209.957 322.873 205.565V173.842C322.873 169.451 326.392 165.891 330.734 165.891H349.055C353.397 165.891 356.916 169.451 356.916 173.842V205.565C356.917 209.957 353.397 213.516 349.055 213.516Z" fill="#EBEBEB"/>
<path d="M184.405 188.437L188.045 190.429L186.408 193.199L182.734 191.003L182.802 195.09H179.663L179.696 190.97L176.022 193.199L174.418 190.429L178.059 188.437L174.418 186.411L176.022 183.64L179.696 185.869L179.663 181.748H182.802L182.734 185.869L186.408 183.64L188.045 186.411L184.405 188.437Z" fill="#1E40AF"/>
<path d="M224.066 188.217L227.705 190.21L226.069 192.981L222.395 190.785L222.462 194.872H219.324L219.357 190.752L215.683 192.981L214.079 190.21L217.72 188.217L214.079 186.191L215.683 183.42L219.357 185.65L219.324 181.528H222.462L222.395 185.65L226.069 183.42L227.705 186.191L224.066 188.217Z" fill="#1E40AF"/>
<path d="M264.683 188.217L268.322 190.21L266.687 192.981L263.013 190.785L263.079 194.872H259.941L259.975 190.752L256.303 192.981L254.699 190.21L258.338 188.217L254.699 186.191L256.303 183.42L259.975 185.65L259.941 181.528H263.079L263.013 185.65L266.687 183.42L268.322 186.191L264.683 188.217Z" fill="#1E40AF"/>
<path d="M304.026 188.217L307.666 190.21L306.03 192.981L302.356 190.785L302.422 194.872H299.284L299.318 190.752L295.646 192.981L294.042 190.21L297.682 188.217L294.042 186.191L295.646 183.42L299.318 185.65L299.284 181.528H302.422L302.356 185.65L306.03 183.42L307.666 186.191L304.026 188.217Z" fill="#1E40AF"/>
<path d="M188.82 213.811H171.212C166.686 213.811 163.004 210.086 163.004 205.509V173.901C163.004 169.322 166.687 165.598 171.212 165.598H188.822C193.349 165.598 197.03 169.323 197.03 173.901V205.509C197.03 210.086 193.347 213.811 188.82 213.811ZM171.212 166.185C167.006 166.185 163.584 169.645 163.584 173.901V205.509C163.584 209.764 167.006 213.225 171.212 213.225H188.822C193.027 213.225 196.45 209.764 196.45 205.509V173.901C196.45 169.645 193.028 166.185 188.822 166.185H171.212Z" fill="#263238"/>
<path d="M229.7 213.811H212.091C207.564 213.811 203.881 210.086 203.881 205.509V173.901C203.881 169.322 207.564 165.598 212.091 165.598H229.7C234.227 165.598 237.908 169.323 237.908 173.901V205.509C237.908 210.086 234.225 213.811 229.7 213.811ZM212.091 166.185C207.884 166.185 204.463 169.645 204.463 173.901V205.509C204.463 209.764 207.884 213.225 212.091 213.225H229.7C233.906 213.225 237.328 209.764 237.328 205.509V173.901C237.328 169.645 233.906 166.185 229.7 166.185H212.091Z" fill="#263238"/>
<path d="M269.454 213.811H251.844C247.318 213.811 243.636 210.086 243.636 205.509V173.901C243.636 169.322 247.319 165.598 251.844 165.598H269.454C273.981 165.598 277.663 169.323 277.663 173.901V205.509C277.663 210.086 273.981 213.811 269.454 213.811ZM251.846 166.185C247.641 166.185 244.218 169.645 244.218 173.901V205.509C244.218 209.764 247.639 213.225 251.846 213.225H269.455C273.66 213.225 277.083 209.764 277.083 205.509V173.901C277.083 169.645 273.662 166.185 269.455 166.185H251.846Z" fill="#263238"/>
<path d="M309.66 213.811H292.051C287.524 213.811 283.843 210.086 283.843 205.509V173.901C283.843 169.322 287.525 165.598 292.051 165.598H309.66C314.187 165.598 317.868 169.323 317.868 173.901V205.509C317.87 210.086 314.187 213.811 309.66 213.811ZM292.052 166.185C287.846 166.185 284.424 169.645 284.424 173.901V205.509C284.424 209.764 287.846 213.225 292.052 213.225H309.661C313.868 213.225 317.289 209.764 317.289 205.509V173.901C317.289 169.645 313.868 166.185 309.661 166.185H292.052Z" fill="#263238"/>
<path d="M348.699 213.811H331.09C326.563 213.811 322.881 210.086 322.881 205.509V173.901C322.881 169.322 326.564 165.598 331.09 165.598H348.699C353.226 165.598 356.907 169.323 356.907 173.901V205.509C356.907 210.086 353.226 213.811 348.699 213.811ZM331.09 166.185C326.883 166.185 323.462 169.645 323.462 173.901V205.509C323.462 209.764 326.883 213.225 331.09 213.225H348.699C352.905 213.225 356.327 209.764 356.327 205.509V173.901C356.327 169.645 352.905 166.185 348.699 166.185H331.09Z" fill="#263238"/>
<path d="M349.325 201.169C349.325 201.378 345.102 201.546 339.895 201.546C334.685 201.546 330.464 201.377 330.464 201.169C330.464 200.96 334.685 200.791 339.895 200.791C345.102 200.79 349.325 200.96 349.325 201.169Z" fill="#1E40AF"/>
<path d="M261.51 116.5C282.511 116.5 299.536 99.2781 299.536 78.034C299.536 56.79 282.511 39.5684 261.51 39.5684C240.508 39.5684 223.483 56.79 223.483 78.034C223.483 99.2781 240.508 116.5 261.51 116.5Z" fill="#1E40AF"/>
<path d="M254.816 71.0397H254.183V67.4482C254.183 63.3105 257.511 59.9456 261.6 59.9456C265.691 59.9456 269.017 63.312 269.017 67.4482V70.3745H268.384V67.4482C268.384 63.6635 265.34 60.5846 261.599 60.5846C257.857 60.5846 254.813 63.6635 254.813 67.4482V71.0397H254.816Z" fill="white"/>
<path d="M270.938 96.1224H252.08C250.355 96.1224 248.953 94.7021 248.953 92.9578V73.8819C248.953 72.1376 250.355 70.7188 252.08 70.7188H270.938C272.662 70.7188 274.067 72.1376 274.067 73.8819V92.9578C274.067 94.7035 272.664 96.1224 270.938 96.1224ZM252.081 71.3592C250.706 71.3592 249.586 72.4905 249.586 73.8819V92.9578C249.586 94.3491 250.704 95.4819 252.081 95.4819H270.94C272.315 95.4819 273.435 94.3491 273.435 92.9578V73.8819C273.435 72.4905 272.316 71.3592 270.94 71.3592H252.081Z" fill="white"/>
<path d="M261.6 84.0464C259.968 84.0464 258.64 82.703 258.64 81.0518C258.64 79.4005 259.968 78.0571 261.6 78.0571C263.233 78.0571 264.561 79.4005 264.561 81.0518C264.561 82.703 263.233 84.0464 261.6 84.0464ZM261.6 78.699C260.317 78.699 259.273 79.7549 259.273 81.0532C259.273 82.3516 260.317 83.4074 261.6 83.4074C262.884 83.4074 263.928 82.3516 263.928 81.0532C263.929 79.7549 262.884 78.699 261.6 78.699Z" fill="white"/>
<path d="M261.827 83.5889H261.194V88.9929H261.827V83.5889Z" fill="white"/>
<path d="M390.308 24.8043C391.703 18.396 387.698 12.0573 381.362 10.6465C375.027 9.23574 368.761 13.287 367.366 19.6953C365.972 26.1036 369.977 32.4423 376.312 33.8531C382.647 35.2639 388.913 31.2126 390.308 24.8043Z" fill="#E0E0E0"/>
<path d="M375.023 26.4456C374.93 26.4456 374.839 26.4108 374.769 26.3396C374.628 26.1973 374.628 25.9678 374.769 25.8269L382.374 18.1341C382.514 17.9918 382.741 17.9918 382.881 18.1341C383.021 18.2764 383.021 18.5059 382.881 18.6482L375.276 26.341C375.207 26.4093 375.116 26.4456 375.023 26.4456Z" fill="white"/>
<path d="M382.628 26.4454C382.536 26.4454 382.444 26.4105 382.374 26.3393L374.769 18.6465C374.628 18.5042 374.628 18.2747 374.769 18.1324C374.909 17.9901 375.136 17.9901 375.277 18.1324L382.882 25.8252C383.023 25.9676 383.023 26.197 382.882 26.3379C382.812 26.4091 382.721 26.4454 382.628 26.4454Z" fill="white"/>
<path d="M76.7514 470.443C76.7514 470.443 38.818 426.28 24.5023 382.115C10.1881 337.952 16.9877 343.02 16.9877 343.02C16.9877 343.02 36.3126 385.921 50.9844 406.643C65.6575 427.365 91.7807 457.773 91.7807 457.773L76.7514 470.443Z" fill="#455A64"/>
<path d="M84.3121 349.9C83.0889 347.745 79.8312 348.863 80.1973 351.322C82.5103 366.834 87.5095 403.239 87.3128 426.849C87.0573 457.522 87.3229 469.378 87.3229 469.378H103.112C103.112 469.378 100.309 405.972 96.7413 386.641C94.2388 373.085 88.9309 358.038 84.3121 349.9Z" fill="#455A64"/>
<path d="M92.9193 464.224C92.9193 464.224 102.857 443.089 105.914 416.541C107.215 405.249 104.895 389.993 101.445 369.63C99.7735 359.768 99.3945 352.262 99.449 347.059C99.4892 343.126 104.621 341.842 106.521 345.272C108.427 348.711 113.943 360.462 115.343 367.826C119.164 387.931 123.496 397.983 120.184 417.057C116.872 436.13 104.641 465.514 104.641 465.514L92.9193 464.224Z" fill="#455A64"/>
<path d="M107.14 465.512C107.14 465.512 148.789 374.973 151.676 361.541C154.564 348.108 164.378 317.157 165.533 318.908C166.687 320.66 168.42 337.013 160.914 355.701C153.408 374.389 121.362 468.27 121.362 468.27H107.14" fill="#455A64"/>
<path d="M88.3578 461.462C88.3391 461.487 87.9371 461.206 87.1905 460.652C86.4511 460.085 85.3284 459.288 83.9645 458.159C81.1921 455.956 77.3012 452.604 72.7715 448.165C63.679 439.333 52.364 425.715 42.5551 408.935C32.7247 392.158 26.1131 375.75 21.9294 363.739C19.8347 357.725 18.3056 352.804 17.315 349.383C16.8053 347.678 16.455 346.339 16.2095 345.435C15.9697 344.528 15.8577 344.049 15.8864 344.04C15.9166 344.032 16.086 344.495 16.3803 345.384C16.6947 346.352 17.1154 347.649 17.6452 349.28C18.7364 352.664 20.3544 357.55 22.5209 363.524C26.8482 375.457 33.5301 391.769 43.3204 408.476C53.0891 425.186 64.2677 438.796 73.2137 447.712C77.6717 452.193 81.4864 455.608 84.1856 457.889C85.5136 459.057 86.6005 459.896 87.3025 460.509C88.0118 461.109 88.3765 461.437 88.3578 461.462Z" fill="#263238"/>
<path d="M92.9146 418.027C92.8529 418.031 92.7236 417.084 92.5413 415.37C92.3432 413.495 92.0847 411.054 91.7732 408.113C91.1127 401.989 90.0848 393.541 88.6131 384.262C87.1343 374.98 85.4947 366.633 84.2227 360.605C83.6067 357.714 83.0956 355.313 82.7022 353.47C82.3447 351.784 82.1739 350.845 82.2342 350.83C82.2931 350.814 82.5773 351.726 83.0382 353.388C83.5048 355.048 84.1222 357.466 84.8357 360.466C86.2657 366.466 88.0087 374.816 89.4904 384.12C90.9649 393.422 91.8981 401.903 92.3977 408.052C92.649 411.128 92.8127 413.62 92.8844 415.344C92.9634 417.068 92.9763 418.022 92.9146 418.027Z" fill="#263238"/>
<path d="M102.671 344.561C102.699 344.549 102.867 344.945 103.162 345.711C103.477 346.563 103.892 347.68 104.409 349.074C104.961 350.532 105.594 352.332 106.197 354.465C106.817 356.591 107.619 358.988 108.221 361.714C108.55 363.073 108.894 364.493 109.253 365.972C109.604 367.455 109.851 369.022 110.169 370.632C110.85 373.848 111.271 377.333 111.774 380.992C112.589 388.331 113.034 396.459 112.769 404.985C112.431 413.511 111.411 421.588 110.079 428.851C109.317 432.464 108.65 435.91 107.744 439.068C107.312 440.651 106.955 442.196 106.5 443.65C106.037 445.099 105.594 446.49 105.17 447.822C104.376 450.497 103.406 452.83 102.638 454.906C101.885 456.99 101.127 458.738 100.474 460.154C99.8594 461.506 99.3669 462.591 98.9908 463.418C98.6433 464.161 98.4466 464.542 98.4193 464.529C98.3906 464.516 98.5328 464.108 98.8271 463.343C99.163 462.501 99.6038 461.395 100.155 460.017C100.758 458.585 101.467 456.822 102.172 454.728C102.895 452.642 103.819 450.304 104.571 447.626C104.976 446.296 105.4 444.903 105.841 443.455C106.276 442.003 106.614 440.459 107.029 438.88C107.901 435.73 108.535 432.294 109.273 428.697C110.554 421.463 111.542 413.432 111.881 404.953C112.143 396.475 111.726 388.394 110.96 381.087C110.479 377.445 110.089 373.974 109.443 370.769C109.141 369.164 108.912 367.6 108.58 366.12C108.243 364.643 107.918 363.224 107.609 361.868C107.048 359.143 106.291 356.744 105.719 354.61C105.163 352.471 104.58 350.662 104.08 349.189C103.63 347.774 103.268 346.64 102.991 345.775C102.754 344.989 102.642 344.571 102.671 344.561Z" fill="#263238"/>
<path d="M165.054 320.728C165.069 320.731 165.059 320.867 165.021 321.135C164.971 321.453 164.911 321.839 164.838 322.311C164.654 323.341 164.424 324.87 164.016 326.818C163.212 330.713 161.873 336.319 159.788 343.117C157.714 349.919 154.869 357.894 151.495 366.654C148.136 375.42 144.229 384.969 140.532 395.135C136.778 405.284 133.885 415.19 131.167 424.18C128.473 433.177 125.918 441.25 123.448 447.916C121.003 454.591 118.65 459.848 116.873 463.399C116.02 465.193 115.252 466.53 114.758 467.451C114.524 467.867 114.333 468.206 114.175 468.487C114.039 468.718 113.964 468.832 113.95 468.825C113.937 468.818 113.985 468.689 114.095 468.443C114.231 468.153 114.396 467.798 114.599 467.367C115.041 466.422 115.759 465.061 116.56 463.248C118.237 459.66 120.495 454.383 122.857 447.699C125.244 441.022 127.731 432.949 130.38 423.942C133.053 414.945 135.929 405.005 139.695 394.826C143.402 384.635 147.33 375.095 150.73 366.354C154.143 357.618 157.042 349.686 159.187 342.927C161.342 336.17 162.77 330.607 163.676 326.744C164.134 324.813 164.418 323.297 164.66 322.279C164.769 321.814 164.858 321.434 164.931 321.12C164.998 320.857 165.04 320.725 165.054 320.728Z" fill="#263238"/>
<path d="M36.6244 300.73C33.9999 298.091 29.6353 300.851 30.7207 304.429C31.8219 308.057 33.4902 312.748 35.9539 318.043C41.6796 330.351 58.4992 374.514 66.3728 398.769C74.2463 423.023 85.3402 468.272 85.3402 468.272L102.153 465.514C102.153 465.514 86.7716 391.166 71.741 364.379C59.665 342.854 47.5877 311.749 36.6244 300.73Z" fill="#455A64"/>
<path d="M70.9742 413.937C71.0316 413.917 71.3375 414.643 71.8414 415.974C72.3396 417.309 73.0158 419.255 73.7796 421.685C75.3274 426.536 77.2225 433.312 79.132 440.841C81.0358 448.372 82.6223 455.223 83.7278 460.19C84.2318 462.54 84.6553 464.513 84.9927 466.083C85.2727 467.479 85.4004 468.257 85.3401 468.273C85.2798 468.288 85.0401 467.537 84.6553 466.166C84.2447 464.615 83.7292 462.663 83.1162 460.339C81.8298 455.224 80.1399 448.5 78.2692 441.064C76.3625 433.544 74.5679 426.756 73.1766 421.871C72.5133 419.565 71.9548 417.627 71.5126 416.088C71.112 414.723 70.9168 413.957 70.9742 413.937Z" fill="#263238"/>
<path d="M93.7863 466.891C93.7719 466.892 93.7389 466.738 93.6915 466.438C93.6413 466.085 93.5781 465.643 93.5006 465.099C93.324 463.922 93.1675 462.177 92.8114 459.949C92.1941 455.481 91.0929 449.043 89.2867 441.189C87.4921 433.332 84.8733 424.093 81.4175 414.02C77.9689 403.944 73.643 393.057 68.7414 381.79C58.8507 359.282 48.97 339.319 42.4776 324.558C39.1955 317.195 36.6543 311.182 34.9817 306.994C34.1288 304.907 33.5172 303.264 33.0908 302.156C32.9013 301.639 32.7477 301.222 32.6242 300.888C32.5237 300.601 32.4792 300.451 32.4935 300.445C32.5079 300.439 32.5811 300.579 32.7089 300.855C32.8539 301.18 33.0348 301.587 33.2573 302.089C33.7512 303.244 34.4346 304.837 35.3004 306.859C37.0706 311.002 39.6966 316.97 43.049 324.293C49.6835 338.975 59.6489 358.886 69.5555 381.427C74.4642 392.711 78.7772 403.631 82.1913 413.75C85.6141 423.863 88.1783 433.151 89.8983 441.047C91.6313 448.942 92.6406 455.412 93.1531 459.902C93.4561 462.142 93.558 463.896 93.6772 465.08C93.7188 465.629 93.7533 466.073 93.7806 466.429C93.7992 466.732 93.8021 466.889 93.7863 466.891Z" fill="#263238"/>
<path d="M102.152 465.512C102.092 465.52 101.892 464.502 101.585 462.654C101.251 460.657 100.81 458.022 100.277 454.837C99.1185 448.248 97.3497 439.172 94.8056 429.295C92.2873 419.406 89.4503 410.611 87.268 404.295C86.197 401.251 85.3097 398.733 84.6392 396.826C84.0103 395.064 83.6887 394.078 83.7447 394.056C83.8021 394.033 84.2314 394.974 84.9622 396.698C85.6858 398.423 86.6994 400.937 87.861 404.079C90.1998 410.353 93.1416 419.149 95.667 429.07C98.2198 438.98 99.8953 448.107 100.897 454.735C101.375 458.053 101.743 460.742 101.928 462.608C102.131 464.471 102.214 465.505 102.152 465.512Z" fill="#263238"/>
<path d="M136.66 463.07H71.0356V543.948H136.66V463.07Z" fill="#1E40AF"/>
<g opacity="0.3">
<path d="M136.66 463.07H71.0356V543.948H136.66V463.07Z" fill="black"/>
</g>
<path d="M115.726 463.07H57.5041V543.948H115.726V463.07Z" fill="#1E40AF"/>
<path d="M520.181 283.134L485.679 278.071L416.662 288.402L397.291 295.328L400.727 338.172L467.081 350.535L511.86 337.115L528.787 311.92L520.181 283.134Z" fill="#FFBE9D"/>
<path d="M541.925 287.229L513.05 280.348C513.05 280.348 492.637 344.184 442.257 341.437C401.195 339.197 400.727 292.835 400.727 292.835L371.131 302.422C371.131 302.422 359.811 379.204 372.343 433.598C375.27 446.307 379.19 463.442 379.19 463.442L375.188 542.919L594.045 543.272L541.925 287.229Z" fill="#1E40AF"/>
<g opacity="0.3">
<path d="M456.133 527.488C466.782 527.222 476.612 528.133 487.261 527.867C500.045 527.548 512.918 527.235 525.534 529.338C534.988 530.914 544.189 533.832 553.654 535.342C566.552 537.4 580.333 536.665 591.818 530.38L589.966 519.538L546.356 508.917L456.133 527.488Z" fill="black"/>
</g>
<path d="M346.423 320.31C356.432 307.23 373.078 301.792 373.078 301.792L384.271 400.397L363.065 543.964L293.61 543.63C293.61 543.63 331.92 339.262 346.423 320.31Z" fill="#1E40AF"/>
<path d="M538.553 286.502C538.553 286.502 585.302 290.291 602.075 367.765C609.662 402.809 619.248 443.878 622.012 471.48C624.016 491.5 613.258 522.842 593.528 525.405L568.722 528.776C563.856 529.437 558.896 529.341 554.11 528.23C538.444 524.591 536.848 513.716 534.088 502.16L526.846 479.038C522.886 457.05 543.137 452.95 554.323 453.194L545.984 352.834L538.553 286.502Z" fill="#1E40AF"/>
<path d="M367.29 356.612C367.264 356.607 367.191 356.981 367.076 357.692C366.958 358.478 366.802 359.516 366.607 360.815C366.509 361.502 366.401 362.255 366.285 363.074C366.2 363.909 366.11 364.811 366.014 365.776C365.82 367.715 365.586 369.922 365.485 372.375C365.131 377.271 365.138 383.125 365.371 389.608C365.642 396.094 366.368 403.2 367.439 410.605C368.513 418.015 369.864 425.019 371.235 431.353C372.581 437.692 373.961 443.362 375.125 448.118C376.315 452.869 377.3 456.707 378.016 459.35C378.364 460.615 378.641 461.626 378.852 462.392C379.052 463.084 379.168 463.446 379.192 463.439C379.218 463.433 379.149 463.058 378.998 462.354C378.822 461.58 378.589 460.557 378.299 459.279C377.652 456.534 376.749 452.699 375.639 447.992C374.542 443.221 373.217 437.544 371.91 431.208C370.578 424.876 369.251 417.884 368.18 410.495C367.112 403.11 366.367 396.034 366.06 389.575C365.79 383.118 365.729 377.287 366.015 372.403C366.083 369.957 366.278 367.752 366.432 365.815C366.506 364.851 366.577 363.949 366.641 363.114C366.734 362.293 366.819 361.538 366.898 360.851C367.036 359.547 367.145 358.504 367.228 357.714C367.293 356.995 367.316 356.616 367.29 356.612Z" fill="#263238"/>
<path d="M590.997 480.351C591.04 480.341 590.937 479.641 590.627 478.402C590.319 477.163 589.752 475.394 588.82 473.304C586.991 469.14 583.38 463.691 577.739 459.539C572.097 455.386 565.86 453.585 561.381 453.104C559.128 452.848 557.292 452.847 556.031 452.933C554.771 453.014 554.08 453.132 554.084 453.175C554.089 453.332 556.884 452.998 561.313 453.634C565.711 454.243 571.784 456.09 577.3 460.151C582.813 464.211 586.418 469.488 588.342 473.534C590.304 477.602 590.849 480.396 590.997 480.351Z" fill="#263238"/>
<path d="M580.19 441.756C580.19 441.704 579.788 441.669 579.06 441.648C578.332 441.619 577.277 441.662 575.979 441.786C573.385 442.032 569.813 442.767 566.116 444.299C562.422 445.843 559.371 447.863 557.358 449.534C556.348 450.368 555.569 451.09 555.072 451.629C554.568 452.16 554.308 452.471 554.344 452.509C554.43 452.6 555.606 451.497 557.681 449.959C559.75 448.418 562.779 446.512 566.401 444.999C570.027 443.497 573.504 442.696 576.047 442.318C578.589 441.936 580.192 441.884 580.19 441.756Z" fill="#263238"/>
<path d="M531.796 341.437C531.848 341.435 531.885 340.696 531.91 339.366C531.92 338.035 531.994 336.11 532.155 333.741C532.468 329.003 533.338 322.474 535.266 315.493C537.212 308.514 539.829 302.48 542 298.27C543.081 296.161 544.007 294.478 544.683 293.338C545.347 292.189 545.695 291.538 545.652 291.509C545.609 291.48 545.179 292.077 544.436 293.181C543.683 294.277 542.682 295.929 541.533 298.017C539.229 302.188 536.51 308.247 534.547 315.288C532.602 322.332 531.808 328.935 531.628 333.71C531.533 336.099 531.539 338.035 531.618 339.368C531.684 340.703 531.744 341.438 531.796 341.437Z" fill="#263238"/>
<path d="M442.258 411.774C442.234 411.783 442.307 412.064 442.469 412.591C442.646 413.112 442.85 413.905 443.245 414.877C443.964 416.846 445.209 419.63 447.14 422.847C449.062 426.065 451.764 429.665 455.311 433.128C458.847 436.591 463.279 439.856 468.4 442.375C473.547 444.843 478.838 446.302 483.722 446.927C488.612 447.564 493.079 447.444 496.764 446.951C500.454 446.463 503.38 445.705 505.349 445.041C506.345 444.745 507.084 444.411 507.597 444.223C508.105 444.021 508.367 443.904 508.358 443.879C508.335 443.815 507.251 444.191 505.265 444.758C503.283 445.33 500.362 446.004 496.703 446.418C489.444 447.291 478.9 446.625 468.725 441.692C458.558 436.745 451.454 428.838 447.588 422.562C445.619 419.414 444.313 416.688 443.515 414.765C442.709 412.843 442.322 411.753 442.258 411.774Z" fill="#263238"/>
<path d="M540.782 520.768C540.859 520.701 541.594 521.756 543.338 523.211C545.091 524.64 547.988 526.297 551.895 527.341C555.787 528.423 560.639 528.869 565.974 528.593C571.313 528.204 577.203 527.571 583.325 526.652C589.428 525.692 595.291 524.581 600.26 522.704C602.701 521.679 604.746 520.11 606.484 518.501C608.219 516.873 609.656 515.158 610.836 513.501C613.208 510.187 614.684 507.199 615.613 505.114C616.058 504.06 616.407 503.24 616.615 502.674C616.836 502.112 616.962 501.819 616.987 501.827C617.011 501.836 616.932 502.144 616.757 502.725C616.595 503.31 616.288 504.151 615.881 505.23C615.028 507.366 613.614 510.416 611.265 513.815C610.097 515.514 608.661 517.277 606.908 518.962C605.149 520.626 603.064 522.26 600.532 523.348C595.425 525.315 589.583 526.431 583.438 527.402C577.283 528.326 571.401 528.937 566.011 529.292C560.61 529.533 555.697 529.026 551.756 527.86C547.802 526.731 544.879 524.962 543.154 523.44C542.314 522.646 541.681 522.017 541.33 521.518C540.949 521.04 540.762 520.784 540.782 520.768Z" fill="#263238"/>
<path d="M533.067 366.13C533.268 366.079 538.197 385.438 544.075 409.364C549.955 433.298 554.558 452.734 554.357 452.784C554.158 452.835 549.229 433.48 543.348 409.547C537.47 385.62 532.867 366.179 533.067 366.13Z" fill="#263238"/>
<path d="M527.114 475.382C527.064 475.385 526.974 474.82 526.877 473.791C526.79 472.763 526.651 471.265 526.778 469.395C526.885 467.53 527.512 465.272 528.879 463.193C529.559 462.162 530.309 461.105 531.278 460.143C532.237 459.184 533.377 458.363 534.6 457.643C539.579 454.904 544.594 453.758 548.208 453.2C550.024 452.939 551.505 452.84 552.528 452.811C553.552 452.782 554.118 452.822 554.119 452.869C554.125 452.995 551.866 453.081 548.294 453.727C544.758 454.405 539.798 455.64 534.975 458.298C533.796 458.992 532.704 459.773 531.789 460.675C530.874 461.564 530.125 462.592 529.456 463.574C528.115 465.553 527.48 467.64 527.305 469.445C527.116 471.252 527.172 472.748 527.169 473.776C527.175 474.806 527.167 475.38 527.114 475.382Z" fill="#263238"/>
<g opacity="0.3">
<path d="M369.442 421.662C357.516 401.231 357.26 374.68 367.665 353.414C364.561 376.059 364.815 399.271 369.794 421.572" fill="black"/>
</g>
<path d="M432.571 472.668C432.599 472.681 432.626 472.694 432.656 472.709C432.63 472.696 432.602 472.683 432.571 472.668Z" fill="#FFBE9D"/>
<path d="M433.084 472.915C433.151 472.947 433.213 472.978 433.273 473.007C433.219 472.98 433.159 472.951 433.084 472.915Z" fill="#FFBE9D"/>
<path d="M432.657 472.709C432.824 472.789 432.969 472.86 433.084 472.914C432.937 472.846 432.785 472.771 432.657 472.709Z" fill="#FFBE9D"/>
<path d="M432.383 472.577C432.455 472.612 432.508 472.636 432.571 472.668C432.461 472.615 432.383 472.577 432.383 472.577Z" fill="#FFBE9D"/>
<path d="M388.472 513.381C392.225 506.2 421.555 487.264 421.555 487.264L413.616 485.408L404.85 489.158C404.85 489.158 404.302 492.813 401.077 497.463C397.853 502.114 392.383 497.305 392.383 497.305L396.087 479.346L413.43 468.786C413.43 468.786 429.749 471.309 432.383 472.578L439.341 479.019C442.393 481.439 451.207 490.985 453.618 491.274C456.028 491.563 531.735 474.336 531.735 474.336C542.113 482.65 547.582 499.168 549.23 511.083C549.23 511.083 551.077 516.937 549.068 520.114L456.132 527.491L436.441 532.997C436.441 532.997 425.545 537.496 420.26 538.62C413.707 540.013 409.294 537.877 409.117 534.207C408.941 530.538 414.022 530.142 414.022 530.142C414.022 530.142 422.29 527.117 426.686 524.508C431.083 521.9 433.835 516.574 433.835 516.574L426.813 517.424C426.813 517.424 411.887 527.904 406.275 530.978C400.662 534.053 399.555 528.412 399.103 526.692C398.651 524.973 415.868 507.936 415.868 507.936C415.868 507.936 399.498 518.146 396.553 520.721C393.607 523.296 389.245 524.067 388.309 522.34C387.376 520.609 384.719 520.561 388.472 513.381Z" fill="#FFBE9D"/>
<path d="M433.273 473.007C433.342 473.04 433.397 473.066 433.439 473.086C433.393 473.063 433.337 473.037 433.273 473.007Z" fill="#FFBE9D"/>
<path d="M433.529 473.13C433.557 473.143 433.557 473.143 433.529 473.13V473.13Z" fill="#FFBE9D"/>
<path d="M433.439 473.087C433.479 473.106 433.511 473.122 433.53 473.13C433.512 473.122 433.482 473.107 433.439 473.087Z" fill="#FFBE9D"/>
<path d="M469.239 515.041C469.286 515.042 469.315 514.631 469.326 513.877C469.351 513.498 469.312 513.041 469.236 512.509C469.185 511.975 469.094 511.371 468.913 510.72C468.327 508.075 466.648 504.674 464.156 501.446C461.667 498.207 458.986 495.668 456.996 493.918C454.996 492.173 453.674 491.205 453.618 491.272C453.552 491.352 454.764 492.454 456.669 494.283C458.564 496.116 461.164 498.686 463.612 501.871C466.063 505.049 467.755 508.311 468.443 510.848C469.171 513.373 469.095 515.045 469.239 515.041Z" fill="#EB996E"/>
<path d="M422.233 486.702C422.204 486.875 424.543 487.175 427.238 486.247C429.941 485.342 431.627 483.675 431.5 483.555C431.376 483.388 429.582 484.734 427.019 485.588C424.465 486.471 422.233 486.493 422.233 486.702Z" fill="#EB996E"/>
<path d="M417.358 506.366C417.43 506.543 420.774 505.322 424.826 503.636C428.877 501.95 432.103 500.439 432.03 500.26C431.958 500.083 428.616 501.305 424.563 502.991C420.513 504.677 417.287 506.187 417.358 506.366Z" fill="#EB996E"/>
<path d="M433.087 516.41C433.179 516.584 434.843 515.857 436.916 515.041C438.986 514.219 440.698 513.613 440.649 513.421C440.604 513.24 438.78 513.553 436.666 514.393C434.548 515.225 432.998 516.247 433.087 516.41Z" fill="#EB996E"/>
<path d="M419.773 507.674C419.699 507.866 421.4 508.504 422.669 510.232C423.977 511.931 424.132 513.76 424.335 513.738C424.419 513.736 424.507 513.267 424.392 512.514C424.281 511.764 423.917 510.745 423.218 509.811C422.514 508.88 421.64 508.252 420.955 507.945C420.267 507.632 419.798 507.593 419.773 507.674Z" fill="#EB996E"/>
<path d="M412.885 496.701C412.794 496.882 414.078 497.585 414.923 499.091C415.805 500.576 415.778 502.053 415.979 502.063C416.154 502.127 416.517 500.451 415.518 498.741C414.537 497.019 412.916 496.515 412.885 496.701Z" fill="#EB996E"/>
<path d="M415.222 477.098C415.298 477.136 415.567 476.807 415.771 476.164C415.977 475.525 416.068 474.561 415.828 473.548C415.584 472.536 415.068 471.721 414.596 471.248C414.122 470.769 413.736 470.602 413.686 470.67C413.554 470.822 414.748 471.884 415.159 473.711C415.618 475.526 415.035 477.024 415.222 477.098Z" fill="#EB996E"/>
<path d="M549.892 522.805C549.84 522.803 549.799 522.032 549.767 520.645C549.759 519.951 549.74 519.103 549.67 518.119C549.606 517.136 549.582 516.015 549.44 514.784C549.018 509.856 547.931 503.049 545.383 495.946C544.09 492.405 542.558 489.155 540.979 486.305C540.126 484.918 539.378 483.559 538.521 482.39C538.111 481.797 537.711 481.222 537.327 480.667C536.915 480.142 536.515 479.635 536.134 479.148C533.048 475.307 530.681 473.344 530.793 473.22C530.826 473.181 531.417 473.665 532.461 474.578C532.994 475.024 533.618 475.599 534.287 476.325C534.968 477.038 535.773 477.827 536.541 478.807C536.94 479.289 537.355 479.792 537.785 480.313C538.198 480.852 538.597 481.436 539.028 482.03C539.917 483.197 540.695 484.56 541.574 485.955C543.206 488.822 544.777 492.104 546.083 495.687C548.66 502.876 549.675 509.772 549.965 514.744C550.074 515.987 550.062 517.117 550.086 518.108C550.116 519.098 550.093 519.951 550.056 520.648C550.001 522.039 549.944 522.806 549.892 522.805Z" fill="#263238"/>
<g opacity="0.3">
<path d="M581.781 455.63C573.213 452.009 563.201 451.083 554.24 453.097C570.327 452.101 585.843 462.505 591.401 477.406C592.074 479.212 593.395 481.341 595.283 481.058C597.04 480.795 597.695 478.57 597.696 476.772C597.705 467.38 590.35 459.252 581.781 455.63Z" fill="black"/>
</g>
<path d="M366.73 349.969C366.709 350.017 366.269 349.864 365.488 349.546C364.706 349.234 363.597 348.726 362.251 348.049C359.557 346.698 355.944 344.587 352.244 341.826C348.548 339.058 345.49 336.184 343.423 333.975C342.387 332.871 341.582 331.949 341.057 331.284C340.528 330.623 340.254 330.241 340.293 330.208C340.382 330.129 341.645 331.502 343.796 333.599C345.945 335.697 349.026 338.477 352.686 341.219C356.35 343.952 359.882 346.115 362.495 347.577C365.111 349.041 366.779 349.86 366.73 349.969Z" fill="white"/>
<path d="M532.469 355.441C532.475 355.453 532.353 355.537 532.108 355.691C531.823 355.863 531.462 356.083 531.007 356.359C530.043 356.955 528.583 357.762 526.685 358.774C522.883 360.777 517.221 363.396 509.953 365.894C502.687 368.386 493.801 370.67 483.778 372.259C473.757 373.861 462.618 374.732 450.929 375.018C439.23 375.302 428.093 375.079 417.966 374.848C407.837 374.602 398.71 373.955 391.12 372.799C383.528 371.65 377.504 370.034 373.441 368.646C371.409 367.95 369.847 367.365 368.811 366.912C368.321 366.705 367.932 366.54 367.626 366.412C367.36 366.296 367.227 366.23 367.233 366.217C367.237 366.206 367.381 366.246 367.655 366.339C367.966 366.45 368.366 366.592 368.865 366.769C369.918 367.177 371.491 367.715 373.53 368.365C377.607 369.664 383.623 371.193 391.197 372.271C398.767 373.355 407.867 373.945 417.983 374.153C428.102 374.346 439.236 374.546 450.91 374.265C462.577 373.98 473.682 373.13 483.673 371.572C493.666 370.027 502.527 367.806 509.786 365.388C517.047 362.966 522.722 360.43 526.554 358.514C528.467 357.546 529.947 356.78 530.932 356.228C531.401 355.98 531.776 355.783 532.069 355.627C532.327 355.492 532.462 355.43 532.469 355.441Z" fill="white"/>
<path d="M367.234 407.145C367.22 407.196 366.587 407.055 365.454 406.76C364.179 406.407 362.579 405.966 360.676 405.44C356.651 404.294 351.105 402.66 344.993 400.81C338.88 398.96 333.358 397.244 329.371 395.968C327.496 395.351 325.918 394.831 324.662 394.417C323.555 394.035 322.949 393.8 322.965 393.75C322.979 393.701 323.614 393.84 324.746 394.135C326.021 394.487 327.621 394.929 329.525 395.455C333.549 396.601 339.095 398.235 345.209 400.085C351.319 401.934 356.841 403.649 360.826 404.927C362.703 405.544 364.279 406.064 365.536 406.478C366.644 406.859 367.248 407.094 367.234 407.145Z" fill="white"/>
<path d="M371.412 487.463C371.353 487.663 357.016 483.502 339.395 478.169C321.767 472.835 307.529 468.352 307.59 468.151C307.648 467.951 321.983 472.112 339.611 477.445C357.231 482.778 371.471 487.262 371.412 487.463Z" fill="white"/>
<path d="M578.923 313.804C578.953 313.847 578.388 314.293 577.342 315.066C576.299 315.843 574.753 316.915 572.812 318.193C568.934 320.752 563.415 324.053 557.069 327.21C550.718 330.36 544.759 332.759 540.388 334.3C538.201 335.073 536.418 335.654 535.173 336.014C533.93 336.38 533.235 336.558 533.219 336.508C533.203 336.458 533.868 336.185 535.081 335.734C536.425 335.225 538.145 334.576 540.205 333.798C544.518 332.133 550.416 329.667 556.74 326.53C563.059 323.386 568.592 320.174 572.532 317.74C574.4 316.566 575.961 315.587 577.18 314.822C578.274 314.125 578.894 313.76 578.923 313.804Z" fill="white"/>
<path d="M607.522 396.318C607.542 396.366 606.713 396.761 605.192 397.436C603.678 398.121 601.446 399.025 598.661 400.06C593.093 402.138 585.227 404.581 576.335 406.376C567.437 408.158 559.245 408.943 553.315 409.181C550.349 409.303 547.947 409.332 546.288 409.287C544.63 409.253 543.713 409.21 543.714 409.157C543.714 409.105 544.632 409.05 546.286 408.993C547.941 408.948 550.334 408.838 553.288 408.648C559.191 408.274 567.333 407.41 576.19 405.636C585.042 403.849 592.891 401.499 598.486 399.556C601.286 398.589 603.538 397.763 605.085 397.163C606.635 396.573 607.502 396.27 607.522 396.318Z" fill="white"/>
<path d="M566.178 528.31C566.153 528.304 566.179 528.026 566.252 527.5C566.347 526.893 566.463 526.136 566.607 525.211C566.782 524.222 566.977 523.009 567.109 521.587C567.254 520.169 567.501 518.562 567.565 516.767C567.619 515.87 567.675 514.932 567.734 513.957C567.787 512.98 567.757 511.96 567.774 510.906C567.839 508.797 567.685 506.547 567.577 504.18C567.216 499.456 566.506 494.284 565.263 488.959C563.967 483.645 562.262 478.716 560.452 474.343C559.48 472.186 558.601 470.114 557.592 468.268C557.101 467.338 556.669 466.416 556.179 465.572C555.687 464.731 555.214 463.924 554.761 463.15C553.894 461.581 552.95 460.267 552.181 459.072C551.421 457.868 550.7 456.879 550.099 456.08C549.553 455.323 549.108 454.705 548.751 454.208C548.449 453.774 548.3 453.538 548.319 453.521C548.339 453.505 548.527 453.708 548.867 454.111C549.255 454.584 549.739 455.177 550.33 455.9C550.97 456.674 551.728 457.641 552.524 458.828C553.329 460.006 554.31 461.307 555.212 462.867C555.681 463.638 556.171 464.442 556.68 465.28C557.186 466.123 557.635 467.043 558.14 467.974C559.181 469.822 560.087 471.9 561.084 474.065C562.943 478.456 564.682 483.421 565.99 488.78C567.243 494.149 567.938 499.369 568.264 504.134C568.354 506.521 568.485 508.787 568.393 510.912C568.363 511.973 568.379 513 568.31 513.982C568.234 514.962 568.162 515.905 568.091 516.807C567.994 518.61 567.708 520.221 567.523 521.641C567.351 523.065 567.112 524.276 566.893 525.259C566.693 526.175 566.529 526.925 566.399 527.526C566.278 528.049 566.202 528.316 566.178 528.31Z" fill="white"/>
<path d="M621.647 483.791C621.567 483.796 621.529 482.609 621.204 480.516C620.896 478.422 620.081 475.428 618.385 472.057C616.71 468.677 613.97 465.035 610.272 461.715C606.566 458.412 601.857 455.482 596.48 453.553C591.078 451.662 585.626 450.903 580.673 450.734C575.711 450.561 571.233 450.879 567.486 451.234C563.737 451.591 560.709 451.97 558.614 452.211C557.632 452.319 556.833 452.406 556.199 452.474C555.647 452.526 555.354 452.541 555.351 452.516C555.348 452.49 555.632 452.425 556.179 452.324C556.808 452.218 557.601 452.085 558.576 451.921C560.659 451.59 563.68 451.129 567.433 450.702C571.184 450.278 575.684 449.902 580.694 450.038C585.695 450.171 591.233 450.917 596.726 452.84C602.203 454.805 606.984 457.805 610.728 461.195C614.466 464.601 617.211 468.346 618.856 471.817C620.52 475.28 621.268 478.344 621.489 480.476C621.676 481.533 621.616 482.375 621.66 482.936C621.677 483.497 621.673 483.791 621.647 483.791Z" fill="white"/>
<path d="M467.187 441.756C467.188 441.782 466.91 441.828 466.376 441.894C465.758 441.958 464.986 442.039 464.037 442.138C461.9 442.319 458.983 442.566 455.424 442.868C448.148 443.438 438.089 444.13 426.969 444.717C415.845 445.308 405.765 445.661 398.466 445.741C394.814 445.767 391.861 445.78 389.82 445.713C388.868 445.683 388.089 445.658 387.469 445.638C386.932 445.612 386.651 445.586 386.651 445.559C386.651 445.533 386.934 445.509 387.471 445.485C388.09 445.468 388.868 445.446 389.82 445.419C391.962 445.366 394.886 445.294 398.454 445.205C405.745 444.989 415.812 444.552 426.93 443.96C437.997 443.327 448.011 442.755 455.388 442.332C458.953 442.131 461.875 441.964 464.015 441.843C464.967 441.801 465.744 441.768 466.364 441.74C466.901 441.725 467.184 441.73 467.187 441.756Z" fill="white"/>
<g opacity="0.3">
<path d="M475.528 444.771C484.578 447.463 497.112 448.12 505.926 444.721C499.027 454.628 485.718 458.221 474.17 454.994C462.623 451.767 451.974 440.074 451.081 427.99C456.676 435.674 466.479 442.078 475.528 444.771Z" fill="black"/>
</g>
<path d="M548.875 435.197C548.88 435.223 548.633 435.293 548.156 435.405C547.595 435.526 546.904 435.674 546.067 435.854C544.251 436.23 541.612 436.729 538.346 437.309C531.815 438.469 522.758 439.893 512.712 441.137C502.664 442.378 493.534 443.202 486.918 443.667C483.61 443.901 480.931 444.059 479.079 444.136C478.223 444.165 477.518 444.19 476.944 444.21C476.456 444.219 476.199 444.21 476.196 444.184C476.194 444.158 476.449 444.116 476.934 444.058C477.504 444 478.206 443.929 479.059 443.843C481.016 443.666 483.659 443.426 486.875 443.134C493.474 442.533 502.583 441.625 512.62 440.386C522.653 439.143 531.71 437.806 538.258 436.782C541.45 436.281 544.072 435.87 546.014 435.565C546.861 435.441 547.56 435.34 548.127 435.257C548.614 435.192 548.871 435.171 548.875 435.197Z" fill="white"/>
<g opacity="0.3">
<path d="M533.828 370.54C531.562 396.826 538.645 422.917 545.658 448.332C546.087 449.886 546.545 451.495 547.589 452.715C548.633 453.935 550.445 454.642 551.868 453.916C554.059 452.796 553.767 449.587 553.147 447.186C546.643 421.996 540.139 396.806 533.634 371.614" fill="black"/>
</g>
<path d="M170.304 396.733L199.814 543.272H404.381H455.942C458.768 543.272 461.058 540.955 461.058 538.097C461.058 535.239 458.768 532.923 455.942 532.923H404.381L377.023 396.64C376.497 394.026 374.239 392.138 371.602 392.107L175.847 389.946C172.282 389.907 169.591 393.201 170.304 396.733Z" fill="#E0E0E0"/>
<path d="M170.304 396.733C170.304 396.733 170.272 396.586 170.223 396.292C170.176 395.998 170.137 395.548 170.198 394.96C170.301 393.826 170.908 391.925 172.907 390.677C173.398 390.371 173.974 390.15 174.6 389.999C175.231 389.855 175.918 389.865 176.615 389.872C178.021 389.884 179.559 389.896 181.224 389.907C184.559 389.935 188.408 389.968 192.749 390.005C210.124 390.172 235.342 390.413 266.766 390.715C282.483 390.876 299.751 391.052 318.364 391.241C327.671 391.336 337.314 391.438 347.269 391.541C352.247 391.593 357.302 391.646 362.43 391.699C364.995 391.727 367.579 391.753 370.18 391.781C370.841 391.798 371.46 391.771 372.163 391.83C372.848 391.903 373.521 392.099 374.142 392.408C375.384 393.023 376.401 394.096 376.953 395.39C377.241 396.037 377.359 396.742 377.488 397.381L377.885 399.352C378.15 400.667 378.416 401.988 378.681 403.312C379.214 405.961 379.751 408.629 380.291 411.311C381.371 416.679 382.465 422.114 383.57 427.612C385.781 438.61 388.045 449.866 390.354 461.352C394.971 484.326 399.774 508.225 404.721 532.847L404.378 532.564C414.062 532.563 423.984 532.563 434.072 532.561C439.116 532.561 444.2 532.561 449.316 532.561H453.159H455.084C455.708 532.567 456.395 532.531 457.078 532.683C458.429 532.963 459.652 533.797 460.435 534.946C461.227 536.09 461.553 537.55 461.341 538.93C461.107 540.626 460.021 542.146 458.545 542.96C457.805 543.36 456.973 543.587 456.136 543.618L453.773 543.628C450.64 543.628 447.516 543.628 444.402 543.628C438.172 543.628 431.979 543.626 425.825 543.626C413.518 543.625 401.37 543.623 389.408 543.622C365.483 543.616 342.299 543.61 320.068 543.606C275.607 543.583 234.959 543.562 199.811 543.543H199.588L199.544 543.324C190.525 498.284 183.188 461.644 178.103 436.253C175.58 423.566 173.617 413.692 172.282 406.978C171.626 403.632 171.124 401.074 170.785 399.341C170.455 397.621 170.304 396.733 170.304 396.733C170.304 396.733 170.508 397.61 170.867 399.327C171.224 401.057 171.751 403.607 172.44 406.947C173.808 413.655 175.82 423.519 178.404 436.194C183.544 461.573 190.961 498.195 200.078 543.217L199.812 542.997C234.961 542.98 275.609 542.958 320.069 542.936C342.3 542.931 365.484 542.925 389.409 542.919C401.372 542.918 413.519 542.916 425.827 542.915C431.98 542.915 438.174 542.913 444.403 542.913C447.519 542.913 450.642 542.913 453.774 542.913L456.112 542.904C456.841 542.878 457.563 542.681 458.208 542.332C459.492 541.624 460.438 540.299 460.64 538.823C460.824 537.62 460.543 536.352 459.852 535.355C459.17 534.355 458.105 533.629 456.93 533.385C456.352 533.252 455.74 533.283 455.082 533.279H453.157H449.315C444.2 533.279 439.114 533.279 434.07 533.279C423.984 533.277 414.061 533.277 404.377 533.276H404.091L404.034 532.992C399.096 508.369 394.304 484.467 389.695 461.491C387.393 450.004 385.138 438.747 382.933 427.747C381.831 422.247 380.742 416.811 379.666 411.443C379.129 408.76 378.594 406.092 378.064 403.443C377.798 402.118 377.534 400.797 377.27 399.481L376.875 397.51C376.74 396.842 376.636 396.216 376.38 395.642C375.889 394.485 374.977 393.522 373.866 392.97C373.312 392.693 372.709 392.516 372.096 392.45C371.498 392.397 370.811 392.418 370.172 392.402C367.57 392.372 364.987 392.343 362.422 392.312C357.293 392.253 352.238 392.195 347.26 392.137C337.307 392.02 327.663 391.907 318.356 391.798C299.744 391.577 282.476 391.373 266.759 391.185C235.335 390.793 210.118 390.478 192.743 390.262C188.403 390.202 184.553 390.15 181.22 390.103C179.554 390.079 178.017 390.057 176.611 390.037C175.906 390.025 175.244 390.01 174.628 390.144C174.018 390.288 173.454 390.497 172.971 390.792C171.007 391.991 170.383 393.85 170.261 394.969C170.147 396.136 170.343 396.732 170.304 396.733Z" fill="#263238"/>
<path d="M288.329 463.796C288.329 468.522 284.542 472.353 279.87 472.353C275.198 472.353 271.411 468.522 271.411 463.796C271.411 459.07 275.198 455.239 279.87 455.239C284.542 455.239 288.329 459.07 288.329 463.796Z" fill="white"/>
<path d="M170.542 397.92C170.542 397.92 170.84 397.898 171.425 397.89C172.034 397.888 172.894 397.882 174.015 397.876C176.318 397.879 179.666 397.883 183.973 397.889C192.645 397.931 205.152 397.992 220.596 398.068C251.539 398.288 294.247 398.593 341.417 398.93C347.316 398.978 353.145 399.025 358.891 399.073C360.327 399.084 361.758 399.096 363.184 399.108C363.88 399.122 364.624 399.077 365.376 399.241C366.114 399.392 366.822 399.684 367.454 400.094C368.721 400.907 369.67 402.204 370.052 403.66C370.373 405.092 370.611 406.449 370.892 407.839C373.057 418.878 375.146 429.525 377.136 439.669C381.099 459.953 384.67 478.222 387.669 493.572C390.638 508.903 393.043 521.317 394.71 529.925C395.522 534.201 396.154 537.529 396.589 539.815C396.793 540.931 396.949 541.786 397.06 542.39C397.162 542.971 397.196 543.273 397.196 543.273C397.196 543.273 397.114 542.981 396.988 542.405C396.862 541.803 396.682 540.951 396.448 539.843C395.983 537.563 395.308 534.244 394.438 529.979C392.72 521.383 390.24 508.983 387.178 493.671C384.135 478.329 380.516 460.071 376.496 439.797C374.493 429.655 372.391 419.01 370.212 407.975C369.935 406.609 369.678 405.181 369.38 403.846C369.042 402.557 368.2 401.409 367.078 400.689C366.518 400.327 365.892 400.07 365.238 399.935C364.597 399.79 363.905 399.831 363.178 399.816C361.752 399.805 360.321 399.794 358.885 399.783C353.139 399.738 347.31 399.691 341.411 399.645C294.241 399.227 251.534 398.848 220.591 398.573C205.147 398.402 192.642 398.262 183.97 398.166C179.664 398.103 176.315 398.053 174.013 398.02C172.892 397.995 172.032 397.976 171.423 397.963C170.84 397.946 170.542 397.92 170.542 397.92Z" fill="#263238"/>
<path d="M512.596 175.365C513.364 202.385 502.023 229.521 482.328 247.791C477.818 234.576 473.31 221.362 468.801 208.147" fill="#263238"/>
<path d="M410.608 96.5075C422.221 90.0883 436.25 89.1647 449.226 91.7934C462.203 94.422 474.297 100.363 485.751 107.067C492.179 110.829 498.586 114.963 503.206 120.842C511.638 131.573 519.973 149.198 520.787 162.882C521.444 173.947 517.255 201.647 512.632 211.697C508.389 220.919 488.533 227.939 478.732 230.217L388.8 124.419C391.978 112.667 400.038 102.352 410.608 96.5075Z" fill="#263238"/>
<path d="M395.104 110.778L416.663 106.878C404.879 135.268 401.683 200.19 394.942 230.218C386.995 218.555 368.541 183.028 369.528 168.898C370.513 154.768 369.488 108.37 395.104 110.778Z" fill="#263238"/>
<path d="M497.317 158.036C496.157 141.449 485.543 127.845 469.615 123.735L419.967 110.923C398.512 108.579 384.183 135.278 382.777 157.061C381.217 181.262 380.255 206.803 383.05 224.869C388.673 261.199 416.178 265.882 416.178 265.882C416.181 265.828 416.184 283.16 416.203 293.766L432.818 363.339L486.363 288.527L497.444 158.477C497.458 157.854 497.375 158.862 497.317 158.036Z" fill="#FFBE9D"/>
<path d="M393.564 184.5C393.472 186.96 395.456 189.066 397.993 189.209C400.524 189.352 402.658 187.481 402.748 185.021C402.839 182.561 400.856 180.452 398.325 180.31C395.788 180.164 393.656 182.041 393.564 184.5Z" fill="#263238"/>
<path d="M388.167 171.289C388.736 171.898 392.23 169.295 397.185 169.319C402.135 169.271 405.765 171.857 406.305 171.246C406.569 170.974 405.989 169.878 404.409 168.707C402.855 167.543 400.197 166.407 397.112 166.414C394.025 166.424 391.426 167.567 389.933 168.741C388.405 169.92 387.887 171.016 388.167 171.289Z" fill="#263238"/>
<path d="M436.754 184.501C436.662 186.96 438.646 189.066 441.183 189.209C443.714 189.352 445.846 187.48 445.938 185.021C446.03 182.562 444.046 180.453 441.513 180.31C438.976 180.164 436.844 182.041 436.754 184.501Z" fill="#263238"/>
<path d="M435.22 171.289C435.792 171.898 439.289 169.295 444.241 169.32C449.19 169.272 452.821 171.859 453.359 171.246C453.624 170.976 453.051 169.878 451.463 168.709C449.906 167.543 447.252 166.408 444.165 166.414C441.08 166.424 438.481 167.569 436.985 168.741C435.464 169.92 434.943 171.016 435.22 171.289Z" fill="#263238"/>
<path d="M419.732 210.651C419.755 210.366 416.676 209.822 411.687 209.164C410.422 209.029 409.226 208.772 409.014 207.899C408.717 206.974 409.249 205.595 409.867 204.108C411.063 201.015 412.315 197.77 413.63 194.372C418.854 180.508 422.642 169.108 422.089 168.902C421.535 168.692 416.849 179.76 411.623 193.624C410.365 197.041 409.162 200.302 408.017 203.418C407.535 204.872 406.708 206.521 407.35 208.441C407.689 209.398 408.615 210.093 409.426 210.317C410.236 210.57 410.948 210.584 411.574 210.623C416.596 210.907 419.713 210.937 419.732 210.651Z" fill="#263238"/>
<path d="M463.797 252.958C463.797 252.958 452.113 277.903 416.188 274.423L416.178 265.881C416.178 265.881 439.837 267.454 463.797 252.958Z" fill="#EB996E"/>
<path d="M436.777 153.179C437.262 154.541 442.211 153.908 448.021 154.63C453.849 155.234 458.531 156.965 459.305 155.745C459.651 155.162 458.835 153.878 456.943 152.553C455.068 151.232 452.071 149.974 448.583 149.572C445.094 149.178 441.898 149.731 439.779 150.597C437.644 151.464 436.567 152.531 436.777 153.179Z" fill="#263238"/>
<path d="M389.784 155.959C390.652 157.099 394.068 155.926 398.173 155.879C402.276 155.687 405.751 156.66 406.555 155.472C406.906 154.894 406.361 153.754 404.845 152.672C403.35 151.595 400.849 150.712 398.029 150.792C395.209 150.877 392.763 151.903 391.333 153.066C389.879 154.232 389.401 155.403 389.784 155.959Z" fill="#263238"/>
<path d="M392.53 123.892C394.726 118.427 400.655 115.146 406.479 114.847C412.302 114.549 417.99 116.779 423.04 119.731C444.421 132.233 455.411 162.429 476.538 175.364C481.734 178.546 488.496 175.632 492.917 179.846C497.336 184.061 500.203 190.794 497.758 196.419C500.596 192.48 503.474 188.47 505.087 183.878C506.701 179.284 506.904 173.944 504.494 169.722C502.665 166.519 499.438 164.073 498.55 160.484C497.771 157.327 499.003 154.024 498.868 150.773C498.73 147.463 497.191 144.393 495.578 141.508C487.303 126.704 475.919 113.312 461.259 104.986C451.681 99.5456 440.728 96.3651 429.749 96.7427C418.77 97.1203 407.805 101.203 399.771 108.779C395.047 113.234 390.08 117.845 392.53 123.892Z" fill="#263238"/>
<path d="M492.398 184.347C492.776 183.304 511.505 176.468 511.753 196.603C511.995 216.164 492.481 212.314 492.441 211.753C492.404 211.193 492.398 184.347 492.398 184.347Z" fill="#FFBE9D"/>
<path d="M498.339 204.287C498.424 204.225 498.68 204.523 499.251 204.781C499.808 205.034 500.764 205.201 501.769 204.81C503.805 204.032 505.495 200.735 505.557 197.209C505.59 195.428 505.205 193.736 504.568 192.339C503.963 190.913 503.04 189.923 502.011 189.747C500.984 189.517 500.262 190.146 500.031 190.7C499.777 191.249 499.903 191.638 499.801 191.673C499.748 191.722 499.383 191.349 499.531 190.54C499.607 190.149 499.83 189.686 500.281 189.307C500.741 188.921 501.422 188.719 502.138 188.791C503.632 188.881 504.987 190.255 505.686 191.79C506.467 193.331 506.941 195.232 506.904 197.232C506.816 201.175 504.855 204.883 502.068 205.727C500.711 206.098 499.573 205.695 498.981 205.239C498.38 204.759 498.273 204.322 498.339 204.287Z" fill="#EB996E"/>
<path d="M500.092 174.294C500.078 174.32 499.676 174.094 498.925 173.635C498.186 173.158 497.044 172.525 495.682 171.549C492.978 169.573 489.229 166.442 485.241 161.937C481.227 157.456 477.027 151.644 472.473 145.16C467.91 138.69 462.901 131.527 456.514 125.058C453.26 121.899 449.842 119.062 446.216 116.827C442.6 114.574 438.81 112.914 435.091 111.72C427.644 109.296 420.494 108.766 414.606 109.176C408.692 109.551 404.013 110.82 400.883 111.897C399.294 112.385 398.119 112.926 397.301 113.241C396.487 113.565 396.051 113.722 396.038 113.693C396.025 113.665 396.435 113.453 397.229 113.075C398.028 112.706 399.186 112.111 400.77 111.569C403.885 110.384 408.586 109.007 414.561 108.547C420.511 108.052 427.764 108.519 435.338 110.937C439.12 112.128 442.979 113.799 446.664 116.08C450.363 118.346 453.839 121.224 457.134 124.424C463.599 130.972 468.61 138.191 473.136 144.685C477.655 151.198 481.781 157.016 485.708 161.518C489.608 166.045 493.26 169.218 495.884 171.27C497.206 172.283 498.312 172.96 499.018 173.482C499.738 173.988 500.108 174.268 500.092 174.294Z" fill="#455A64"/>
<path d="M500.537 207.744C502.421 207.389 504.461 208.714 504.928 210.593C505.395 212.472 504.214 214.616 502.39 215.203C500.565 215.791 498.375 214.733 497.682 212.927C496.988 211.12 497.896 208.846 499.634 208.033" fill="white"/>
<path d="M499.636 208.034C499.748 208.15 498.375 208.712 497.897 210.661C497.673 211.592 497.795 212.828 498.652 213.731C499.465 214.635 500.932 215.195 502.256 214.777C503.575 214.344 504.453 213.027 504.599 211.814C504.783 210.576 504.176 209.495 503.461 208.868C501.956 207.556 500.515 207.902 500.539 207.742C500.527 207.694 500.836 207.54 501.445 207.527C502.045 207.513 502.965 207.697 503.857 208.381C504.736 209.024 505.587 210.345 505.407 211.909C505.267 213.412 504.252 215.047 502.525 215.63C500.782 216.164 499.02 215.425 498.045 214.282C497.006 213.11 496.945 211.536 497.293 210.497C497.63 209.418 498.275 208.73 498.773 208.39C499.278 208.043 499.617 207.989 499.636 208.034Z" fill="#263238"/>
<path d="M495.23 179.829C495.533 185.171 495.777 190.813 493.336 195.56C490.895 200.308 484.742 203.538 480.149 200.883C476.403 198.718 475.282 193.864 474.647 189.546C472.814 177.087 471.974 164.493 470.033 152.049L495.23 179.829Z" fill="#263238"/>
<path d="M397.291 114.587C397.313 114.7 399 114.26 402.099 114.162C405.18 114.077 409.733 114.49 414.898 116.527C417.469 117.541 420.207 118.887 422.915 120.704C425.627 122.517 428.392 124.688 431.186 127.093C436.734 131.942 442.479 137.775 447.379 144.752C449.836 148.241 452.011 151.829 454.369 155.15C456.703 158.483 459.303 161.494 462.122 163.968C467.744 168.909 473.534 172.371 478.463 175.028C483.411 177.674 487.547 179.527 490.4 180.808C491.748 181.389 492.843 181.861 493.708 182.233C494.469 182.546 494.876 182.693 494.892 182.66C494.908 182.625 494.53 182.41 493.798 182.032C492.957 181.611 491.89 181.076 490.578 180.42C487.782 179.021 483.702 177.064 478.829 174.345C473.974 171.618 468.282 168.116 462.783 163.209C460.045 160.768 457.53 157.825 455.234 154.524C452.919 151.238 450.748 147.645 448.265 144.115C443.293 137.037 437.471 131.175 431.835 126.322C428.992 123.912 426.19 121.753 423.404 119.94C420.62 118.121 417.806 116.787 415.166 115.801C409.862 113.817 405.201 113.518 402.081 113.736C400.511 113.841 399.305 114.053 398.503 114.24C397.699 114.432 397.283 114.551 397.291 114.587Z" fill="#455A64"/>
<path d="M495.764 167.746C495.732 167.804 496.336 168.213 497.474 168.913C498.799 169.701 500.43 170.669 502.371 171.821C502.901 172.129 503.45 172.447 504.02 172.778C504.635 173.119 505.314 173.42 506.137 173.487C506.542 173.51 507.023 173.474 507.446 173.174C507.867 172.887 508.137 172.399 508.17 171.883C508.21 170.857 507.664 170.1 507.255 169.41C505.512 166.587 503.6 163.49 501.57 160.204L500.804 160.924C502.616 162.284 504.728 163.367 507.02 164.058C509.318 164.754 511.682 165.018 513.94 164.883C514.494 164.864 515.117 164.789 515.694 164.58C516.26 164.378 516.916 163.987 517.195 163.257C517.482 162.542 517.212 161.751 516.87 161.28C516.533 160.776 516.117 160.407 515.768 160.056C512.893 157.244 510.74 154.28 509.182 151.653C506.078 146.362 505.196 142.57 504.994 142.644C504.932 142.662 505.096 143.611 505.603 145.277C506.127 146.933 507.007 149.312 508.517 152.042C510.019 154.769 512.155 157.853 515.067 160.779C515.788 161.47 516.504 162.265 516.226 162.881C515.997 163.496 514.896 163.8 513.881 163.807C511.745 163.922 509.508 163.663 507.33 163.004C505.16 162.349 503.158 161.329 501.436 160.056L499.128 158.348L500.671 160.778C502.741 164.038 504.692 167.11 506.471 169.911C506.918 170.588 507.32 171.257 507.294 171.821C507.27 172.376 506.8 172.702 506.18 172.655C504.926 172.589 503.792 171.728 502.704 171.207C500.701 170.165 499.02 169.29 497.653 168.579C496.461 167.985 495.795 167.688 495.764 167.746Z" fill="#455A64"/>
<path d="M438.577 219.894C437.92 216.911 434.903 214.623 431.897 214.928C429.69 215.153 427.699 216.664 426.699 218.668C425.7 220.671 425.657 223.096 426.405 225.208L426.508 225.678C428.537 227.944 432.049 228.74 434.794 227.462C437.539 226.184 439.235 222.877 438.577 219.894Z" fill="#EB996E"/>
<path d="M422.918 225.783C422.912 225.022 427.921 225.264 431.691 221.105C435.473 216.954 435.176 211.524 435.878 211.52C436.197 211.464 436.792 212.771 436.741 215.056C436.706 217.295 435.835 220.527 433.531 223.071C431.219 225.607 428.253 226.599 426.19 226.668C424.083 226.756 422.87 226.128 422.918 225.783Z" fill="#263238"/>
<path d="M591.698 533.592C591.699 533.605 591.584 533.626 591.36 533.653C591.092 533.681 590.765 533.714 590.364 533.756C589.425 533.835 588.144 533.942 586.528 534.077C583.195 534.346 578.37 534.676 572.403 535.03C560.471 535.745 543.968 536.475 525.73 536.786C507.486 537.09 490.968 536.917 479.019 536.606C473.043 536.452 468.209 536.286 464.871 536.13C463.252 536.048 461.968 535.984 461.028 535.938C460.626 535.91 460.298 535.887 460.028 535.868C459.803 535.848 459.688 535.832 459.69 535.819C459.69 535.806 459.806 535.797 460.031 535.791C460.301 535.79 460.63 535.787 461.033 535.785C461.975 535.797 463.26 535.814 464.881 535.836C468.29 535.893 473.106 535.973 479.03 536.071C490.978 536.246 507.486 536.333 525.72 536.029C543.947 535.717 560.442 535.072 572.377 534.496C578.295 534.197 583.106 533.954 586.512 533.783C588.131 533.707 589.415 533.646 590.357 533.603C590.759 533.591 591.088 533.582 591.357 533.575C591.581 533.575 591.698 533.579 591.698 533.592Z" fill="white"/>
<path d="M630 543.272C630 543.481 488.958 543.649 315.015 543.649C141.012 543.649 0 543.479 0 543.272C0 543.063 141.012 542.894 315.015 542.894C488.96 542.893 630 543.063 630 543.272Z" fill="#263238"/>
</svg>
