<svg width="630" height="586" viewBox="0 0 630 586" fill="none" xmlns="http://www.w3.org/2000/svg">
<path d="M365.127 583.128L584.602 580.83C584.602 580.83 706.833 345.557 550.167 311.813C410.278 281.683 351.316 192.448 331.271 100.189C301.503 -36.8317 39.2691 -54.3495 8.65129 183.255C-21.9665 420.86 38.523 583.128 38.523 583.128H365.127Z" fill="#DBEAFE"/>
<path d="M261.252 348.09L339.949 341.917L275.949 265.534C275.949 265.534 273.634 264.762 272.09 253.961C271.436 249.378 265.146 205.353 265.146 205.353L262.833 200.726C262.833 200.726 271.32 193.781 279.807 202.268C288.294 210.755 306.04 243.931 306.04 243.931C306.04 243.931 412.516 321.624 428.722 364.275C443.382 402.851 259.747 416.756 259.747 416.756L265.147 348.088" fill="#FFAC9D"/>
<path d="M265.149 348.09L328.62 343.111C336.612 362.738 336.31 386.873 331.332 408.348C293.362 414.179 259.748 416.758 259.748 416.758L265.149 348.09Z" fill="#F19C7C"/>
<path d="M279.807 202.268C280.506 202.967 281.272 203.846 282.081 204.848C284.338 221.958 282.71 239.693 279.935 256.611C279.352 260.166 278.755 263.983 277.999 267.841L275.949 265.535C275.949 265.535 273.634 264.764 272.091 253.962C271.436 249.379 265.146 205.354 265.146 205.354L262.833 200.726C262.833 200.726 271.32 193.781 279.807 202.268Z" fill="#F19C7C"/>
<path d="M262.062 428.074C266.178 428.074 245.604 342.69 245.604 342.69C245.604 342.69 269.779 330.603 319.157 329.575C319.157 329.575 325.071 375.353 313.756 420.617L262.062 428.074Z" fill="#2563EB"/>
<path opacity="0.5" d="M254.217 380.086C259.56 382.431 264.86 384.896 270.234 387.206C281.326 391.975 292.707 395.587 304.48 398.296C308.856 399.303 313.253 400.183 317.656 401.012C316.669 407.464 315.398 414.043 313.755 420.616L262.061 428.074C264.289 428.074 259.28 403.044 254.217 380.086Z" fill="#1D4ED8"/>
<path d="M256.609 458.693C259.29 419.136 258.062 379.435 257.7 339.786C233.339 346.68 202.86 369.474 208.824 321.087C215.769 264.765 160.989 277.11 160.989 277.11C160.989 277.11 160.217 347.32 153.274 347.32C146.331 347.32 92.3222 340.376 87.692 394.384C83.4764 443.58 217.528 499.802 256.609 458.693Z" fill="#FFAC9D"/>
<path d="M211.403 346.815C199.828 344.563 188.889 340.324 179.948 332.341C169.539 323.046 165.049 310.702 160.422 298.254C160.887 286.416 160.99 277.107 160.99 277.107C160.99 277.107 215.769 264.762 208.826 321.085C207.164 334.556 208.333 342.499 211.403 346.815Z" fill="#F19C7C"/>
<path d="M245.602 342.689C245.602 342.689 252.803 398.24 207.538 406.47C162.274 414.7 128.327 347.833 128.327 347.833C128.327 347.833 77.9204 356.063 79.9765 408.527C82.0341 460.992 95.4081 569.009 95.4081 569.009L248.688 557.692L253.832 493.911C253.832 493.911 294.981 482.595 280.578 411.614C266.176 340.631 273.377 334.459 273.377 334.459L245.602 342.689Z" fill="#2563EB"/>
<path opacity="0.5" d="M97.3811 413.963C105.148 425.123 114.348 435.594 123.577 445.555C142.122 465.569 162.666 483.837 185.442 498.927C206.069 512.594 227.233 523.324 250.995 529.086L248.688 557.694L95.4082 569.01C95.4082 569.01 82.0342 460.993 79.9766 408.529C79.7026 401.548 80.3798 395.374 81.7199 389.875C87.6042 397.376 91.9273 406.123 97.3811 413.963Z" fill="#1D4ED8"/>
<path d="M509.876 581.797H323.364L395.286 423.065H581.796L509.876 581.797Z" fill="#352C38"/>
<path d="M349.198 567.934H219.396V581.796H349.198V567.934Z" fill="#352C38"/>
<path d="M522.478 581.797H335.966L407.887 423.065H594.399L522.478 581.797Z" fill="#765E69"/>
<path d="M64.0848 438.293C64.0848 438.293 47.7235 543.477 59.4102 566.851C73.7599 595.55 249.521 583.212 249.521 583.212C249.521 583.212 330.551 587.887 251.079 575.421C251.079 575.421 343.796 587.887 256.533 569.967C256.533 569.967 340.68 577.758 261.986 563.734C261.986 563.734 329.772 567.63 243.286 554.385C243.286 554.385 296.267 542.698 227.704 548.152C227.704 548.152 163.814 537.245 122.52 528.673C122.52 528.673 134.206 456.992 132.648 445.305C131.091 433.618 64.0848 438.293 64.0848 438.293Z" fill="#FFAC9D"/>
<path d="M123.835 471.403C113.576 474.138 103.836 476.378 93.1354 475.369C81.6826 474.289 70.7736 471.373 60.1387 467.558C62.1819 450.519 64.083 438.292 64.083 438.292C64.083 438.292 131.089 433.617 132.648 445.304C133.133 448.935 132.336 458.362 131.011 469.628C128.607 470.158 126.213 470.77 123.835 471.403Z" fill="#F19C7C"/>
<path d="M138.882 461.668L128.328 347.833C128.328 347.833 85.8998 347.134 68.7593 389.987C51.6174 432.839 53.1771 457.772 53.1771 457.772C53.1771 457.772 92.9133 474.913 138.882 461.668Z" fill="#2563EB"/>
<path d="M173.239 168.577C173.239 168.577 216.086 143.277 198.132 109.815C180.177 76.3534 131.618 119.2 152.021 145.725C172.424 172.249 178.138 103.694 139.779 109.815C101.42 115.936 127.536 191.428 173.239 168.577Z" fill="#965450"/>
<path d="M160.59 169.801C160.59 169.801 163.905 169.084 169.939 167.111C172.952 166.116 176.64 164.798 180.869 162.994C185.094 161.186 189.874 158.896 194.908 155.793C199.91 152.678 205.253 148.742 209.808 143.285C212.051 140.548 214.094 137.428 215.495 133.88C216.905 130.346 217.706 126.41 217.607 122.338C217.521 118.265 216.624 114.108 215.07 110.046C213.551 106.011 211.355 102.035 208.222 98.7497C205.115 95.4482 201.047 92.9186 196.467 91.6401C191.892 90.3388 186.893 90.257 181.993 91.1509C177.09 92.0663 172.245 93.9273 167.837 96.6663C163.465 99.4083 159.403 103.069 156.905 107.742C155.68 110.068 154.929 112.675 155.017 115.296C155.041 115.949 155.114 116.6 155.235 117.245C155.355 117.883 155.535 118.599 155.708 119.218C156.077 120.518 156.571 121.789 157.19 122.991C158.416 125.4 160.224 127.522 162.496 128.997C164.759 130.471 167.484 131.286 170.207 131.211C172.895 131.15 175.708 130.171 177.307 128.125C178.094 127.115 178.492 125.862 178.452 124.572C178.417 123.278 177.965 121.968 177.307 120.751C174.398 115.834 169.833 111.722 164.804 108.548C159.737 105.366 154.008 103.104 148.01 102.035C142.014 100.969 135.738 101.143 129.728 102.681C123.713 104.214 117.992 107.009 112.84 110.687C111.55 111.636 110.282 112.528 109.122 113.612C108.015 114.609 107 115.823 106.141 117.074C104.397 119.601 103.433 122.601 103.186 125.679C102.769 131.906 105.175 138.157 108.551 143.604C111.963 149.094 116.45 153.956 121.473 158.162C126.522 162.338 132.161 165.885 138.244 168.401C144.299 170.912 150.883 172.41 157.38 171.903C160.615 171.653 163.805 170.871 166.723 169.497C168.197 168.814 169.556 168.007 170.916 167.04C172.299 166.085 173.592 165.105 174.892 164.044C180.056 159.848 184.649 154.929 188.663 149.594C192.68 144.258 196.127 138.482 198.809 132.385C201.469 126.296 203.402 119.836 203.845 113.285C204.304 106.792 203.069 100.024 199.075 95.0063C195.17 89.9212 188.866 87.1678 182.584 86.0127C176.199 84.7946 169.623 85.7014 163.785 88.3501C157.922 90.9701 152.866 95.1713 148.645 99.9693C144.436 104.806 141.014 110.289 138.417 116.077C135.819 121.86 133.999 127.976 133.318 134.151C132.985 137.233 132.942 140.34 133.371 143.346C133.787 146.344 134.674 149.276 136.268 151.731C137.823 154.191 140.178 156.097 142.825 157.081C145.548 158.143 148.472 158.127 151.161 157.147C153.85 156.182 156.238 154.411 158.287 152.348C160.33 150.261 162.053 147.868 163.525 145.349C166.434 140.279 168.392 134.724 169.424 129.102C170.46 123.485 170.575 117.744 169.461 112.333C168.343 106.947 165.854 101.881 161.93 98.2992C158.063 94.6475 152.972 92.6703 147.886 91.864C145.304 91.4651 142.792 91.3015 140.193 91.4005C137.71 91.5053 135.199 91.9773 132.87 92.7694C128.178 94.3462 124.171 97.3881 121.251 101.13C118.314 104.875 116.348 109.212 115.14 113.606C112.708 122.433 113.035 131.421 114.912 139.357C116.829 147.31 120.403 154.338 125.092 159.654C127.429 162.315 130.018 164.562 132.728 166.355C135.446 168.139 138.278 169.462 141.067 170.404C143.857 171.358 146.619 171.873 149.227 172.158C150.531 172.336 151.807 172.346 153.037 172.418C154.268 172.389 155.46 172.44 156.605 172.336C161.192 172.067 165.036 171.244 168.102 170.451C171.164 169.623 173.466 168.824 174.997 168.241C176.529 167.657 177.32 167.355 177.32 167.355C177.32 167.355 176.532 167.665 175.007 168.267C173.481 168.867 171.187 169.693 168.131 170.557C165.069 171.386 161.225 172.256 156.619 172.579C155.472 172.695 154.271 172.659 153.032 172.701C151.794 172.643 150.51 172.648 149.194 172.483C146.561 172.224 143.768 171.737 140.935 170.802C138.103 169.883 135.217 168.576 132.441 166.795C129.67 165.009 127.016 162.756 124.61 160.079C119.784 154.731 116.073 147.633 114.032 139.569C112.035 131.52 111.586 122.386 113.978 113.286C115.174 108.758 117.185 104.259 120.224 100.324C123.245 96.3952 127.462 93.1424 132.414 91.445C134.887 90.5913 137.467 90.0805 140.162 89.9513C142.74 89.8337 145.477 89.9829 148.115 90.3832C153.411 91.1867 158.836 93.2357 163.009 97.1241C167.239 100.939 169.916 106.337 171.118 111.977C172.321 117.649 172.23 123.601 171.194 129.419C170.16 135.243 168.18 140.99 165.177 146.3C163.654 148.941 161.862 151.472 159.687 153.721C157.505 155.943 154.915 157.919 151.84 159.048C148.801 160.205 145.188 160.235 142.146 159.035C138.994 157.88 136.301 155.666 134.509 152.861C132.694 150.069 131.734 146.852 131.279 143.638C130.813 140.411 130.857 137.144 131.197 133.922C131.899 127.469 133.768 121.16 136.436 115.187C139.104 109.211 142.618 103.548 146.979 98.5158C151.355 93.5241 156.629 89.1019 162.858 86.2997C169.034 83.4616 176.209 82.4745 182.947 83.7529C186.352 84.3914 189.661 85.3685 192.771 86.9784C195.875 88.5524 198.722 90.7749 200.902 93.5657C203.095 96.3435 204.613 99.6336 205.416 103.046C206.226 106.46 206.444 109.98 206.208 113.437C205.751 120.368 203.748 127.06 201.017 133.351C198.26 139.642 194.747 145.588 190.61 151.064C186.474 156.535 181.748 161.579 176.4 165.908C175.078 166.984 173.671 168.043 172.27 169.006C170.874 169.996 169.316 170.923 167.722 171.653C164.522 173.151 161.042 173.992 157.559 174.253C150.559 174.78 143.649 173.161 137.351 170.54C131.026 167.908 125.218 164.234 120.013 159.909C114.834 155.555 110.207 150.528 106.649 144.78C104.869 141.914 103.37 138.852 102.337 135.616C101.282 132.394 100.762 128.951 100.995 125.516C101.271 122.093 102.377 118.688 104.336 115.863C105.316 114.448 106.393 113.155 107.693 111.987C108.903 110.863 110.28 109.89 111.589 108.934C116.931 105.136 122.904 102.223 129.207 100.632C135.507 99.0324 142.098 98.8631 148.369 99.9923C154.651 101.114 160.598 103.536 165.858 106.875C171.09 110.244 175.784 114.452 178.947 119.86C179.694 121.264 180.252 122.843 180.29 124.528C180.34 126.204 179.779 127.931 178.736 129.24C176.607 131.884 173.295 132.904 170.243 132.975C167.141 133.039 164.088 132.098 161.557 130.429C159.017 128.761 157.028 126.379 155.711 123.747C155.043 122.433 154.522 121.061 154.134 119.661C153.935 118.926 153.778 118.283 153.641 117.549C153.507 116.819 153.43 116.082 153.408 115.345C153.329 112.383 154.192 109.514 155.526 107.019C158.252 102.008 162.521 98.2533 167.066 95.431C171.652 92.6201 176.663 90.7305 181.748 89.8136C186.828 88.9183 192.031 89.0288 196.815 90.4205C201.604 91.7822 205.867 94.4811 209.059 97.9634C212.291 101.43 214.498 105.544 216.016 109.709C217.548 113.848 218.433 118.146 218.473 122.33C218.529 126.518 217.66 130.56 216.176 134.161C214.701 137.78 212.585 140.934 210.279 143.684C205.597 149.168 200.174 153.065 195.116 156.141C190.025 159.203 185.208 161.446 180.957 163.212C176.7 164.974 172.994 166.254 169.969 167.215C163.913 169.121 160.59 169.801 160.59 169.801Z" fill="#965450"/>
<path d="M228.114 101.022C228.114 101.022 228.642 102.387 229.232 104.879C229.528 106.125 229.826 107.65 230.097 109.416C230.334 111.184 230.592 113.191 230.614 115.397C230.661 117.599 230.612 119.997 230.288 122.513C230.176 123.777 229.898 125.054 229.677 126.37C229.355 127.664 229.063 129.002 228.588 130.309C227.753 132.959 226.542 135.592 225.029 138.093C223.577 140.641 221.632 142.919 219.606 145.087C217.445 147.124 215.161 149.046 212.668 150.56C212.053 150.949 211.439 151.335 210.829 151.721C210.19 152.056 209.556 152.389 208.925 152.722C208.291 153.046 207.674 153.398 207.038 153.695C206.392 153.972 205.752 154.247 205.117 154.52C204.481 154.793 203.853 155.062 203.229 155.329C202.593 155.563 201.953 155.77 201.323 155.978C200.056 156.374 198.845 156.855 197.611 157.126C196.389 157.438 195.201 157.741 194.051 158.035C192.896 158.296 191.764 158.479 190.687 158.691C188.537 159.156 186.531 159.347 184.762 159.552C183.877 159.65 183.052 159.761 182.284 159.827C181.515 159.875 180.809 159.918 180.171 159.958C177.621 160.096 176.165 160.175 176.165 160.175C176.165 160.175 177.611 159.987 180.141 159.66C180.772 159.582 181.472 159.497 182.234 159.406C182.993 159.295 183.808 159.133 184.682 158.984C186.427 158.671 188.4 158.361 190.513 157.84C191.572 157.591 192.684 157.371 193.816 157.071C194.938 156.741 196.099 156.398 197.293 156.047C198.498 155.735 199.67 155.219 200.897 154.785C201.508 154.562 202.125 154.335 202.749 154.105C203.356 153.837 203.967 153.564 204.584 153.29C205.201 153.016 205.824 152.741 206.451 152.464C207.068 152.167 207.664 151.817 208.276 151.494C208.886 151.164 209.5 150.833 210.116 150.5C210.703 150.119 211.292 149.736 211.885 149.352C214.285 147.858 216.456 145.97 218.517 143.997C220.484 141.938 222.382 139.776 223.805 137.342C225.288 134.956 226.486 132.435 227.324 129.883C228.202 127.346 228.814 124.805 229.18 122.358C229.586 119.916 229.718 117.567 229.75 115.401C229.789 113.231 229.658 111.243 229.53 109.479C229.367 107.719 229.16 106.188 228.941 104.935C228.512 102.43 228.114 101.022 228.114 101.022Z" fill="#965450"/>
<path d="M90.7781 187.436C91.6189 186.367 92.5429 185.357 93.5358 184.423C94.0165 183.937 94.5287 183.486 95.0553 183.053C95.5848 182.623 96.0783 182.143 96.6379 181.752C97.7356 180.939 98.816 180.096 99.9926 179.394L101.727 178.292L103.538 177.322C104.145 177.005 104.739 176.658 105.363 176.375L107.256 175.57L109.151 174.768L111.107 174.127C112.412 173.704 113.707 173.233 115.057 172.973C116.397 172.682 117.726 172.312 119.08 172.087L123.164 171.527C124.522 171.282 125.904 171.358 127.274 171.272C128.646 171.251 130.022 171.097 131.392 171.23L135.506 171.457C136.883 171.478 138.232 171.749 139.592 171.929L143.666 172.518C145.012 172.777 146.339 173.125 147.676 173.424L151.682 174.358L159.008 176.065L151.46 175.85C148.475 175.765 145.564 175.427 142.641 175.016C139.726 174.598 136.829 174.059 133.961 173.389C132.527 173.051 131.098 172.695 129.682 172.286C128.262 171.896 126.855 171.448 125.459 170.977C124.059 170.514 122.683 169.985 121.308 169.449C119.947 168.88 118.594 168.291 117.274 167.629C115.938 167.002 114.651 166.271 113.369 165.542L111.474 164.396L109.639 163.153C109.016 162.756 108.452 162.275 107.858 161.836C107.264 161.397 106.686 160.938 106.138 160.441C104.996 159.503 103.954 158.454 102.908 157.413C101.934 156.302 100.934 155.214 100.09 154.002C99.1747 152.846 98.4429 151.558 97.671 150.309C96.9966 149 96.2921 147.71 95.7785 146.331C95.1744 144.991 94.8329 143.556 94.3809 142.169C94.9104 143.535 95.3265 144.938 96.0009 146.237C96.5647 147.583 97.3166 148.834 98.034 150.096C98.8476 151.3 99.6181 152.536 100.566 153.636C101.442 154.794 102.473 155.818 103.465 156.872C104.517 157.867 105.561 158.869 106.705 159.76C107.253 160.232 107.831 160.668 108.425 161.084C109.018 161.499 109.58 161.957 110.201 162.331L112.029 163.503L113.916 164.581C115.192 165.264 116.47 165.948 117.797 166.531C119.104 167.155 120.458 167.676 121.795 168.234C123.151 168.748 124.507 169.257 125.887 169.702C127.264 170.154 128.65 170.583 130.054 170.954C131.451 171.345 132.863 171.683 134.278 172.006C137.11 172.642 139.973 173.15 142.849 173.539C145.721 173.927 148.633 174.201 151.494 174.329L151.272 175.821L147.338 174.872C146.023 174.566 144.719 174.21 143.398 173.946L139.399 173.335C138.064 173.147 136.737 172.867 135.388 172.837L131.354 172.582C130.009 172.437 128.663 172.582 127.317 172.589L125.299 172.645C124.624 172.64 123.951 172.676 123.286 172.774L119.269 173.222C117.937 173.409 116.628 173.741 115.304 173.992C113.969 174.213 112.691 174.645 111.399 175.028L109.461 175.609L107.58 176.352L105.697 177.098C105.078 177.364 104.482 177.685 103.871 177.969L102.046 178.852L100.292 179.868C99.1015 180.513 98.001 181.302 96.8804 182.064C96.3093 182.43 95.8028 182.884 95.2605 183.29C94.7181 183.697 94.1958 184.129 93.6937 184.585C92.6491 185.462 91.6777 186.415 90.7781 187.436Z" fill="#965450"/>
<path d="M194.17 159.007C194.17 159.007 187.636 148.428 169.279 153.407C150.922 158.385 141.275 173.942 144.076 182.343C146.876 190.744 194.17 159.007 194.17 159.007Z" fill="#FFA65B"/>
<path d="M124.213 212.125C124.213 212.125 107.752 268.191 167.42 299.053L155.589 214.183L124.213 212.125Z" fill="#965450"/>
<path d="M223.321 174.834C223.321 174.834 289.534 178.839 272.862 276.678C258.138 363.091 162.531 349.203 157.177 275.906C151.708 201.026 178.224 173.292 223.321 174.834Z" fill="#FFAC9D"/>
<path d="M266.691 203.895C266.691 203.895 243.177 145.951 183.365 159.146C113.411 174.577 119.584 241.958 125.241 249.673C130.899 257.389 161.76 242.472 161.76 242.472C161.76 242.472 168.962 264.59 158.674 277.449C158.674 277.449 185.421 265.104 167.418 232.699C167.418 232.699 184.392 250.187 176.677 266.647C176.677 266.647 194.165 245.045 169.991 225.498C169.991 225.498 183.878 222.412 184.392 199.265C184.392 199.265 232.229 183.835 266.691 203.895Z" fill="#965450"/>
<path d="M262.986 201.527C262.986 201.527 264.285 200.545 266.624 199.056C268.975 197.569 272.399 195.542 276.723 193.536C278.896 192.559 281.267 191.53 283.852 190.636C286.419 189.701 289.198 188.904 292.105 188.229C295.017 187.57 298.079 187.11 301.213 186.881C304.347 186.731 307.558 186.703 310.725 187.184C312.319 187.333 313.868 187.76 315.425 188.079C316.201 188.252 316.949 188.534 317.708 188.757C318.457 189.012 319.232 189.183 319.946 189.517C321.39 190.138 322.863 190.656 324.193 191.437C324.872 191.799 325.545 192.157 326.215 192.513C326.862 192.905 327.479 193.338 328.105 193.743C328.722 194.162 329.354 194.545 329.94 194.981C330.509 195.44 331.073 195.894 331.631 196.343C332.182 196.799 332.755 197.219 333.27 197.691C333.772 198.178 334.267 198.658 334.756 199.132C335.244 199.605 335.726 200.073 336.2 200.532C336.656 201.009 337.064 201.518 337.487 201.996C338.303 202.979 339.173 203.863 339.86 204.828C341.249 206.747 342.576 208.465 343.51 210.147C344.502 211.791 345.406 213.199 345.99 214.449C347.244 216.897 347.96 218.296 347.96 218.296C347.96 218.296 347.188 216.928 345.836 214.535C345.205 213.314 344.245 211.946 343.193 210.352C342.195 208.721 340.806 207.069 339.389 205.201C338.685 204.264 337.8 203.415 336.968 202.466C336.537 202.006 336.121 201.515 335.659 201.057C335.18 200.617 334.693 200.171 334.2 199.717C333.706 199.265 333.207 198.806 332.702 198.341C332.184 197.892 331.611 197.496 331.059 197.063C330.501 196.638 329.937 196.209 329.369 195.774C328.785 195.363 328.155 195.007 327.542 194.615C326.921 194.236 326.31 193.83 325.67 193.466C325.008 193.137 324.344 192.807 323.674 192.474C322.364 191.75 320.915 191.289 319.504 190.725C318.805 190.42 318.048 190.276 317.318 190.049C316.577 189.856 315.851 189.6 315.095 189.455C313.58 189.189 312.078 188.818 310.534 188.714C307.473 188.289 304.367 188.361 301.335 188.546C298.302 188.81 295.337 189.296 292.514 189.975C289.694 190.671 287 191.483 284.506 192.431C281.996 193.335 279.693 194.374 277.583 195.357C275.492 196.384 273.584 197.346 271.94 198.284C270.284 199.202 268.878 200.066 267.73 200.791C265.431 202.258 264.223 203.175 264.223 203.175L262.986 201.527Z" fill="#965450"/>
<path d="M262.058 201.337C262.058 201.337 262.231 200.855 262.556 199.95C262.889 199.06 263.389 197.767 264.08 196.146C265.467 192.91 267.581 188.336 270.764 183.191C272.364 180.625 274.248 177.926 276.502 175.269C278.745 172.608 281.415 170.01 284.58 167.82C287.748 165.667 291.505 163.947 295.574 163.483C299.521 163.02 303.665 163.182 307.624 164.006C311.587 164.847 315.455 166.477 318.543 169.109C320.062 170.437 321.394 172.029 322.157 173.933C322.522 174.886 322.728 175.926 322.628 176.972C322.536 178.014 322.088 179.04 321.377 179.79C320.662 180.546 319.78 181.041 318.84 181.337C317.911 181.651 316.68 181.559 315.871 180.927C315.035 180.315 314.573 179.414 314.296 178.541C314.022 177.655 313.91 176.751 313.936 175.87C313.996 172.326 315.66 169.201 317.812 167.102C318.894 166.045 320.101 165.21 321.344 164.626C321.943 164.287 322.592 164.103 323.187 163.851C323.811 163.677 324.41 163.476 325.005 163.357C327.388 162.854 329.526 162.825 331.255 162.964C332.989 163.082 334.339 163.301 335.247 163.495C336.158 163.677 336.643 163.775 336.643 163.775C336.643 163.775 336.155 163.689 335.24 163.529C334.329 163.359 332.974 163.172 331.247 163.097C329.523 163 327.401 163.083 325.068 163.636C322.755 164.188 320.191 165.342 318.151 167.444C316.128 169.51 314.621 172.556 314.651 175.87C314.646 176.691 314.775 177.52 315.036 178.297C315.296 179.067 315.723 179.805 316.357 180.237C317.612 181.156 319.536 180.315 320.65 179.132C321.798 177.888 321.818 175.977 321.118 174.352C320.414 172.708 319.168 171.267 317.729 170.074C314.802 167.698 311.106 166.23 307.317 165.525C303.496 164.845 299.609 164.791 295.825 165.334C292.125 165.855 288.728 167.517 285.829 169.6C282.935 171.722 280.471 174.24 278.398 176.84C276.314 179.436 274.57 182.08 273.092 184.598C270.149 189.652 268.21 194.157 266.952 197.325C266.325 198.914 265.874 200.175 265.58 201.033C265.301 201.885 265.151 202.339 265.151 202.339L262.058 201.337Z" fill="#965450"/>
<path d="M309.898 106.166C309.898 106.166 310.998 107.782 312.525 110.839C313.28 112.37 314.133 114.266 314.918 116.517C315.704 118.764 316.426 121.38 316.71 124.321C316.994 127.237 316.811 130.57 315.377 133.714C314.65 135.263 313.66 136.763 312.364 138.029C311.053 139.261 309.571 140.403 307.89 141.221C307.083 141.7 306.184 141.988 305.324 142.386C304.443 142.7 303.51 142.994 302.635 143.284C300.821 143.836 299.056 144.439 297.317 145.181C293.819 146.646 290.431 148.514 287.268 150.7C280.962 155.111 275.611 160.822 271.858 166.908C268.087 172.992 265.882 179.376 265.127 184.954C264.731 187.743 264.662 190.326 264.788 192.599C264.866 194.879 265.234 196.839 265.553 198.442C265.877 200.051 266.428 201.216 266.276 202.201C266.16 203.175 265.663 203.894 265.663 203.894C265.663 203.894 264.847 203.692 264.128 202.941C263.325 202.217 263.145 200.799 262.662 199.097C262.289 197.365 261.851 195.242 261.736 192.768C261.614 190.302 261.672 187.5 262.144 184.502C262.643 181.511 263.503 178.334 264.78 175.13C266.042 171.92 267.764 168.703 269.869 165.617C274.083 159.451 279.771 153.731 286.407 149.425C289.711 147.26 293.232 145.432 296.849 144.018C300.472 142.48 304.272 141.998 307.451 140.351C309.083 139.608 310.506 138.559 311.78 137.424C313.034 136.256 314.003 134.864 314.732 133.406C316.169 130.455 316.442 127.227 316.231 124.357C316.023 121.464 315.374 118.854 314.648 116.603C313.924 114.348 313.12 112.438 312.404 110.893C310.958 107.811 309.898 106.166 309.898 106.166Z" fill="#965450"/>
<path d="M163.063 225.867C163.063 225.867 163.257 225.799 163.623 225.675C164.056 225.523 164.576 225.414 165.276 225.279C165.97 225.172 166.814 225.081 167.78 225.105C168.262 225.075 168.77 225.172 169.304 225.226C169.57 225.257 169.843 225.289 170.121 225.323C170.394 225.392 170.672 225.464 170.956 225.535C172.111 225.765 173.255 226.309 174.443 226.863C175.546 227.569 176.733 228.266 177.715 229.263C178.816 230.137 179.64 231.299 180.564 232.393C181.431 233.526 182.111 234.8 182.889 236C183.508 237.278 184.127 238.557 184.737 239.816C185.263 241.105 185.696 242.403 186.158 243.639C186.655 244.864 186.935 246.109 187.259 247.27C187.573 248.432 187.87 249.53 188.146 250.545C188.981 254.654 189.536 257.393 189.536 257.393C189.536 257.393 189.358 256.717 189.048 255.536C188.73 254.357 188.312 252.664 187.744 250.655C187.397 249.671 187.022 248.603 186.625 247.474C186.219 246.351 185.854 245.144 185.276 243.977C184.732 242.798 184.216 241.56 183.613 240.347C182.936 239.179 182.249 237.991 181.561 236.805C180.713 235.739 179.966 234.592 179.07 233.624C178.126 232.704 177.286 231.708 176.247 231.044C175.305 230.237 174.236 229.762 173.277 229.247C172.251 228.896 171.299 228.529 170.371 228.444C170.144 228.405 169.922 228.368 169.704 228.332C169.483 228.331 169.269 228.328 169.058 228.326C168.641 228.333 168.246 228.287 167.879 228.361C167.14 228.422 166.519 228.564 166.013 228.696C165.53 228.848 165.117 228.986 164.945 229.078C164.764 229.15 164.56 229.26 164.57 229.253L163.063 225.867Z" fill="#965450"/>
<path d="M186.449 229.1C186.936 227.437 187.287 225.744 187.593 224.049C187.887 222.353 188.088 220.643 188.18 218.934C188.269 217.225 188.3 215.519 188.17 213.826C188.118 212.979 188.008 212.139 187.88 211.305C187.751 210.47 187.564 209.651 187.362 208.836C187.127 208.031 186.891 207.229 186.574 206.46C186.281 205.682 185.916 204.933 185.53 204.205C185.154 203.468 184.695 202.785 184.231 202.105C183.722 201.461 183.231 200.801 182.637 200.23C182.092 199.615 181.435 199.113 180.819 198.574C180.143 198.105 179.511 197.578 178.782 197.183C178.09 196.734 177.341 196.378 176.594 196.021C175.852 195.652 175.051 195.401 174.283 195.084L174.919 193.146C175.922 193.476 176.826 193.839 177.746 194.243C178.654 194.655 179.549 195.09 180.419 195.572C181.31 196.015 182.139 196.569 182.993 197.077C183.844 197.592 184.633 198.205 185.454 198.765C186.261 199.344 186.999 200.021 187.769 200.65C188.536 201.286 189.2 202.039 189.919 202.728C190.656 203.399 191.23 204.23 191.88 204.983C192.189 205.375 192.53 205.741 192.81 206.152L193.613 207.417C194.139 208.265 194.72 209.075 195.104 210.002C195.522 210.907 195.981 211.79 196.357 212.707L197.271 215.541C197.634 216.466 197.696 217.472 197.899 218.435C198.034 219.412 198.3 220.372 198.264 221.363L198.331 224.307C198.414 225.286 198.198 226.257 198.123 227.229L197.764 230.126L197.795 227.211C197.787 226.246 197.921 225.28 197.757 224.322L197.449 221.453C197.413 220.491 197.051 219.58 196.868 218.647C196.621 217.726 196.52 216.766 196.12 215.894L195.109 213.23C194.704 212.374 194.219 211.555 193.783 210.718C193.38 209.86 192.781 209.117 192.245 208.342L191.428 207.187C191.143 206.813 190.816 206.468 190.511 206.108C189.874 205.411 189.32 204.642 188.6 204.023C187.9 203.389 187.259 202.693 186.513 202.109C185.762 201.532 185.049 200.912 184.278 200.363C183.491 199.839 182.739 199.261 181.924 198.779C181.105 198.304 180.313 197.782 179.46 197.368C178.628 196.915 177.774 196.51 176.909 196.127C176.054 195.749 175.157 195.378 174.318 195.096L174.954 193.157C175.783 193.504 176.637 193.786 177.443 194.192C178.254 194.586 179.063 194.984 179.823 195.483C180.614 195.926 181.321 196.505 182.052 197.041C182.723 197.654 183.429 198.232 184.02 198.928C184.657 199.578 185.187 200.323 185.728 201.05C186.221 201.814 186.705 202.58 187.096 203.398C187.507 204.201 187.847 205.043 188.124 205.896C188.422 206.745 188.632 207.616 188.837 208.484C189.009 209.359 189.16 210.236 189.252 211.118C189.342 211.999 189.412 212.883 189.421 213.766C189.451 214.648 189.422 215.529 189.378 216.406C189.333 217.282 189.254 218.158 189.131 219.024C188.622 222.488 187.795 225.899 186.449 229.1Z" fill="#965450"/>
<path d="M162.247 293.909C158.33 292.236 154.588 290.172 150.974 287.915C147.365 285.648 143.9 283.144 140.629 280.405C134.093 274.929 128.305 268.47 123.963 261.073C119.63 253.684 116.855 245.359 115.985 236.815C115.541 232.546 115.544 228.23 115.952 223.96C116.38 219.68 117.089 215.469 118.323 211.318C119.521 207.187 121.181 203.185 123.297 199.432C125.414 195.681 127.953 192.167 130.853 188.987C136.643 182.598 143.755 177.527 151.37 173.593C158.997 169.649 167.144 166.809 175.446 164.737C179.601 163.709 183.805 162.878 188.037 162.238C192.277 161.609 196.514 161.127 200.835 160.961L200.89 162.475C196.693 162.737 192.466 163.202 188.276 163.773C184.082 164.353 179.904 165.049 175.76 165.902C167.476 167.61 159.281 169.853 151.463 173.039C147.56 174.638 143.755 176.48 140.165 178.668C136.574 180.846 133.213 183.417 130.329 186.436C127.487 189.462 125.302 193.103 123.643 196.944C121.983 200.793 120.821 204.861 120.052 208.998C118.514 217.282 118.542 225.841 119.766 234.192C121.006 242.548 123.513 250.725 127.206 258.334C129.057 262.136 131.183 265.807 133.611 269.276C136.044 272.738 138.742 276.023 141.723 279.036C147.655 285.098 154.655 290.096 162.247 293.909ZM162.247 293.909C154.598 290.213 147.501 285.315 141.446 279.313C135.379 273.331 130.321 266.318 126.513 258.674C122.718 251.024 120.112 242.785 118.785 234.341C117.473 225.901 117.366 217.231 118.858 208.779C119.604 204.56 120.75 200.39 122.455 196.431C124.151 192.478 126.388 188.709 129.364 185.522C132.345 182.383 135.79 179.743 139.455 177.506C143.117 175.26 146.981 173.379 150.935 171.748C158.855 168.498 167.121 166.217 175.469 164.473C179.646 163.602 183.853 162.891 188.076 162.297C192.304 161.713 196.53 161.229 200.814 160.961L200.87 162.475C196.68 162.625 192.442 163.093 188.258 163.703C184.068 164.326 179.907 165.138 175.793 166.144C167.578 168.171 159.524 170.959 152.004 174.823C144.497 178.677 137.509 183.638 131.83 189.873C128.986 192.978 126.497 196.404 124.419 200.063C122.352 203.729 120.679 207.617 119.479 211.659C118.252 215.665 117.501 219.884 117.049 224.068C116.61 228.267 116.571 232.513 116.973 236.716C117.756 245.128 120.413 253.348 124.632 260.687C128.826 268.048 134.456 274.559 140.883 280.108C144.099 282.884 147.514 285.432 151.08 287.75C154.651 290.057 158.357 292.177 162.247 293.909Z" fill="#965450"/>
<path d="M178.221 161.719C178.221 161.719 179.802 161.041 182.664 160.113C185.53 159.206 189.672 158.004 194.764 157.091C199.851 156.215 205.887 155.489 212.383 155.718C215.625 155.854 218.976 156.173 222.337 156.804C225.686 157.466 229.075 158.325 232.304 159.641C235.567 160.875 238.61 162.621 241.484 164.485C244.269 166.482 246.909 168.617 249.097 171.042C249.651 171.64 250.2 172.234 250.746 172.821C251.262 173.431 251.723 174.08 252.198 174.704C252.668 175.331 253.133 175.951 253.592 176.563C254.017 177.199 254.397 177.853 254.793 178.485C256.442 180.973 257.598 183.55 258.728 185.877C259.669 188.29 260.642 190.461 261.164 192.501C261.754 194.517 262.343 196.248 262.613 197.733C263.244 200.671 263.604 202.352 263.604 202.352C263.604 202.352 263.138 200.7 262.323 197.81C261.98 196.35 261.304 194.654 260.62 192.687C259.997 190.695 258.921 188.596 257.938 186.238C256.752 183.979 255.539 181.481 253.849 179.094C253.442 178.489 253.051 177.86 252.618 177.252C252.15 176.668 251.678 176.078 251.2 175.482C250.714 174.892 250.255 174.269 249.75 173.676C249.215 173.111 248.674 172.54 248.128 171.963C245.98 169.626 243.396 167.586 240.68 165.676C237.875 163.9 234.914 162.241 231.737 161.07C228.619 159.76 225.33 158.891 222.066 158.212C218.79 157.562 215.51 157.216 212.328 157.05C209.143 156.944 206.054 156.912 203.128 157.109C200.199 157.253 197.443 157.592 194.905 157.941C192.374 158.341 190.052 158.721 188.012 159.16C185.967 159.578 184.201 160.017 182.75 160.396C179.849 161.168 178.221 161.719 178.221 161.719Z" fill="#965450"/>
<path d="M161.495 239.715C161.495 239.715 158.01 212.242 139.552 223.188C121.095 234.135 145.673 279.075 160.745 264.398C167.576 257.743 161.495 239.715 161.495 239.715Z" fill="#FFAC9D"/>
<path d="M237.372 247.103C237.3 248.691 237.273 250.261 237.26 251.823C237.263 253.386 237.25 254.938 237.329 256.485C237.363 258.029 237.459 259.568 237.601 261.094C237.667 261.857 237.707 262.622 237.829 263.376L238.129 265.642L238.519 267.885C238.639 268.635 238.874 269.354 239.03 270.093L239.273 271.199L239.604 272.277C239.838 272.99 240.016 273.729 240.296 274.423L241.106 276.524C241.355 277.237 241.759 277.87 242.076 278.55C242.405 279.225 242.711 279.918 243.142 280.534C243.537 281.174 243.949 281.805 244.333 282.464L245.074 283.727L243.901 284.061C241.075 284.866 238.23 285.625 235.314 286.193C237.885 284.705 240.527 283.407 243.187 282.154L242.755 283.751C242.226 283.134 241.721 282.493 241.2 281.857C240.654 281.236 240.211 280.55 239.791 279.845C239.388 279.135 238.895 278.461 238.565 277.712L237.528 275.482C237.205 274.729 236.99 273.94 236.716 273.169L236.328 272.005L236.034 270.82C235.861 270.025 235.647 269.236 235.534 268.433L235.178 266.028C235.072 265.226 235.049 264.417 234.994 263.612C234.927 262.807 234.942 262 234.934 261.197C234.911 260.393 234.944 259.59 235.008 258.789C235.063 257.989 235.1 257.189 235.201 256.394C235.402 254.806 235.624 253.225 236 251.672C236.337 250.12 236.79 248.583 237.372 247.103Z" fill="#FC6A5A"/>
<path d="M228.114 221.898C228.114 221.898 228.394 222.621 228.453 223.982C228.47 224.656 228.479 225.504 228.279 226.449C228.129 227.409 227.801 228.478 227.266 229.58C227.025 230.147 226.656 230.668 226.325 231.253C225.955 231.806 225.497 232.321 225.051 232.882C224.55 233.374 224.023 233.888 223.46 234.374C222.871 234.815 222.257 235.272 221.613 235.688C220.953 236.064 220.269 236.433 219.57 236.796C218.855 237.092 218.128 237.384 217.385 237.663C216.641 237.931 215.882 238.11 215.117 238.314C214.72 238.409 214.386 238.516 213.932 238.601L212.849 238.806C211.444 239.064 209.836 239.284 208.332 239.397C206.827 239.518 205.325 239.545 203.894 239.481C202.462 239.436 201.095 239.275 199.927 239.191C198.748 239.102 197.788 239.095 196.875 239.291C196.426 239.42 195.981 239.541 195.559 239.735C195.125 239.884 194.719 240.088 194.337 240.293C193.563 240.67 192.906 241.108 192.334 241.41C191.239 242.103 190.565 242.474 190.565 242.474C190.565 242.474 190.949 241.822 191.713 240.732C192.139 240.222 192.578 239.532 193.274 238.877C193.918 238.181 194.76 237.436 195.901 236.819C197.049 236.203 198.484 235.846 199.829 235.707C201.19 235.553 202.49 235.495 203.817 235.376C205.145 235.277 206.49 235.106 207.866 234.931C209.239 234.724 210.55 234.548 212.035 234.251L213.123 234.066C213.394 234.021 213.766 233.916 214.082 233.846C214.732 233.671 215.415 233.585 216.042 233.385C216.664 233.177 217.288 232.989 217.913 232.809C218.497 232.563 219.072 232.316 219.656 232.094C220.211 231.834 220.719 231.522 221.26 231.266C221.762 230.966 222.217 230.622 222.703 230.326C223.134 229.968 223.554 229.618 223.959 229.28C224.318 228.899 224.734 228.563 225.032 228.167C225.658 227.394 226.223 226.63 226.613 225.88C227.027 225.139 227.326 224.441 227.549 223.848C227.985 222.657 228.114 221.898 228.114 221.898Z" fill="#76413B"/>
<path d="M272.864 250.703C272.864 250.703 272.257 250.736 271.222 250.704C270.706 250.684 270.075 250.674 269.367 250.608C268.658 250.593 267.845 250.391 266.96 250.192C266.087 249.969 265.053 249.822 264.11 249.413C263.149 249.03 262.097 248.671 261.085 248.149C260.095 247.59 259.029 247.055 258.048 246.359C257.091 245.632 256.058 244.955 255.185 244.094C254.299 243.247 253.402 242.411 252.664 241.452C251.861 240.554 251.207 239.561 250.588 238.603C249.965 237.647 249.485 236.646 249.028 235.716C248.62 234.753 248.249 233.848 248.005 232.969C247.708 232.119 247.546 231.298 247.404 230.581C247.259 229.863 247.199 229.222 247.156 228.698C247.073 227.648 247.146 227.041 247.146 227.041C247.146 227.041 247.467 227.537 248.03 228.405C248.599 229.253 249.394 230.44 250.389 231.79C250.862 232.477 251.462 233.163 252.017 233.919C252.624 234.643 253.224 235.423 253.903 236.178C254.25 236.548 254.583 236.938 254.923 237.328C255.261 237.72 255.657 238.069 256.012 238.458C256.725 239.234 257.515 239.951 258.302 240.672C259.041 241.446 259.94 242.035 260.714 242.754C261.529 243.422 262.397 243.995 263.187 244.636C264.005 245.234 264.855 245.735 265.625 246.289C266.394 246.869 267.168 247.242 267.869 247.707C268.592 248.114 269.202 248.608 269.859 248.915C270.493 249.238 271.032 249.565 271.479 249.824C272.369 250.351 272.864 250.703 272.864 250.703Z" fill="#76413B"/>
<path d="M228.114 305.226C228.114 305.226 213.713 272.82 195.195 299.053L228.114 305.226Z" fill="white"/>
<path d="M246.124 259.964C245.741 265.775 247.154 270.599 249.279 270.74C251.406 270.88 253.439 266.283 253.822 260.472C254.205 254.661 252.792 249.837 250.665 249.697C248.542 249.558 246.507 254.153 246.124 259.964Z" fill="#352C38"/>
<path d="M206.518 256.878C206.135 262.689 207.549 267.513 209.674 267.653C211.8 267.794 213.833 263.197 214.216 257.386C214.599 251.575 213.186 246.751 211.06 246.61C208.936 246.471 206.902 251.068 206.518 256.878Z" fill="#352C38"/>
<path d="M216.798 264.59C216.798 264.59 216.729 264.995 216.538 265.684C216.333 266.367 216.06 267.358 215.591 268.497C215.135 269.641 214.512 270.947 213.669 272.265C212.836 273.585 211.749 274.918 210.303 275.953C209.566 276.449 208.708 276.828 207.797 276.99C206.883 277.184 205.933 276.993 205.141 276.692C204.325 276.399 203.681 275.891 203.131 275.4C202.58 274.905 202.125 274.382 201.77 273.867C201.388 273.367 201.091 272.879 200.863 272.43C200.612 271.995 200.414 271.608 200.27 271.278C199.972 270.625 199.824 270.246 199.824 270.246C199.824 270.246 200.094 270.561 200.526 271.12C200.945 271.686 201.607 272.459 202.441 273.288C202.639 273.508 202.867 273.71 203.111 273.905C203.351 274.105 203.579 274.336 203.857 274.504C204.124 274.686 204.388 274.891 204.692 275.02C204.982 275.184 205.282 275.317 205.598 275.409C206.223 275.604 206.883 275.666 207.536 275.521C208.189 275.387 208.836 275.095 209.433 274.676C210.033 274.258 210.605 273.767 211.116 273.209C211.623 272.651 212.123 272.087 212.554 271.489C213.435 270.311 214.181 269.13 214.801 268.101C215.411 267.067 215.934 266.197 216.26 265.569C216.603 264.948 216.798 264.59 216.798 264.59Z" fill="#FC6A5A"/>
<path d="M243.544 268.192C243.544 268.192 243.694 268.575 243.953 269.246C244.196 269.919 244.602 270.86 245.07 271.981C245.55 273.096 246.121 274.389 246.84 275.689C247.185 276.347 247.609 276.977 248.04 277.597C248.474 278.214 248.99 278.768 249.548 279.19C250.099 279.623 250.706 279.887 251.32 279.894C251.934 279.885 252.564 279.649 253.149 279.31C253.72 278.931 254.258 278.491 254.735 278.019C255.204 277.538 255.64 277.063 256.016 276.59C256.411 276.136 256.728 275.677 257.04 275.291C257.353 274.905 257.591 274.542 257.795 274.249C258.207 273.664 258.464 273.335 258.464 273.335C258.464 273.335 258.33 273.724 258.059 274.394C257.92 274.727 257.761 275.138 257.533 275.588C257.307 276.04 257.088 276.572 256.742 277.098C256.578 277.367 256.408 277.647 256.231 277.937C256.025 278.211 255.812 278.495 255.593 278.788C255.131 279.359 254.588 279.939 253.904 280.441C253.199 280.904 252.35 281.365 251.333 281.383C250.321 281.401 249.353 280.98 248.619 280.419C247.156 279.25 246.294 277.725 245.632 276.297C244.969 274.861 244.537 273.466 244.236 272.261C243.925 271.058 243.783 270.03 243.666 269.319C243.563 268.605 243.544 268.192 243.544 268.192Z" fill="#FC6A5A"/>
<path d="M153.532 261.504C152.861 260.775 152.236 259.99 151.741 259.115C151.498 258.674 151.277 258.22 151.102 257.737C151.013 257.498 150.966 257.24 150.896 256.99C150.833 256.737 150.843 256.465 150.814 256.199C150.802 255.932 150.883 255.658 150.92 255.386C150.996 255.122 151.15 254.875 151.272 254.618C151.435 254.394 151.648 254.205 151.841 253.998C152.045 253.806 152.302 253.71 152.534 253.564C153.005 253.268 153.529 253.208 154.029 253.021L155.56 252.795L155.111 253.291C154.951 251.113 154.71 248.923 154.411 246.755C154.151 244.58 153.82 242.416 153.401 240.276C152.968 238.141 152.461 236.017 151.729 234C151.356 232.997 150.985 231.994 150.472 231.088C149.973 230.184 149.368 229.339 148.617 228.8C148.247 228.519 147.835 228.371 147.418 228.28C147.213 228.288 146.964 228.236 146.794 228.269L145.974 228.382C145.389 228.422 145.003 228.643 144.511 228.76C144.046 228.925 143.584 229.179 143.126 229.398C142.267 229.955 141.422 230.563 140.739 231.352L140.218 231.936L139.777 232.584C139.457 233.002 139.241 233.48 139.004 233.951C138.542 234.898 138.274 235.925 138.086 236.97C138.045 237.496 137.994 238.027 137.982 238.558C138.022 239.086 138.005 239.627 138.091 240.155C138.252 241.215 138.555 242.259 138.995 243.253C139.249 243.732 139.47 244.236 139.753 244.702L140.673 246.072L139.595 244.808C139.248 244.374 138.992 243.876 138.687 243.406C138.149 242.426 137.738 241.372 137.473 240.267C137.335 239.717 137.302 239.148 137.212 238.583C137.193 238.014 137.218 237.442 137.233 236.869C137.373 235.734 137.608 234.601 138.058 233.538C138.289 233.01 138.505 232.47 138.83 231.989L139.284 231.246L139.827 230.565C140.542 229.641 141.465 228.893 142.452 228.256C142.977 227.986 143.485 227.698 144.052 227.486C144.623 227.321 145.251 227.052 145.775 227.014L146.591 226.886C146.966 226.824 147.271 226.88 147.616 226.883C148.277 226.996 148.92 227.24 149.439 227.616C150.495 228.355 151.199 229.355 151.782 230.357C152.362 231.37 152.813 232.421 153.174 233.493C153.907 235.637 154.387 237.823 154.793 240.013C155.183 242.205 155.481 244.406 155.705 246.612C155.893 248.824 156.021 251.03 156.068 253.255L156.078 253.708L155.619 253.752L154.203 253.885C153.774 254.027 153.273 254.059 152.893 254.282C152.704 254.39 152.477 254.462 152.312 254.595C152.161 254.742 151.98 254.868 151.838 255.024C151.742 255.211 151.603 255.379 151.526 255.578C151.487 255.792 151.395 255.997 151.385 256.222C151.394 256.449 151.359 256.679 151.397 256.91C151.442 257.141 151.463 257.376 151.526 257.607C151.65 258.07 151.823 258.522 152.022 258.969C152.438 259.852 152.942 260.708 153.532 261.504Z" fill="#FC6A5A"/>
<path d="M371.637 178.899C329.674 90.9497 365.495 -15.3582 515.238 19.8841C515.238 19.8841 609.22 47.0856 589.977 148.958C573.568 235.823 456.919 260.248 396.886 211.039C381.09 221.799 340.196 248.157 385.653 200.188C380.17 193.927 375.428 186.844 371.637 178.899Z" fill="#1E40AF"/>
<path d="M487.511 126.122L465.459 115.63C467.346 110.877 469.445 107.139 471.751 104.423C474.055 101.705 476.408 99.6507 478.806 98.2561C481.201 96.8629 483.587 95.9446 485.956 95.4998C488.33 95.055 490.575 94.7637 492.695 94.6231C494.813 94.4839 496.721 94.2873 498.419 94.0276C500.113 93.7679 501.511 93.0993 502.611 92.0217C503.287 91.3832 503.805 90.5223 504.159 89.439C504.515 88.3543 504.53 87.1735 504.205 85.8993C503.878 84.6238 503.114 83.3123 501.914 81.9708C500.712 80.6249 498.915 79.3823 496.525 78.2459C494.959 77.5013 493.034 76.758 490.744 76.0162C488.458 75.2744 486 74.6374 483.372 74.1093C480.745 73.577 478.087 73.1953 475.4 72.9543C472.714 72.719 470.197 72.7089 467.854 72.9256L477.15 45.9853C479.212 45.7944 481.501 45.6682 484.01 45.6093C486.517 45.5476 489.18 45.6954 491.999 46.0498C494.817 46.4028 497.787 47.0011 500.905 47.8462C504.025 48.6899 507.236 49.898 510.542 51.4706C515.891 54.016 520.595 57.1626 524.653 60.9046C528.714 64.651 531.842 68.8048 534.044 73.3733C536.244 77.9403 537.39 82.8187 537.481 88.0114C537.572 93.2012 536.324 98.5143 533.737 103.951C531.77 108.085 529.606 111.119 527.242 113.063C524.878 115.005 522.399 116.348 519.808 117.085C517.215 117.826 514.528 118.202 511.751 118.213C508.97 118.225 506.203 118.361 503.438 118.616C500.676 118.877 497.945 119.513 495.252 120.523C492.56 121.538 489.976 123.403 487.511 126.122ZM482.58 144.897C481.669 146.812 480.45 148.418 478.925 149.719C477.397 151.02 475.721 151.995 473.893 152.646C472.062 153.293 470.15 153.586 468.158 153.516C466.162 153.448 464.23 152.967 462.362 152.079C460.446 151.168 458.835 149.963 457.525 148.456C456.21 146.954 455.232 145.285 454.583 143.459C453.932 141.627 453.642 139.718 453.709 137.721C453.78 135.728 454.268 133.775 455.179 131.86C456.068 129.99 457.276 128.377 458.799 127.022C460.325 125.667 462.001 124.663 463.831 124.017C465.659 123.364 467.574 123.066 469.582 123.112C471.585 123.159 473.545 123.637 475.459 124.548C477.327 125.437 478.912 126.646 480.215 128.171C481.515 129.697 482.491 131.372 483.142 133.204C483.791 135.031 484.081 136.971 484.015 139.018C483.947 141.067 483.468 143.028 482.58 144.897Z" fill="white"/>
<path d="M503.501 183.29L490.491 169.929C493.104 167.025 495.598 164.904 497.969 163.572C500.341 162.238 502.571 161.39 504.657 161.027C506.741 160.664 508.693 160.64 510.508 160.949C512.326 161.261 514.012 161.647 515.568 162.11C517.12 162.572 518.539 162.938 519.825 163.202C521.108 163.466 522.286 163.357 523.359 162.878C524.012 162.599 524.611 162.12 525.152 161.439C525.695 160.756 526.019 159.915 526.124 158.916C526.228 157.916 526.028 156.774 525.525 155.496C525.022 154.213 524.065 152.847 522.654 151.398C521.73 150.449 520.549 149.406 519.106 148.268C517.667 147.132 516.076 146.023 514.332 144.948C512.592 143.871 510.79 142.892 508.929 142.007C507.068 141.126 505.268 140.451 503.532 139.985L517.334 123.159C518.862 123.569 520.534 124.086 522.346 124.71C524.158 125.331 526.026 126.142 527.95 127.145C529.874 128.145 531.843 129.362 533.852 130.792C535.86 132.223 537.841 133.94 539.792 135.943C542.948 139.185 545.482 142.686 547.395 146.442C549.309 150.201 550.448 154.006 550.813 157.862C551.177 161.716 550.704 165.514 549.392 169.256C548.081 172.996 545.778 176.471 542.485 179.678C539.981 182.117 537.625 183.716 535.417 184.481C533.209 185.244 531.078 185.548 529.026 185.389C526.973 185.232 524.949 184.788 522.957 184.059C520.963 183.33 518.944 182.693 516.896 182.143C514.849 181.598 512.725 181.328 510.529 181.338C508.332 181.346 505.987 181.996 503.501 183.29ZM494.989 195.427C493.829 196.556 492.53 197.384 491.094 197.911C489.655 198.437 488.195 198.69 486.713 198.673C485.231 198.65 483.783 198.353 482.376 197.774C480.964 197.198 479.708 196.341 478.605 195.209C477.476 194.048 476.641 192.757 476.101 191.332C475.559 189.907 475.301 188.452 475.319 186.973C475.339 185.488 475.638 184.044 476.216 182.633C476.794 181.224 477.662 179.955 478.823 178.825C479.955 177.723 481.249 176.888 482.699 176.321C484.151 175.757 485.617 175.481 487.099 175.504C488.581 175.522 490.032 175.816 491.457 176.381C492.879 176.946 494.156 177.807 495.285 178.968C496.387 180.1 497.202 181.386 497.73 182.825C498.255 184.263 498.51 185.722 498.49 187.205C498.47 188.685 498.165 190.151 497.573 191.6C496.985 193.047 496.121 194.324 494.989 195.427Z" fill="white"/>
<path d="M429.547 139.216L412.651 140.034C412.246 136.514 412.302 133.544 412.821 131.132C413.338 128.719 414.101 126.693 415.108 125.057C416.114 123.423 417.269 122.08 418.569 121.032C419.873 119.984 421.148 119.07 422.396 118.29C423.643 117.513 424.743 116.767 425.695 116.052C426.644 115.339 427.279 114.472 427.597 113.455C427.801 112.844 427.834 112.149 427.696 111.372C427.558 110.593 427.181 109.868 426.564 109.197C425.946 108.525 425.05 107.976 423.878 107.549C422.703 107.122 421.199 106.951 419.368 107.04C418.169 107.097 416.75 107.275 415.108 107.572C413.471 107.868 411.761 108.284 409.983 108.822C408.205 109.357 406.458 109.994 404.739 110.728C403.023 111.464 401.483 112.281 400.123 113.182L396.974 93.6918C398.17 92.8998 399.525 92.0733 401.038 91.2153C402.548 90.3573 404.222 89.5738 406.06 88.8679C407.897 88.1605 409.906 87.5536 412.085 87.0471C414.265 86.5406 416.621 86.2264 419.155 86.103C423.254 85.905 427.157 86.2838 430.859 87.2394C434.565 88.1964 437.835 89.7073 440.674 91.7749C443.512 93.8424 445.811 96.4452 447.567 99.5846C449.323 102.723 450.302 106.376 450.503 110.541C450.656 113.708 450.329 116.27 449.523 118.23C448.716 120.19 447.642 121.82 446.302 123.12C444.961 124.422 443.443 125.531 441.752 126.447C440.059 127.366 438.413 128.354 436.809 129.418C435.209 130.481 433.75 131.764 432.437 133.263C431.128 134.764 430.161 136.75 429.547 139.216ZM432.686 152.293C432.758 153.761 432.54 155.14 432.035 156.434C431.529 157.73 430.824 158.872 429.923 159.869C429.018 160.863 427.946 161.668 426.706 162.278C425.465 162.891 424.129 163.231 422.697 163.3C421.229 163.37 419.851 163.162 418.558 162.673C417.264 162.186 416.12 161.487 415.126 160.586C414.128 159.681 413.326 158.611 412.714 157.369C412.104 156.13 411.762 154.777 411.691 153.31C411.622 151.878 411.831 150.498 412.316 149.171C412.806 147.844 413.499 146.683 414.404 145.689C415.306 144.691 416.377 143.881 417.618 143.252C418.856 142.625 420.209 142.275 421.676 142.203C423.108 142.134 424.471 142.353 425.766 142.858C427.059 143.364 428.204 144.067 429.201 144.973C430.196 145.875 431.008 146.964 431.639 148.235C432.268 149.507 432.618 150.861 432.686 152.293Z" fill="white"/>
</svg>
