<svg width="630" height="552" viewBox="0 0 630 552" fill="none" xmlns="http://www.w3.org/2000/svg">
<path opacity="0.4" d="M315 551.371C488.97 551.371 630 543.875 630 534.628C630 525.382 488.97 517.886 315 517.886C141.03 517.886 0 525.382 0 534.628C0 543.875 141.03 551.371 315 551.371Z" fill="#D4D4D4"/>
<path d="M565.503 532.198H306.4C296.03 532.198 287.544 523.712 287.544 513.342V43.4398C287.544 33.0694 296.03 24.584 306.4 24.584H565.503C575.874 24.584 584.359 33.0694 584.359 43.4398V513.342C584.357 523.715 575.874 532.198 565.503 532.198Z" fill="#007FFF"/>
<path d="M560.362 532.198H301.258C290.888 532.198 282.403 523.712 282.403 513.342V43.4398C282.403 33.0694 290.888 24.584 301.258 24.584H560.362C570.732 24.584 579.218 33.0694 579.218 43.4398V513.342C579.218 523.715 570.732 532.198 560.362 532.198Z" fill="#1E40AF"/>
<path d="M562.244 480.907H299.376C296.003 480.907 293.267 478.172 293.267 474.799V44.2759C293.267 40.9024 296.003 38.1672 299.376 38.1672H562.244C565.618 38.1672 568.353 40.9024 568.353 44.2759V474.801C568.353 478.172 565.618 480.907 562.244 480.907Z" fill="#DBEAFE"/>
<mask id="mask0_861_9855" style="mask-type:luminance" maskUnits="userSpaceOnUse" x="293" y="38" width="276" height="443">
<path d="M562.244 480.907H299.376C296.003 480.907 293.267 478.172 293.267 474.799V44.2759C293.267 40.9024 296.003 38.1672 299.376 38.1672H562.244C565.618 38.1672 568.353 40.9024 568.353 44.2759V474.801C568.353 478.172 565.618 480.907 562.244 480.907Z" fill="white"/>
</mask>
<g mask="url(#mask0_861_9855)">
<path d="M372.464 533.284C374.939 532.277 377.37 531.157 379.741 529.943C431.723 503.325 445.459 449.552 457.53 397.043C466.83 356.579 476.744 312.115 509.325 283.454C560.311 238.601 655.739 319.892 680.326 238.493C702.802 164.08 586.723 24.4293 528.037 -9.30047C452.643 -52.6347 347.155 -7.40187 342.814 80.9805C341.051 116.851 356.64 176.319 325.178 203.782C290 234.492 253.967 198.165 224.122 179.622C133.713 123.448 63.7385 192.779 125.698 278.98C146.088 307.351 197.123 344.769 184.071 385.852C172.397 422.602 118.617 439.836 163.624 484.064C184.43 504.512 215.582 503.24 242.557 505.924C257.325 507.393 270.623 510.495 283.998 517.079C297.337 523.647 310.021 531.885 324.336 536.261C327.723 537.296 331.172 538.116 334.676 538.624C347.423 540.477 360.488 538.163 372.464 533.284Z" fill="#60A5FA"/>
</g>
<path d="M457.315 514.692H404.308C398.992 514.692 394.666 510.367 394.666 505.052C394.666 499.736 398.992 495.412 404.308 495.412H457.315C462.63 495.412 466.957 499.736 466.957 505.052C466.957 510.367 462.63 514.692 457.315 514.692ZM404.308 498.128C400.489 498.128 397.382 501.233 397.382 505.052C397.382 508.868 400.489 511.975 404.308 511.975H457.315C461.134 511.975 464.241 508.868 464.241 505.052C464.241 501.235 461.136 498.128 457.315 498.128H404.308Z" fill="#007FFF"/>
<path d="M474.4 231.376L476.519 244.549L479.968 266.089L480.186 267.42L488.035 316.42L488.361 318.457L490.29 330.571L490.426 331.386L491.105 335.732L491.24 336.52L496.102 366.887L496.293 368.055L496.428 368.87L500.747 395.814L500.91 396.765L502.214 405.049L502.458 406.489L505.528 425.665H356.11L387.237 231.376C370.506 220.185 358.337 202.747 354.073 182.376C352.932 177.133 352.361 171.701 352.361 166.133C352.361 122.809 387.482 87.6619 430.805 87.6619C432.543 87.6619 434.255 87.7162 435.939 87.852C476.899 90.4867 509.276 124.521 509.276 166.133C509.276 172.434 508.543 178.546 507.13 184.413C506.152 188.569 504.821 192.589 503.219 196.446C502.051 199.243 500.72 201.932 499.253 204.54C493.196 215.323 484.64 224.531 474.4 231.376Z" fill="#2563EB"/>
<path d="M474.4 231.376L476.519 244.549L479.968 266.089L480.185 267.42L488.035 316.42L488.361 318.457L490.29 330.571L490.426 331.386L491.105 335.732L491.24 336.52L496.102 366.887L496.292 368.055L496.428 368.87L500.747 395.814L500.91 396.765L502.214 405.049L502.458 406.489L505.528 425.665H366.377L397.504 231.376C380.773 220.185 368.604 202.747 364.34 182.375C363.199 177.133 362.628 171.701 362.628 166.133C362.628 124.52 395.005 90.4865 435.939 87.8518C476.899 90.4865 509.276 124.52 509.276 166.133C509.276 172.434 508.543 178.546 507.13 184.413C506.152 188.568 504.821 192.588 503.219 196.445C502.051 199.243 500.72 201.932 499.253 204.54C493.196 215.323 484.64 224.531 474.4 231.376Z" fill="#3B82F6"/>
<path d="M496.428 368.87C489.746 370.826 482.739 373.488 476.193 374.982C475.921 375.036 475.622 375.117 475.351 375.172C470.489 376.204 465.925 376.557 461.96 375.498C449.411 372.102 446.613 365.23 446.233 357.245V356.403C446.124 352.682 446.505 348.716 446.613 344.777C446.64 344.506 446.64 344.234 446.64 343.963C446.667 342.74 446.668 341.518 446.613 340.323C446.613 340.051 446.586 339.78 446.559 339.508C446.477 337.878 446.26 336.276 445.907 334.727C444.141 326.959 437.813 322.124 431.511 317.48C431.294 317.289 431.077 317.127 430.832 316.964C423.716 311.667 416.898 306.425 417.17 297.108C417.251 294.093 417.849 291.377 418.636 288.878C418.718 288.606 418.799 288.308 418.908 288.036C421.597 279.86 425.916 273.695 420.565 264.921C420.538 264.921 420.538 264.921 420.538 264.921C420.429 264.677 420.266 264.459 420.13 264.215C419.424 263.129 418.555 262.015 417.55 260.847C414.671 257.533 411.792 254.165 409.483 250.797C409.347 250.58 409.184 250.335 409.048 250.118C403.127 241.209 401.361 232.354 413.584 224.64C413.829 224.504 414.073 224.368 414.345 224.205C414.508 224.097 414.671 224.015 414.834 223.907C421.38 220.104 431.131 217.605 438.709 221.435C441.941 223.092 444.114 225.699 446.151 228.47C446.314 228.687 446.45 228.904 446.613 229.122C449.031 232.463 451.339 235.912 455.169 238.167C458.429 240.068 461.824 241.236 465.219 242.078C465.464 242.159 465.708 242.214 465.98 242.268C469.647 243.164 473.259 243.708 476.518 244.55L479.968 266.089L480.185 267.42L488.035 316.42L488.361 318.457L490.29 330.572L490.425 331.387L491.105 335.732L491.24 336.52L496.102 366.887L496.292 368.055L496.428 368.87Z" fill="#1E40AF"/>
<path d="M488.035 316.42L488.361 318.457C485.754 314.274 483.228 310.282 480.756 306.479V306.452C480.593 306.18 480.43 305.909 480.24 305.637C475.568 298.412 471.141 291.811 466.958 285.782C466.74 285.428 466.496 285.102 466.279 284.776C460.058 275.84 454.382 268.181 449.275 261.662C449.031 261.336 448.813 261.037 448.569 260.765C443.924 254.817 439.741 249.819 436.02 245.636C435.749 245.365 435.504 245.093 435.287 244.821C421.027 228.877 413.802 224.83 413.666 224.721C413.639 224.694 413.612 224.667 413.584 224.64C413.449 224.531 413.421 224.341 413.503 224.178C413.612 223.988 413.829 223.934 414.019 224.015C414.046 224.015 414.155 224.097 414.345 224.205C415.92 225.21 423.308 230.154 436.4 244.876C436.482 244.984 436.591 245.093 436.699 245.202V245.229C438.682 247.429 440.746 249.846 442.946 252.508C443.245 252.861 443.544 253.214 443.87 253.595C443.87 253.622 443.87 253.622 443.87 253.649C445.744 255.903 447.7 258.348 449.737 260.928V260.955C449.846 261.064 449.9 261.118 449.954 261.227C449.954 261.227 449.981 261.254 449.981 261.281C452.67 264.677 455.441 268.344 458.402 272.363V272.391C458.755 272.825 459.081 273.314 459.434 273.776C459.434 273.803 459.434 273.83 459.434 273.83C462.041 277.361 464.73 281.137 467.528 285.184C467.582 285.238 467.61 285.32 467.664 285.374C469.538 288.063 471.439 290.888 473.422 293.821C473.694 294.229 473.965 294.636 474.237 295.044V295.071C476.519 298.466 478.855 302.024 481.218 305.746C481.326 305.8 481.408 305.909 481.435 306.017C483.581 309.358 485.781 312.808 488.035 316.42Z" fill="white"/>
<path d="M436.495 245.609C436.433 245.641 436.359 245.658 436.283 245.652C418.761 244.338 409.578 250.718 409.488 250.783C409.293 250.919 409.064 250.867 408.939 250.691C408.812 250.514 408.853 250.267 409.029 250.142C409.119 250.077 418.509 243.528 436.343 244.867C436.56 244.884 436.723 245.074 436.707 245.288C436.696 245.432 436.612 245.549 436.495 245.609Z" fill="white"/>
<path d="M449.778 261.637C449.71 261.672 449.629 261.689 449.544 261.678C430.903 259.163 420.644 264.861 420.535 264.907C420.337 265.002 420.104 264.951 419.998 264.761C419.889 264.571 419.954 264.332 420.144 264.223C420.25 264.169 430.721 258.342 449.65 260.896C449.865 260.925 450.017 261.124 449.987 261.338C449.971 261.474 449.887 261.583 449.778 261.637Z" fill="white"/>
<path d="M443.655 253.999C443.617 254.018 443.574 254.035 443.525 254.04C443.31 254.067 443.112 253.918 443.082 253.701C440.898 237.284 445.82 228.921 446.032 228.573C446.143 228.386 446.385 228.326 446.572 228.44C446.76 228.551 446.819 228.793 446.708 228.981C446.657 229.065 441.721 237.482 443.864 253.595C443.886 253.766 443.796 253.926 443.655 253.999Z" fill="white"/>
<path d="M467.479 285.817C467.389 285.863 467.286 285.877 467.183 285.844C443.587 278.69 419.133 288.791 418.889 288.895C418.688 288.979 418.457 288.884 418.373 288.685C418.289 288.484 418.392 288.243 418.582 288.169C418.829 288.063 443.538 277.853 467.411 285.092C467.62 285.154 467.737 285.374 467.675 285.583C467.642 285.687 467.571 285.768 467.479 285.817Z" fill="white"/>
<path d="M459.227 274.181C459.195 274.197 459.157 274.211 459.116 274.219C458.901 274.257 458.698 274.116 458.657 273.901C455.821 258.139 465.187 242.141 465.282 241.98C465.39 241.79 465.632 241.73 465.822 241.842C466.01 241.953 466.069 242.195 465.958 242.382C465.866 242.54 456.65 258.291 459.431 273.762C459.466 273.936 459.377 274.105 459.227 274.181Z" fill="white"/>
<path d="M481.226 306.446C481.163 306.479 481.093 306.495 481.016 306.49C457.437 304.86 431.584 317.423 431.326 317.547C431.131 317.645 430.895 317.564 430.797 317.368C430.704 317.175 430.78 316.942 430.971 316.844L430.976 316.841C431.237 316.711 457.28 304.059 481.068 305.702C481.285 305.716 481.448 305.906 481.435 306.123C481.429 306.267 481.342 306.387 481.226 306.446Z" fill="white"/>
<path d="M480.185 267.42C476.736 274.428 473.721 283.907 474.237 295.044V295.071C474.237 295.234 474.155 295.37 474.02 295.451C473.965 295.478 473.911 295.478 473.857 295.478C473.639 295.505 473.449 295.343 473.449 295.125C473.422 294.691 473.395 294.256 473.422 293.821C473.15 282.549 476.41 273.015 479.968 266.089L480.185 267.42Z" fill="white"/>
<path d="M489.013 254.138C489.013 254.138 488.959 254.192 488.877 254.274C488.796 254.002 488.687 253.731 488.578 253.486C488.714 253.432 488.877 253.459 489.013 253.568C489.149 253.731 489.149 253.975 489.013 254.138Z" fill="white"/>
<path d="M491.104 335.732L491.24 336.52C472.498 334.592 447.075 344.642 446.776 344.75C446.722 344.777 446.667 344.777 446.613 344.777C446.477 344.777 446.314 344.696 446.26 344.533C446.179 344.343 446.26 344.098 446.477 344.017C446.477 344.017 446.532 343.99 446.64 343.962C448.786 343.12 472.879 333.967 491.104 335.732Z" fill="white"/>
<path d="M490.29 330.572L490.425 331.387C472.336 327.829 447.048 340.133 446.776 340.269C446.722 340.296 446.695 340.323 446.613 340.323C446.477 340.323 446.314 340.242 446.233 340.106C446.151 339.916 446.233 339.671 446.423 339.563C446.423 339.563 446.477 339.535 446.559 339.508C448.324 338.639 466.903 329.947 483.363 329.947C485.726 329.947 488.062 330.137 490.29 330.572Z" fill="white"/>
<path d="M502.214 405.049C499.498 410.726 495.423 414.284 490.127 415.697C461.742 423.193 405.164 368.326 398.944 362.187C403.154 361.345 424.042 357.543 446.233 357.244C465.083 356.972 484.884 359.254 496.292 368.054L496.102 366.886C484.45 358.385 464.866 356.158 446.233 356.402C421.488 356.728 398.401 361.427 397.993 361.508C397.83 361.536 397.722 361.644 397.667 361.807C397.586 361.943 397.667 362.106 397.776 362.215C400.302 364.768 459.977 424.551 490.317 416.511C495.559 415.126 499.606 411.758 502.458 406.489L502.214 405.049Z" fill="#CDEFF9"/>
<path d="M493.495 392.881C488.416 390.871 483.5 388.996 478.719 387.204H478.708C475.245 377.838 476.022 366.172 476.03 366.055C476.044 365.825 475.872 365.624 475.642 365.607C475.411 365.591 475.215 365.754 475.194 365.996C475.185 366.112 474.438 377.409 477.69 386.826L477.687 386.823C470.706 384.243 464.106 381.934 457.995 379.843C457.978 379.835 457.954 379.835 457.935 379.827C457.91 379.816 457.889 379.813 457.861 379.808C457.832 379.802 457.81 379.786 457.777 379.786C453.024 378.156 448.542 376.689 444.441 375.386H444.427C439.155 367.02 439.236 361.503 439.236 361.449C439.245 361.218 439.06 361.025 438.829 361.02C438.598 361.011 438.403 361.193 438.397 361.424C438.389 361.65 438.343 366.889 443.237 375.013C443.229 375.011 443.221 375.008 443.216 375.005C425.533 369.41 414.506 366.639 414.288 366.585C414.071 366.531 413.826 366.667 413.772 366.884C413.718 367.101 413.854 367.346 414.098 367.4C414.37 367.454 431.235 371.691 456.74 380.302C447.7 385.33 443.341 394.01 443.297 394.097C443.197 394.317 443.281 394.559 443.49 394.66C443.697 394.763 443.949 394.676 444.05 394.47C444.093 394.38 448.553 385.484 457.815 380.66C468.107 384.164 479.754 388.372 492.27 393.312L492.295 393.323C484.725 397.365 477.217 411.101 476.888 411.707C476.78 411.927 476.856 412.166 477.059 412.274C477.263 412.383 477.519 412.307 477.63 412.106C477.711 411.956 485.798 397.134 493.34 393.725C495.837 394.703 498.36 395.733 500.908 396.762L500.745 395.811C498.327 394.806 495.91 393.829 493.547 392.905C493.522 392.908 493.522 392.908 493.495 392.881Z" fill="#CDEFF9"/>
<path d="M303.714 123.925C306.545 120.788 310.008 117.991 314.161 117.496C318.48 116.98 322.706 119.074 326.164 121.709C329.624 124.346 332.626 127.576 336.279 129.934C340.983 132.965 345.267 133.288 350.343 131.39C359.193 128.081 367.013 122.537 375.474 118.338C383.934 114.139 393.702 111.26 402.801 113.81C404.094 114.172 405.395 114.663 406.384 115.57C409.179 118.137 408.402 122.641 407.47 126.318C406.539 129.996 405.96 134.592 408.934 136.947C411.129 138.685 414.272 138.313 417.018 137.756C423.819 136.382 430.504 134.426 436.974 131.917C443.33 129.453 450.688 126.495 456.587 129.912C460.64 132.261 462.715 137.384 461.887 141.994C459.771 153.771 445.809 154.51 436.262 154.477C403.219 154.371 370.177 154.265 337.134 154.159C323.423 154.116 309.709 154.07 295.998 154.026C289.528 154.005 283.164 153.326 276.732 152.983C275.039 152.894 273.288 152.663 271.853 151.761C270.419 150.859 269.387 149.118 269.792 147.472C270.101 146.201 271.153 145.264 272.196 144.473C277.193 140.69 283.34 139.18 289.031 136.784C295.324 134.136 298.632 129.855 302.97 124.773C303.215 124.488 303.462 124.205 303.714 123.925Z" fill="white"/>
<path d="M507.13 184.413C506.152 188.569 504.821 192.589 503.219 196.446C478.284 196.527 453.404 196.663 428.496 196.744C418.12 196.772 406.549 197.94 396.364 195.169C389.818 193.376 393.077 189.03 397.586 186.939C404.757 183.598 412.063 180.502 419.315 177.296C428.686 173.141 438.247 168.931 448.542 167.817C451.937 167.464 455.577 167.491 458.564 169.229C463.399 172.081 464.676 179.497 461.009 183.489C460.71 183.842 460.357 184.168 460.276 184.603C460.113 185.336 460.683 186.043 461.281 186.531C464.214 189.03 468.316 189.628 472.118 189.764C477.605 189.954 483.092 189.438 488.415 188.243C494.635 186.83 500.72 184.494 507.13 184.413Z" fill="white"/>
<path d="M311.562 170.514H310.337C308.001 170.514 306.107 172.407 306.107 174.743V201.97C306.107 205.183 303.478 207.813 300.265 207.813H271.465C268.252 207.813 265.623 205.183 265.623 201.97V174.743C265.623 172.407 263.729 170.514 261.393 170.514H217.38V151.191C217.38 145.351 213.14 140.106 207.328 139.519C200.657 138.846 194.977 144.123 194.977 150.664V378.558C194.977 396.249 180.646 410.348 162.956 410.596C162.736 410.598 162.513 410.604 162.293 410.612C142.337 411.229 125.76 427.496 124.796 447.441C123.72 469.678 141.503 488.11 163.51 488.11C164.949 488.11 166.37 488.018 167.769 487.863C167.562 489.482 167.418 491.12 167.418 492.793C167.418 514.164 184.805 531.553 206.179 531.553C227.552 531.553 244.939 514.167 244.939 492.793C244.939 491.12 244.797 489.482 244.588 487.863C245.99 488.018 247.408 488.11 248.847 488.11C270.854 488.11 288.634 469.681 287.561 447.444C286.6 427.499 270.023 411.229 250.064 410.612C249.841 410.604 249.619 410.601 249.399 410.596C231.711 410.348 217.377 396.249 217.377 378.558V262.161H223.975C226.311 262.161 228.204 260.268 228.204 257.932V255.93C228.204 252.703 230.844 250.066 234.068 250.066H262.822C266.035 250.066 268.665 252.695 268.665 255.908V257.935C268.665 260.27 270.558 262.164 272.894 262.164H311.578C318.849 262.164 324.798 256.215 324.798 248.944V183.761C324.803 176.473 318.844 170.514 311.562 170.514ZM143.016 449.35C143.016 438.048 152.21 428.854 163.513 428.854C174.815 428.854 184.009 438.051 184.009 449.35C184.009 460.652 174.815 469.847 163.513 469.847C152.21 469.844 143.016 460.65 143.016 449.35ZM206.181 513.287C194.879 513.287 185.685 504.09 185.685 492.79C185.685 481.488 194.879 472.294 206.181 472.294C217.483 472.294 226.678 481.488 226.678 492.79C226.675 504.093 217.481 513.287 206.181 513.287ZM248.85 428.851C260.152 428.851 269.346 438.048 269.346 449.348C269.346 460.65 260.149 469.844 248.85 469.844C237.551 469.844 228.356 460.65 228.356 449.348C228.356 438.048 237.551 428.851 248.85 428.851Z" fill="#1D4ED8"/>
<path d="M139.257 197.627C157.116 197.086 150.545 185.597 145.798 170.207C141.995 157.878 120.306 157.313 120.841 170.028C120.895 171.345 120.95 172.801 121.034 174.325L121.031 174.322C121.031 178.652 124.22 207.057 119.912 211.493C115.379 216.159 117.679 219.949 129.248 220.897C140.778 221.842 147.783 217.175 141.221 213.049C137.041 210.42 136.503 203.067 136.747 197.537C137.551 197.6 138.366 197.654 139.257 197.627Z" fill="#F4A556"/>
<path d="M217.38 272.808L214.512 265.659L217.06 261.387L221.897 260.143L223.679 264.386L220.879 269.462L217.38 272.808Z" fill="#F4A556"/>
<path d="M217.38 262.023L182.39 258.304L154.465 217.045C154.316 216.825 154.147 216.597 153.976 216.388C152.412 214.462 150.236 213.34 147.957 213.031L147.946 213.012L132.287 210.32C127.895 209.565 123.397 209.722 119.07 210.779L111.258 212.688C107.711 212.607 104.27 214.525 102.605 217.92L80.4703 263.071L80.0412 263.946C78.5935 266.915 79.6609 270.543 82.5618 272.236L106.182 286.023C106.117 293.835 105.845 298.914 105.845 298.914H155.633C159.707 282.011 160.484 265.825 160.248 253.89L172.663 269.174L173.315 269.978C174.5 271.415 176.36 272.246 178.348 272.035L217.378 267.887C218.73 267.743 219.849 266.673 219.999 265.266C220.172 263.647 219.002 262.197 217.38 262.023ZM106.103 273.941L95.8277 265.059L104.745 250.43C105.552 258.562 105.94 266.708 106.103 273.941Z" fill="#223451"/>
<path d="M111.975 171.158C119.803 182.949 120.474 190.182 122.099 193.295C123.826 194.642 128.191 194.506 130.742 193.555C131.152 193.403 131.369 193.018 131.695 192.73C142.644 183.044 148.076 171.668 148.248 164.821C148.473 155.746 144.852 151.131 135.063 151.465C135.063 151.465 136.704 155.879 132.629 156.219C128.555 156.558 121.2 154.238 113.051 157.012C113.051 157.012 117.011 158.88 115.824 160.01C114.637 161.14 107.393 164.256 111.975 171.158Z" fill="#003056"/>
<path d="M146.069 178.516C145.936 182.074 146.175 185.345 142.799 184.421C139.423 183.497 138.993 179.089 140.218 176.463C141.742 173.198 146.175 175.667 146.069 178.516Z" fill="#F4A556"/>
<path d="M166.848 407.793L166.823 407.79C167.193 403.67 167.171 399.509 166.696 395.369L155.635 298.914H121.52H105.847L88.6674 407L88.681 407.013C72.7234 451.421 70.8438 524.139 70.8438 524.139H82.9308C82.9308 524.139 114.379 412.074 118.597 394.397L118.554 394.413C118.755 393.65 118.98 392.892 119.154 392.121L130.022 343.452L142.948 411.205C133.927 455.843 140.748 524.139 140.748 524.139H152.835C152.835 524.139 163.99 432.576 166.59 410.075C166.641 409.662 166.687 409.249 166.731 408.836C166.769 408.486 166.815 408.097 166.848 407.793Z" fill="#1E40AF"/>
<path d="M152.833 524.141C152.833 524.141 165.9 530.377 174.809 530.451L175.923 534.628H139.393L140.507 524.141H152.833Z" fill="#223451"/>
<path d="M82.9285 524.141C82.9285 524.141 85.6366 527.433 93.8124 530.451L94.926 534.628H69.8745L70.8415 524.141H82.9285Z" fill="#223451"/>
<path d="M211.428 102.768C222.05 71.6784 200.621 36.2122 163.565 23.5521C126.508 10.892 87.8579 25.8322 77.2362 56.9219C66.6145 88.0116 88.0439 123.478 125.1 136.138C162.156 148.798 200.807 133.858 211.428 102.768Z" fill="#DBEAFE"/>
<path d="M109.795 60.4211C113.013 46.8482 104.619 33.2363 91.0459 30.0181C77.473 26.8 63.8611 35.1942 60.6429 48.7671C57.4248 62.34 65.819 75.9519 79.3919 79.17C92.9648 82.3882 106.577 73.994 109.795 60.4211Z" fill="#1E40AF"/>
<path d="M97.43 54.5597L78.0825 43.3879V65.7314L97.43 54.5597Z" fill="white"/>
<path d="M157.776 66.2205H220.916C230.714 66.2205 238.729 74.2359 238.729 84.036V99.7111C238.729 109.508 230.714 117.524 220.916 117.524H192.861L166.245 130.746C162.551 132.583 158.213 129.894 158.213 125.768V117.524H157.776C147.978 117.524 139.963 109.508 139.963 99.7111V84.036C139.963 74.2386 147.978 66.2205 157.776 66.2205Z" fill="#60A5FA"/>
</svg>
