<svg width="630" height="604" viewBox="0 0 630 604" fill="none" xmlns="http://www.w3.org/2000/svg">
<path d="M480.831 399.016H70.3881C60.5261 399.016 52.5327 390.985 52.5327 381.081V71.1877H480.833C490.695 71.1877 498.689 79.2187 498.689 89.1249V381.081C498.687 390.985 490.693 399.016 480.831 399.016Z" fill="#DBEAFE"/>
<path d="M203.663 105.606V205.757C203.663 210.284 200.021 213.942 195.515 213.942H95.8099C94.0259 213.942 92.389 213.369 91.0463 212.39C88.9864 210.912 87.6621 208.492 87.6621 205.757V105.606C87.6621 101.08 91.3038 97.4031 95.8099 97.4031H195.515C200.021 97.4031 203.663 101.08 203.663 105.606Z" fill="white"/>
<path d="M456.677 131.722H222.072C220.152 131.722 218.596 130.159 218.596 128.23V112.7C218.596 110.772 220.152 109.209 222.072 109.209H456.677C458.597 109.209 460.153 110.772 460.153 112.7V128.23C460.153 130.159 458.597 131.722 456.677 131.722Z" fill="white"/>
<path d="M456.677 165.193H222.072C220.152 165.193 218.596 163.63 218.596 161.701V146.171C218.596 144.242 220.152 142.679 222.072 142.679H456.677C458.597 142.679 460.153 144.242 460.153 146.171V161.701C460.153 163.63 458.597 165.193 456.677 165.193Z" fill="white"/>
<path d="M456.677 198.663H222.072C220.152 198.663 218.596 197.1 218.596 195.172V179.642C218.596 177.713 220.152 176.15 222.072 176.15H456.677C458.597 176.15 460.153 177.713 460.153 179.642V195.172C460.153 197.1 458.597 198.663 456.677 198.663Z" fill="white"/>
<path d="M275.61 231.199H91.0518V233.047H275.61V231.199Z" fill="#1E40AF"/>
<path d="M290.942 252.136H91.0518V253.984H290.942V252.136Z" fill="#1E40AF"/>
<path d="M225.513 272.575H91.0518V274.423H225.513V272.575Z" fill="#1E40AF"/>
<path d="M125.074 360.186C142.268 360.186 156.205 346.186 156.205 328.916C156.205 311.646 142.268 297.646 125.074 297.646C107.881 297.646 93.9434 311.646 93.9434 328.916C93.9434 346.186 107.881 360.186 125.074 360.186Z" fill="white"/>
<path d="M120.82 360.186C138.013 360.186 151.951 346.186 151.951 328.916C151.951 311.646 138.013 297.645 120.82 297.645C103.627 297.645 89.689 311.646 89.689 328.916C89.689 346.186 103.627 360.186 120.82 360.186Z" fill="#007FFF"/>
<path d="M118.217 345.63L102.764 328.081L108.275 323.183L118.127 334.372L134.971 314.607L140.561 319.413L118.217 345.63Z" fill="white"/>
<path d="M154.379 118.623C154.379 118.623 142.567 112.811 131.629 119.238C120.691 125.664 124.1 141.606 124.1 141.606C124.1 141.606 109.211 155.144 107.133 169.403C105.054 183.662 112.281 187.678 112.281 187.678L136.768 177.63L147.848 133.104L154.379 118.623Z" fill="black"/>
<path d="M176.779 184.499C176.779 184.499 183.183 163.646 178.429 156.868C173.421 149.725 164.885 148.985 165.133 143.243C165.709 129.904 156.299 123.395 156.299 123.395L154.03 175.924L176.779 184.499Z" fill="black"/>
<path d="M188.14 213.942H101.622C100.886 198.09 104.307 182.535 121.468 170.083C124.484 167.903 134.839 162.878 144.624 164.189C166.934 167.182 184.995 179.597 187.055 202.099L188.14 213.942Z" fill="#1E40AF"/>
<path d="M134.675 122.141C134.675 122.141 121.092 99.9252 113.114 113.526C105.135 127.127 124.837 147.501 132.805 140.882C140.772 134.262 134.675 122.141 134.675 122.141Z" fill="black"/>
<path d="M139.281 153.476L139.113 169.39C139.113 169.39 141.589 171.406 149.68 172.152C155.707 172.708 157.815 171.125 157.815 171.125L156.316 157.433L141.725 154.047L139.281 153.476Z" fill="#FC8165"/>
<path d="M141.729 154.047C141.76 154.427 141.898 154.876 142.117 155.394C145.142 162.373 153.595 163.96 157.075 164.309L156.317 157.433L141.729 154.047Z" fill="black"/>
<path d="M159.738 125.769C159.738 125.769 166.821 143.282 163.855 152.937C160.89 162.593 152.106 160.831 146.875 158.813C141.644 156.796 139.279 153.48 139.279 153.48C139.279 153.48 134.304 155.03 131.125 150.337C127.947 145.645 130.114 140.409 132.961 139.271C135.808 138.133 139.104 140.261 139.104 140.261L136.61 135.16C136.61 135.16 148.315 109.877 159.738 125.769Z" fill="#FC8165"/>
<path d="M139.104 140.261C139.104 140.261 146.461 142.029 151.901 133.93C157.344 125.83 156.991 122.413 156.991 122.413L161.817 131.147C161.817 131.147 163.174 125.26 160.947 121.395C158.719 117.53 156.242 118.226 156.242 118.226L139.759 121.742L134.99 134.743L139.104 140.261Z" fill="black"/>
<path d="M158.39 147.814C158.324 147.814 158.256 147.803 158.19 147.779C157.87 147.668 157.699 147.317 157.811 146.995C158.883 143.88 156.641 140.376 156.619 140.341C156.433 140.056 156.512 139.674 156.797 139.487C157.082 139.304 157.459 139.382 157.647 139.665C157.754 139.827 160.244 143.705 158.973 147.398C158.881 147.653 158.644 147.814 158.39 147.814Z" fill="black"/>
<path d="M151.146 135.616C151.07 135.616 150.993 135.602 150.917 135.572C150.603 135.445 150.448 135.086 150.577 134.77C152.063 131.038 154.469 131.746 154.572 131.781C154.898 131.883 155.076 132.228 154.975 132.553C154.874 132.875 154.546 133.054 154.215 132.96C154.138 132.936 152.753 132.627 151.718 135.229C151.62 135.471 151.39 135.616 151.146 135.616Z" fill="black"/>
<path d="M162.109 133.348C161.824 133.348 161.568 133.148 161.508 132.858C161.464 132.646 161.254 132.058 160.847 131.879C160.467 131.711 159.961 131.936 159.602 132.15C159.31 132.322 158.935 132.228 158.76 131.934C158.587 131.641 158.683 131.264 158.973 131.088C159.86 130.558 160.658 130.442 161.346 130.75C162.4 131.218 162.683 132.465 162.711 132.605C162.779 132.939 162.565 133.265 162.232 133.333C162.192 133.342 162.15 133.348 162.109 133.348Z" fill="black"/>
<path d="M138.123 148.421C137.954 148.421 137.783 148.351 137.664 148.213L133.147 143.077C132.922 142.822 132.946 142.432 133.2 142.206C133.45 141.981 133.842 142.001 134.066 142.26L138.583 147.396C138.808 147.651 138.784 148.041 138.53 148.266C138.412 148.37 138.269 148.421 138.123 148.421Z" fill="black"/>
<path d="M133.213 146.923C132.906 146.923 132.639 146.692 132.602 146.378C132.562 146.04 132.803 145.733 133.141 145.693L136.397 145.306C136.755 145.275 137.04 145.51 137.079 145.848C137.118 146.186 136.879 146.492 136.54 146.533L133.285 146.919C133.261 146.921 133.237 146.923 133.213 146.923Z" fill="black"/>
<path d="M161.648 141.142C161.339 141.142 161.072 140.91 161.037 140.594L160.686 137.405C160.668 137.233 160.721 137.063 160.833 136.932L162.093 135.478C162.317 135.22 162.705 135.194 162.959 135.417C163.217 135.641 163.242 136.031 163.02 136.287L161.937 137.538L162.26 140.457C162.299 140.795 162.054 141.1 161.718 141.139C161.694 141.141 161.67 141.142 161.648 141.142Z" fill="black"/>
<path d="M152.223 141.564C151.909 141.564 151.642 141.323 151.613 141.002L151.322 137.808C151.304 137.616 151.375 137.427 151.517 137.298L153.345 135.615C153.595 135.388 153.985 135.4 154.213 135.654C154.443 135.905 154.425 136.295 154.175 136.526L152.571 138.002L152.834 140.891C152.867 141.231 152.617 141.53 152.278 141.562C152.262 141.562 152.242 141.564 152.223 141.564Z" fill="black"/>
<path d="M149.998 173.035C145.885 173.035 140.993 171.956 136.369 168.223C136.101 168.005 136.056 167.609 136.274 167.34C136.492 167.07 136.884 167.027 137.153 167.243C147.408 175.528 159.121 169.943 159.238 169.887C159.54 169.734 159.922 169.861 160.073 170.175C160.226 170.486 160.099 170.863 159.788 171.016C159.715 171.051 155.576 173.035 149.998 173.035Z" fill="white"/>
<path d="M172.512 213.763C172.367 213.763 172.222 213.713 172.102 213.609C171.841 213.382 171.813 212.985 172.041 212.724C181.9 201.344 170.862 182.394 170.75 182.204C170.574 181.907 170.671 181.521 170.967 181.343C171.261 181.168 171.646 181.262 171.824 181.561C172.304 182.37 183.432 201.49 172.983 213.548C172.862 213.691 172.687 213.763 172.512 213.763Z" fill="white"/>
<path d="M156.555 153.046C155.052 153.046 153.842 152.15 153.29 151.488C153.073 151.228 153.106 150.842 153.365 150.622C153.625 150.402 154.009 150.435 154.23 150.694C154.296 150.771 155.881 152.602 157.978 151.409C158.278 151.242 158.651 151.344 158.815 151.641C158.984 151.937 158.879 152.314 158.585 152.482C157.875 152.885 157.187 153.046 156.555 153.046Z" fill="black"/>
<path d="M0 419.849V486.258C0 488.279 1.865 489.924 4.17141 489.924H136.841C139.133 489.924 140.998 488.279 140.998 486.258V419.849C140.998 417.828 139.133 416.183 136.841 416.183H4.17141C1.865 416.182 0 417.828 0 419.849Z" fill="#1E40AF"/>
<path d="M0 421.092V426.298H140.998V421.092C140.998 418.386 139.133 416.182 136.841 416.182H4.17141C1.865 416.182 0 418.386 0 421.092Z" fill="#DBEAFE"/>
<path d="M115.468 421.24C115.468 422.569 116.54 423.646 117.862 423.646C119.185 423.646 120.257 422.569 120.257 421.24C120.257 419.912 119.185 418.835 117.862 418.835C116.538 418.835 115.468 419.912 115.468 421.24Z" fill="#FFAF45"/>
<path d="M125.532 423.646C126.854 423.646 127.927 422.569 127.927 421.24C127.927 419.912 126.854 418.835 125.532 418.835C124.209 418.835 123.137 419.912 123.137 421.24C123.137 422.569 124.209 423.646 125.532 423.646Z" fill="#EA366E"/>
<path d="M130.809 421.24C130.809 422.569 131.881 423.646 133.204 423.646C134.526 423.646 135.598 422.569 135.598 421.24C135.598 419.912 134.526 418.835 133.204 418.835C131.881 418.835 130.809 419.912 130.809 421.24Z" fill="#7C4FD3"/>
<path d="M51.9516 444.623H127.927V440.074H51.9516V444.623Z" fill="white"/>
<path d="M51.9516 456.707H127.927V452.16H51.9516V456.707Z" fill="white"/>
<path d="M51.9516 468.789H127.927V464.241H51.9516V468.789Z" fill="white"/>
<path d="M11.7448 468.79H43.6152V440.276H11.7448L11.7448 468.79Z" fill="white"/>
<path d="M405.661 85.9014H289.377C285.951 85.9014 283.162 83.1007 283.162 79.6607V6.64298C283.162 3.20114 285.951 0.402222 289.377 0.402222H405.663C409.09 0.402222 411.878 3.20299 411.878 6.64298V79.6588C411.876 83.1007 409.088 85.9014 405.661 85.9014ZM289.377 2.24969C286.964 2.24969 285.002 4.22095 285.002 6.64298V79.6588C285.002 82.0827 286.964 84.0521 289.377 84.0521H405.663C408.076 84.0521 410.039 82.0809 410.039 79.6588V6.64298C410.039 4.2191 408.076 2.24969 405.663 2.24969H289.377Z" fill="#1E40AF"/>
<path d="M410.957 16.4586H284.082C283.574 16.4586 283.162 16.0447 283.162 15.5348C283.162 15.0249 283.574 14.6111 284.082 14.6111H410.957C411.464 14.6111 411.876 15.0249 411.876 15.5348C411.876 16.0447 411.464 16.4586 410.957 16.4586Z" fill="#1E40AF"/>
<path d="M296.942 11.8492C296.751 11.8492 296.561 11.79 296.396 11.67L289.646 6.67808C289.237 6.37509 289.149 5.79683 289.453 5.38669C289.754 4.97471 290.33 4.89157 290.738 5.19086L297.488 10.1827C297.897 10.4857 297.985 11.064 297.683 11.4741C297.501 11.7198 297.223 11.8492 296.942 11.8492Z" fill="#1E40AF"/>
<path d="M290.192 11.849C289.911 11.849 289.631 11.7197 289.453 11.4722C289.151 11.062 289.239 10.4838 289.646 10.1808L296.396 5.18891C296.806 4.88962 297.382 4.97275 297.681 5.38474C297.983 5.79488 297.895 6.37314 297.486 6.67613L290.736 11.668C290.573 11.7918 290.381 11.849 290.192 11.849Z" fill="#1E40AF"/>
<path d="M475.828 221.79C475.828 221.79 487.883 216.507 498.528 223.407C509.176 230.309 505.072 246.085 505.072 246.085C505.072 246.085 519.354 260.266 520.807 274.604C522.26 288.94 514.865 292.635 514.865 292.635L490.838 281.517L481.716 236.546L475.828 221.79Z" fill="black"/>
<path d="M448.49 277.394C448.49 277.394 445.082 265.501 450.129 258.937C455.444 252.024 464.004 251.66 464.008 245.913C464.017 232.561 473.7 226.474 473.7 226.474L473.671 279.053L448.49 277.394Z" fill="black"/>
<path d="M438.549 557.622C438.549 557.622 404.961 573.782 395.031 583.202C385.101 592.623 384.595 599.037 385.739 602.191C386.883 605.344 456.358 602.213 456.358 602.213C456.358 602.213 457.112 583.043 464.514 584.281C471.915 585.519 467.872 602.691 467.872 602.691L488.876 602.494C488.876 602.494 489.844 583.435 488.321 575.955C486.676 567.883 482.012 556.983 482.012 556.983L438.549 557.622Z" fill="#1E40AF"/>
<path d="M445.72 552.05C445.72 552.05 416.816 568.43 422.091 570.129C427.366 571.831 457.153 572.117 465.884 568.925C474.616 565.732 481.922 556.641 481.922 556.641L462.1 547.213L445.72 552.05Z" fill="#FC8165"/>
<path d="M481.922 556.641L485.672 540.01L450.149 532.762L444.997 559.126L481.922 556.641Z" fill="#FC8165"/>
<path d="M578.951 497.007C578.951 497.007 599.073 528.486 609.608 537.217C620.143 545.948 626.542 545.658 629.516 544.128C632.49 542.599 620.798 473.736 620.798 473.736C620.798 473.736 601.769 475.358 602.074 467.828C602.381 460.297 619.845 462.202 619.845 462.202L617.049 441.29C617.049 441.29 598.101 442.683 590.901 445.13C583.132 447.768 572.941 453.766 572.941 453.766L578.951 497.007Z" fill="#1E40AF"/>
<path d="M572.558 490.548C572.558 490.548 592.315 517.33 593.343 511.862C594.369 506.393 590.967 476.669 586.733 468.361C582.499 460.053 572.613 453.896 572.613 453.896L565.753 474.82L572.558 490.548Z" fill="#FC8165"/>
<path d="M572.613 453.896L555.719 452.216L552.957 488.521L579.639 490.394L572.613 453.896Z" fill="#FC8165"/>
<path d="M376.881 284.693C376.881 284.693 351.86 285.127 347.332 284.693C342.802 284.261 347.332 281.009 347.332 281.009C347.332 281.009 338.704 280.143 341.724 277.759C344.744 275.376 373.269 274.853 379.686 275.764C386.103 276.675 395.431 277.976 395.431 277.976L376.881 284.693Z" fill="#FC8165"/>
<path d="M473.936 267.633C473.936 267.633 458.843 268.226 454.96 269.527C451.078 270.827 423.686 285.648 418.724 285.648C413.763 285.648 393.272 272.559 393.272 272.559L363.075 289.892C363.075 289.892 381.841 328.456 411.821 331.923C441.802 335.389 453.448 323.041 453.448 323.041L473.936 267.633Z" fill="#2563EB"/>
<path d="M369.399 293.419C366.855 293.419 363.175 290.747 362.704 290.398C362.428 290.193 362.368 289.799 362.574 289.52C362.778 289.24 363.171 289.184 363.449 289.389C365.272 290.742 368.652 292.661 369.973 292.064C371.282 291.466 371.948 287.793 372.062 285.619C372.073 285.404 372.193 285.208 372.38 285.103C372.568 284.998 372.794 284.994 372.984 285.099C374.832 286.106 380.006 288.34 381.746 286.594C383.959 284.372 383.41 278.74 383.405 278.685C383.383 278.48 383.464 278.277 383.622 278.144C383.775 278.009 383.984 277.961 384.19 278.016C387.887 279.021 391.51 279.339 391.945 278.704C392.871 277.349 392.666 275.439 392.662 275.421C392.623 275.077 392.868 274.765 393.212 274.726C393.574 274.687 393.863 274.933 393.905 275.276C393.916 275.374 394.166 277.676 392.976 279.415C391.895 280.985 387.102 280.039 384.707 279.448C384.779 281.271 384.692 285.415 382.631 287.486C380.381 289.744 375.316 287.649 373.236 286.64C373.044 288.495 372.423 292.33 370.493 293.212C370.164 293.352 369.796 293.419 369.399 293.419Z" fill="#1E40AF"/>
<path d="M492.13 554.413L432.042 553.267C432.042 553.267 418.358 504.143 417.953 458.751C417.714 431.925 424.537 403.419 430.147 384.575C434.046 371.513 437.357 363.107 437.357 363.107L471.272 365.564L477.416 366.008L478.059 413.746C478.059 413.746 480.322 484.024 481.186 495.109C482.052 506.212 492.13 554.413 492.13 554.413Z" fill="#2563EB"/>
<path d="M472.029 387.42L430.149 384.575C434.048 371.513 437.359 363.107 437.359 363.107L471.275 365.564L472.029 387.42Z" fill="#3B82F6"/>
<path d="M510.949 348.218C510.949 348.218 517.206 385.075 519.707 406.425C521.39 420.794 533.099 435.787 546.555 440.209C560.011 444.63 572.779 446.698 572.779 446.698L574.504 499.151C574.504 499.151 529.063 511.387 497.138 491.314C481.175 481.279 472.247 466.131 467.256 450.897C462.713 437.032 461.275 419.723 461.221 403.628L465.716 359.689L510.949 348.218Z" fill="#3B82F6"/>
<path d="M483.574 267.741C461.179 265.559 442.573 281.347 439.535 303.742L440.053 314.085C440.053 314.085 436.381 361.387 437.353 363.1C438.326 364.811 454.127 369.147 473.785 368.168C493.443 367.19 509.152 365.321 510.127 364.587C510.41 364.373 519.501 356.028 519.393 344.706C519.132 317.235 504.885 271.116 504.885 270.595C504.885 270.244 495.584 268.91 483.574 267.741Z" fill="#2563EB"/>
<path d="M507.778 382.105C496.421 382.105 495.349 373.218 495.339 373.13C495.303 372.784 495.551 372.476 495.893 372.441C496.264 372.389 496.544 372.653 496.583 372.995C496.621 373.331 497.646 381.205 508.396 380.841C508.757 380.824 509.029 381.105 509.04 381.451C509.049 381.798 508.777 382.086 508.433 382.097C508.21 382.101 507.991 382.105 507.778 382.105Z" fill="white"/>
<path d="M521.819 440.836C521.616 440.836 521.409 440.815 521.203 440.777C520.117 440.566 519.704 439.929 519.551 439.432C518.515 436.132 526.288 427.855 527.857 426.23C528.045 426.038 528.337 425.98 528.578 426.102C528.823 426.22 528.962 426.481 528.925 426.751C528.868 427.187 527.476 437.486 523.776 440.161C523.156 440.61 522.499 440.836 521.819 440.836ZM527.355 428.606C524.077 432.236 520.195 437.309 520.741 439.055C520.778 439.167 520.86 439.43 521.44 439.543C521.999 439.653 522.521 439.52 523.046 439.143C525.253 437.547 526.696 432.099 527.355 428.606Z" fill="white"/>
<path d="M498.444 323.721C498.444 323.721 496.393 317.842 495.608 315.965C494.822 314.088 495.183 307.731 492.919 306.669C490.656 305.606 489.959 315.815 489.959 315.815C489.959 315.815 476.577 300.618 474.094 301.313C471.611 302.007 477.337 312.281 477.337 312.281C477.337 312.281 467.32 301.383 465.411 303.334C463.502 305.285 472.03 316.126 472.03 316.126C472.03 316.126 464.394 309.545 462.888 311.67C461.381 313.794 473.583 330.556 473.583 330.556C473.583 330.556 480.603 348.072 490.274 345.569C499.948 343.071 498.444 323.721 498.444 323.721Z" fill="#FC8165"/>
<path d="M347.332 281.637C347.08 281.637 346.841 281.484 346.749 281.231C346.627 280.908 346.787 280.544 347.111 280.422C347.387 280.316 352.94 278.223 358.557 277.298L356.872 276.83C356.539 276.738 356.344 276.392 356.438 276.058C356.528 275.722 356.876 275.528 357.207 275.62L361.952 276.937C362.244 277.019 362.438 277.301 362.406 277.606C362.375 277.911 362.13 278.148 361.827 278.168C355.526 278.591 347.633 281.565 347.554 281.595C347.481 281.624 347.405 281.637 347.332 281.637Z" fill="black"/>
<path d="M324.034 272.398H425.844L404.683 264.592H302.875L324.034 272.398Z" fill="#525252"/>
<path d="M323.606 276.682H425.844V272.398H323.606V276.682Z" fill="#A3A3A3"/>
<path d="M302.875 264.592V269.335L323.606 276.682V272.398L302.875 264.592Z" fill="#737373"/>
<path d="M404.683 264.593L385.476 210.87C385.237 210.201 384.604 209.754 383.896 209.754H288.969C287.847 209.754 287.041 210.838 287.36 211.917L302.874 264.591H404.683V264.593Z" fill="#A3A3A3"/>
<path d="M393.147 255.316L378.88 215.413C378.689 214.877 378.185 214.52 377.619 214.52H301.781C300.885 214.52 300.242 215.387 300.496 216.25L312.414 256.717C312.695 257.674 313.571 258.33 314.564 258.33H391.034C392.588 258.33 393.671 256.783 393.147 255.316Z" fill="white"/>
<path d="M504.885 270.595C504.885 270.595 534.767 282.742 552.814 312.063C569.457 339.106 569.781 362.906 541.598 369.837C513.415 376.771 485.203 349.327 485.203 349.327L499.856 319.573L506.513 322.172L504.885 270.595Z" fill="#2563EB"/>
<path d="M491.197 321.308C490.96 321.308 490.746 321.149 490.686 320.907L489.45 315.945C489.38 315.662 489.553 315.374 489.834 315.302C490.123 315.228 490.403 315.404 490.474 315.688L491.71 320.651C491.78 320.933 491.607 321.221 491.326 321.293C491.282 321.305 491.239 321.308 491.197 321.308Z" fill="black"/>
<path d="M473.936 318.827C473.791 318.827 473.645 318.768 473.541 318.648L471.637 316.477C471.446 316.257 471.464 315.923 471.683 315.731C471.9 315.538 472.233 315.557 472.426 315.777L474.33 317.948C474.521 318.167 474.502 318.502 474.284 318.694C474.184 318.784 474.061 318.827 473.936 318.827Z" fill="black"/>
<path d="M479.334 314.903C479.196 314.903 479.058 314.849 478.953 314.74L476.958 312.649C476.757 312.438 476.765 312.102 476.974 311.901C477.186 311.701 477.517 311.707 477.719 311.917L479.715 314.009C479.915 314.219 479.908 314.556 479.698 314.757C479.595 314.855 479.465 314.903 479.334 314.903Z" fill="black"/>
<path d="M539.286 331.794C539.17 331.794 539.056 331.763 538.951 331.696C525.885 323.412 506.522 320.203 506.328 320.172C505.986 320.118 505.755 319.795 505.812 319.453C505.865 319.11 506.189 318.879 506.527 318.934C506.724 318.966 526.334 322.212 539.621 330.636C539.911 330.821 539.999 331.209 539.814 331.503C539.696 331.691 539.494 331.794 539.286 331.794Z" fill="#1E40AF"/>
<path d="M535.039 326.342C531.236 326.342 526.478 325.592 524.541 324.957C524.285 324.872 524.114 324.635 524.11 324.369C524.107 324.099 524.274 323.861 524.526 323.769C524.997 323.601 536.15 319.64 539.724 323.104C540.673 324.022 540.469 324.735 540.265 325.077C539.704 326.008 537.587 326.342 535.039 326.342ZM526.998 324.292C531.613 325.223 538.627 325.409 539.19 324.432C539.179 324.432 539.143 324.284 538.852 324.003C536.792 322.01 530.756 323.202 526.998 324.292Z" fill="#7C4FD3"/>
<path d="M416.27 297.847C415.733 297.847 415.29 297.623 415.008 297.208C413.548 295.05 417.381 286.969 418.165 285.371C418.286 285.12 418.553 284.985 418.836 285.029C419.11 285.079 419.32 285.306 419.345 285.585C419.435 286.479 420.151 294.4 418.014 296.971C417.576 297.5 417.045 297.792 416.432 297.841C416.377 297.845 416.324 297.847 416.27 297.847ZM418.253 288.159C416.636 291.872 415.465 295.648 416.042 296.502C416.07 296.541 416.103 296.62 416.333 296.589C416.605 296.567 416.835 296.432 417.057 296.168C418.187 294.808 418.341 290.982 418.253 288.159Z" fill="#1E40AF"/>
<path d="M506.428 364.733C506.329 364.733 506.229 364.709 506.135 364.659C505.527 364.334 491.158 356.62 486.417 350.11C486.27 349.909 486.257 349.637 486.384 349.421C486.513 349.205 486.753 349.083 487.002 349.118C488.043 349.251 490.897 349.299 491.572 347.937C492.187 346.698 490.612 343.973 489.472 342.543C489.316 342.349 489.292 342.075 489.411 341.854C489.531 341.632 489.763 341.504 490.018 341.527C490.081 341.525 496.373 342.073 499.014 339.256C501.079 337.05 497.009 330.571 495.267 328.26C495.122 328.066 495.1 327.807 495.212 327.593C495.324 327.375 495.586 327.235 495.788 327.253C495.827 327.259 499.663 327.369 501.742 325.263C502.076 324.923 502.227 324.537 502.203 324.079C502.122 322.555 500.197 320.661 499.461 320.059C499.192 319.839 499.154 319.444 499.371 319.174C499.59 318.906 499.98 318.867 500.252 319.084C500.377 319.187 503.325 321.624 503.45 324.011C503.494 324.831 503.218 325.55 502.63 326.145C500.943 327.852 498.436 328.332 496.956 328.463C498.685 330.966 502.575 337.283 499.923 340.113C497.655 342.539 493.434 342.829 491.221 342.829C492.176 344.268 493.533 346.794 492.689 348.493C491.894 350.097 489.753 350.417 488.284 350.435C493.588 356.5 506.581 363.475 506.719 363.548C507.024 363.711 507.14 364.092 506.978 364.396C506.867 364.611 506.65 364.733 506.428 364.733Z" fill="#1E40AF"/>
<path d="M495.359 226.174C495.359 226.174 509.9 204.579 517.278 218.518C524.655 232.459 504.081 251.943 496.411 244.978C488.74 238.013 495.359 226.174 495.359 226.174Z" fill="black"/>
<path d="M489.387 257.275L488.858 273.181C488.858 273.181 486.296 275.086 478.179 275.474C472.134 275.764 470.096 274.089 470.096 274.089L472.192 260.476L486.915 257.737L489.387 257.275Z" fill="#FC8165"/>
<path d="M486.917 257.737C486.869 258.115 486.711 258.559 486.47 259.065C483.143 265.904 474.629 267.116 471.136 267.314L472.194 260.476L486.917 257.737Z" fill="black"/>
<path d="M470.162 228.693C470.162 228.693 462.321 245.874 464.861 255.653C467.401 265.431 476.253 264.057 481.567 262.272C486.881 260.486 489.389 257.279 489.389 257.279C489.389 257.279 494.291 259.047 497.673 254.5C501.054 249.952 499.117 244.625 496.323 243.362C493.529 242.098 490.143 244.08 490.143 244.08L492.858 239.094C492.858 239.094 482.27 213.32 470.162 228.693Z" fill="#FC8165"/>
<path d="M490.143 244.08C490.143 244.08 482.716 245.521 477.635 237.191C472.553 228.86 473.053 225.459 473.053 225.459L467.85 233.972C467.85 233.972 466.752 228.031 469.145 224.268C471.538 220.506 473.984 221.31 473.984 221.31L490.298 225.55L494.493 238.748L490.143 244.08Z" fill="black"/>
<path d="M470.572 250.777C470.305 250.777 470.062 250.603 469.983 250.335C468.874 246.589 471.534 242.825 471.648 242.668C471.845 242.391 472.227 242.328 472.505 242.528C472.779 242.728 472.842 243.112 472.645 243.389C472.619 243.424 470.228 246.825 471.16 249.984C471.258 250.311 471.07 250.655 470.745 250.751C470.69 250.768 470.629 250.777 470.572 250.777Z" fill="black"/>
<path d="M478.343 238.911C478.089 238.911 477.851 238.752 477.763 238.497C476.836 235.833 475.424 236.106 475.363 236.121C475.028 236.191 474.706 235.992 474.629 235.666C474.55 235.339 474.738 235.012 475.06 234.926C475.166 234.898 477.6 234.296 478.924 238.088C479.036 238.41 478.867 238.763 478.547 238.874C478.479 238.9 478.409 238.911 478.343 238.911Z" fill="black"/>
<path d="M467.487 236.156C467.438 236.156 467.384 236.151 467.335 236.136C467.007 236.053 466.811 235.718 466.891 235.39C466.926 235.251 467.263 234.019 468.335 233.598C469.041 233.324 469.829 233.474 470.691 234.039C470.975 234.226 471.054 234.608 470.87 234.893C470.68 235.181 470.303 235.257 470.02 235.072C469.669 234.843 469.163 234.595 468.786 234.745C468.37 234.906 468.137 235.484 468.081 235.693C468.012 235.972 467.761 236.156 467.487 236.156Z" fill="black"/>
<path d="M490.791 252.277C490.636 252.277 490.484 252.22 490.366 252.104C490.121 251.867 490.114 251.477 490.349 251.232L495.089 246.299C495.325 246.051 495.714 246.048 495.957 246.284C496.202 246.521 496.209 246.91 495.974 247.156L491.234 252.089C491.113 252.215 490.951 252.277 490.791 252.277Z" fill="black"/>
<path d="M495.764 250.997C495.731 250.997 495.699 250.993 495.665 250.99L492.429 250.461C492.095 250.406 491.867 250.09 491.924 249.754C491.977 249.419 492.28 249.192 492.628 249.244L495.863 249.772C496.198 249.827 496.426 250.143 496.369 250.48C496.321 250.781 496.062 250.997 495.764 250.997Z" fill="black"/>
<path d="M467.609 243.967C467.578 243.967 467.546 243.964 467.515 243.96C467.179 243.908 466.949 243.592 467.002 243.256L467.451 240.354L466.424 239.057C466.215 238.791 466.257 238.403 466.524 238.19C466.789 237.98 467.171 238.02 467.388 238.29L468.58 239.798C468.687 239.932 468.733 240.106 468.705 240.276L468.214 243.446C468.168 243.749 467.907 243.967 467.609 243.967Z" fill="black"/>
<path d="M477.006 244.804C476.588 244.753 476.353 244.442 476.397 244.104L476.785 241.228L475.249 239.681C475.01 239.441 475.01 239.049 475.249 238.809C475.492 238.569 475.88 238.571 476.119 238.811L477.87 240.574C478.004 240.71 478.069 240.902 478.045 241.093L477.616 244.272C477.574 244.581 477.309 244.804 477.006 244.804Z" fill="black"/>
<path d="M472.873 256.977C471.14 256.977 469.023 255.471 468.76 255.279C468.564 255.135 468.468 254.886 468.521 254.646C468.575 254.405 468.768 254.221 469.009 254.174L476.533 252.752C476.778 252.706 477.028 252.813 477.16 253.022C477.296 253.23 477.293 253.502 477.153 253.707C476.963 253.984 475.253 256.426 473.517 256.896C473.309 256.951 473.093 256.977 472.873 256.977ZM470.806 255.089C471.661 255.527 472.61 255.861 473.195 255.704C473.818 255.536 474.53 254.908 475.117 254.274L470.806 255.089Z" fill="black"/>
<path d="M316.057 219.316L325.485 252.279C325.647 252.846 326.238 253.306 326.802 253.306H373.228C373.791 253.306 374.119 252.846 373.957 252.279L364.529 219.316C364.365 218.747 363.775 218.285 363.212 218.285H316.786C316.223 218.285 315.895 218.747 316.057 219.316Z" fill="#D2D2DB"/>
<path d="M316.057 219.316L316.524 220.949H364.996L364.529 219.316C364.365 218.747 363.775 218.285 363.212 218.285H316.786C316.223 218.285 315.895 218.747 316.057 219.316Z" fill="#E4E4EA"/>
<path d="M332.585 233.851H325.579L323.565 226.814H330.571L332.585 233.851Z" fill="white"/>
<path d="M335.033 242.41H328.025L326.013 235.373H333.019L335.033 242.41Z" fill="white"/>
<path d="M337.379 250.969H330.372L328.36 243.932H335.365L337.379 250.969Z" fill="white"/>
<path d="M361.759 230.034H333.578L333.278 228.984H361.459L361.759 230.034Z" fill="#1E40AF"/>
<path d="M364.207 238.593H336.026L335.726 237.543H363.907L364.207 238.593Z" fill="#1E40AF"/>
<path d="M328.375 232.761L325.079 230.8L325.63 229.864L327.994 231.268L329.662 228.432L330.596 228.986L328.375 232.761Z" fill="#1E40AF"/>
<path d="M330.99 241.29L327.694 239.33L328.246 238.393L330.607 239.799L332.277 236.962L333.212 237.516L330.99 241.29Z" fill="#1E40AF"/>
<path d="M478.082 282.672C477.846 282.672 477.605 282.659 477.361 282.629C475.657 282.428 474.41 281.75 473.653 280.617C472.987 279.618 472.843 278.459 472.867 277.562C471.151 278.707 468.196 280.39 466.629 279.618C466.207 279.409 465.92 279.051 465.801 278.581C465.345 276.8 467.486 273.606 467.92 272.983C468.102 272.719 468.455 272.64 468.729 272.791C468.845 272.852 480.298 278.951 490.91 271.125C491.074 271.005 491.282 270.97 491.473 271.034C491.664 271.095 491.815 271.247 491.876 271.439C492.032 271.923 493.333 276.215 490.846 277.406C489.1 278.243 487.232 277.179 486.288 276.479C485.284 278.228 482.314 282.672 478.082 282.672ZM474.214 275.91C474.296 276.052 474.324 276.226 474.276 276.392C474.271 276.412 473.724 278.474 474.697 279.924C475.242 280.735 476.187 281.227 477.508 281.382C481.85 281.89 485.054 276.165 485.49 275.332C481.295 276.693 477.305 276.508 474.214 275.91ZM468.65 274.146C467.769 275.513 466.805 277.456 467.011 278.267C467.046 278.4 467.105 278.452 467.18 278.489C468.207 278.997 471.431 277.131 473.298 275.723C471.092 275.202 469.441 274.511 468.65 274.146ZM486.457 274.99C486.485 275.008 486.511 275.029 486.535 275.053C486.557 275.073 488.668 277.057 490.311 276.27C491.313 275.79 491.166 273.915 490.905 272.666C489.422 273.671 487.931 274.43 486.457 274.99Z" fill="#1E40AF"/>
<path d="M439.601 330.871C439.239 330.86 438.966 330.571 438.976 330.224L439.424 314.197C439.056 313.27 437.066 307.805 437.898 300.018C439.143 288.355 446.719 283.59 447.041 283.394C447.335 283.211 447.719 283.311 447.9 283.603C448.08 283.899 447.986 284.285 447.694 284.466C447.62 284.51 440.318 289.131 439.143 300.151C438.282 308.208 440.607 313.778 440.631 313.833C440.666 313.916 440.682 314.007 440.681 314.099L440.228 330.259C440.215 330.601 439.939 330.871 439.601 330.871Z" fill="#1E40AF"/>
<path d="M475.512 458.932C472.509 458.932 470.178 458.428 469.961 458.38C469.625 458.304 469.413 457.968 469.487 457.63C469.564 457.292 469.89 457.085 470.234 457.153C470.348 457.183 481.628 459.61 486.432 453.506C487.907 451.633 488.505 449.82 488.212 448.121C487.763 445.532 485.367 444.003 485.341 443.988C485.183 443.886 485.074 443.72 485.052 443.533C485.028 443.345 485.091 443.158 485.22 443.022C485.313 442.924 494.454 433.055 488.635 422.513C486.851 419.284 484.545 417.268 481.778 416.527C477.362 415.345 473.244 417.794 473.206 417.818C472.991 417.944 472.724 417.939 472.523 417.794C472.321 417.652 472.222 417.403 472.27 417.157C472.659 415.178 473.314 409.645 471.69 407.842C471.3 407.41 470.822 407.245 470.158 407.299C465.551 407.744 461.554 413.874 461.516 413.937C461.328 414.229 460.942 414.312 460.651 414.124C460.362 413.935 460.28 413.549 460.465 413.255C460.64 412.984 464.826 406.554 470.039 406.052C471.074 405.947 471.968 406.281 472.615 407.003C474.458 409.049 474.037 413.843 473.702 416.167C475.36 415.435 478.609 414.377 482.1 415.315C485.207 416.148 487.771 418.365 489.726 421.903C495.188 431.796 488.475 441.058 486.59 443.347C487.465 444.053 489.04 445.605 489.441 447.894C489.803 449.965 489.121 452.115 487.412 454.286C484.423 458.082 479.406 458.932 475.512 458.932Z" fill="white"/>
<path d="M516.667 487.902C511.122 487.904 507.063 480.132 506.079 478.062C504.326 478.476 498.602 479.559 494.51 477.113C492.474 475.895 491.155 473.989 490.587 471.443C490.026 468.919 490.41 466.865 491.729 465.339C493.914 462.812 498.039 462.505 499.91 462.505C499.564 460.641 498.836 456.175 501.118 453.914C502.577 452.464 504.944 452.209 508.153 453.162C509.189 451.703 513.079 446.975 519.498 448.071C521.179 448.359 522.376 449.183 523.055 450.513C524.695 453.737 522.678 459.041 521.865 460.918C523.991 461.583 530.198 463.807 531.615 467.454C532.148 468.825 531.968 470.235 531.081 471.643C527.894 476.706 522.985 477.011 520.807 476.845C521.462 478.713 522.589 482.755 521.186 485.423C520.518 486.696 519.376 487.494 517.794 487.797C517.412 487.867 517.037 487.902 516.667 487.902ZM506.428 476.695C506.671 476.695 506.899 476.838 507 477.072C507.044 477.179 511.683 487.706 517.559 486.561C518.764 486.33 519.59 485.765 520.079 484.833C521.637 481.872 519.297 476.398 519.273 476.342C519.179 476.126 519.216 475.873 519.365 475.692C519.514 475.511 519.744 475.421 519.985 475.48C520.239 475.535 526.329 476.827 530.022 470.968C530.693 469.902 530.833 468.901 530.447 467.909C528.997 464.173 520.912 461.941 520.829 461.919C520.649 461.871 520.5 461.742 520.423 461.572C520.346 461.4 520.349 461.204 520.432 461.036C520.465 460.97 523.629 454.404 521.936 451.08C521.44 450.108 520.574 449.526 519.282 449.305C512.654 448.157 509.095 453.968 508.946 454.215C508.797 454.467 508.492 454.576 508.218 454.491C505.256 453.537 503.167 453.641 501.992 454.803C499.66 457.112 501.392 462.917 501.411 462.974C501.469 463.172 501.429 463.39 501.298 463.552C501.17 463.713 500.96 463.809 500.763 463.785C500.71 463.778 495.067 463.377 492.665 466.161C491.624 467.369 491.332 469.052 491.802 471.166C492.29 473.363 493.414 474.998 495.142 476.032C499.461 478.613 506.181 476.74 506.251 476.718C506.314 476.703 506.371 476.695 506.428 476.695Z" fill="white"/>
<path d="M545.981 453.681C544.75 453.681 543.566 453.41 542.49 452.752C536.365 449.015 538.576 437.104 538.673 436.6C538.74 436.262 539.061 436.04 539.405 436.101C539.746 436.167 539.966 436.496 539.9 436.836C539.876 436.952 537.754 448.394 543.139 451.679C548.495 454.943 557.932 446.458 558.028 446.373C558.166 446.249 558.35 446.184 558.532 446.218C558.716 446.242 558.877 446.347 558.975 446.504C558.999 446.541 561.3 450.138 564.862 450.404C567.298 450.591 569.799 449.201 572.306 446.286C572.536 446.022 572.931 445.998 573.187 446.221C573.45 446.447 573.477 446.844 573.251 447.106C570.467 450.345 567.614 451.891 564.761 451.657C561.495 451.407 559.231 448.93 558.339 447.768C556.593 449.247 550.941 453.68 545.981 453.681Z" fill="white"/>
<path d="M562.063 502.131C561.704 502.122 561.43 501.836 561.438 501.488C561.438 501.468 561.416 499.07 558.326 496.166C555.887 493.871 549.9 497.699 547.8 499.369C547.64 499.493 547.426 499.541 547.226 499.477C547.031 499.416 546.876 499.26 546.814 499.063C546.716 498.752 544.37 491.468 536.341 491.019C528.284 490.553 523.476 501.185 523.428 501.293C523.286 501.61 522.917 501.747 522.602 501.61C522.288 501.468 522.146 501.099 522.286 500.781C522.49 500.321 527.283 489.751 535.828 489.751C536.021 489.751 536.214 489.757 536.409 489.768C543.652 490.173 546.766 495.758 547.693 497.884C549.762 496.382 556.034 492.294 559.179 495.251C562.716 498.575 562.688 501.402 562.687 501.52C562.679 501.86 562.402 502.131 562.063 502.131Z" fill="white"/>
<path d="M514.666 424.386C514.535 424.386 514.403 424.382 514.27 424.373C512.674 424.279 511.512 423.7 510.815 422.649C509.888 421.256 510.066 419.398 510.292 418.3C507.276 418.518 497.853 418.551 496.235 410.633C494.57 402.477 503.09 396.914 505.525 395.508C504.547 393.873 503.732 391.007 505.994 388.809C509.174 385.718 517.622 393.147 518.574 394.004C518.832 394.235 518.852 394.632 518.622 394.889C518.394 395.15 517.995 395.17 517.741 394.937C514.478 392.005 508.633 387.992 506.864 389.711C504.454 392.053 506.823 395.21 506.923 395.342C507.037 395.489 507.079 395.682 507.039 395.863C506.998 396.046 506.879 396.201 506.713 396.286C506.603 396.341 495.755 402.026 497.462 410.38C499.146 418.631 510.916 416.985 511.033 416.966C511.249 416.926 511.466 417.018 511.607 417.186C511.745 417.356 511.787 417.585 511.718 417.792C511.708 417.818 510.835 420.416 511.857 421.955C512.326 422.657 513.163 423.048 514.344 423.118C519.091 423.338 522.271 417.214 522.302 417.151C522.459 416.841 522.836 416.715 523.141 416.876C523.45 417.033 523.572 417.41 523.415 417.718C523.274 417.999 519.987 424.386 514.666 424.386Z" fill="white"/>
<path d="M467.188 451.526C466.204 451.526 456.985 451.321 456.073 443.838C455.269 437.259 459.056 430.361 460.173 428.499C457.955 426.594 448.312 417.639 451.087 408.175C454.105 397.879 461.56 393.799 461.876 393.631C462.179 393.465 462.557 393.583 462.72 393.89C462.882 394.197 462.766 394.577 462.463 394.74C462.389 394.779 455.148 398.762 452.286 408.529C449.457 418.175 461.262 427.78 461.379 427.876C461.631 428.077 461.688 428.44 461.512 428.709C461.462 428.787 456.45 436.616 457.313 443.687C458.135 450.428 467.133 450.271 467.239 450.271C467.589 450.262 467.87 450.535 467.881 450.883C467.89 451.23 467.616 451.518 467.272 451.527C467.267 451.526 467.239 451.526 467.188 451.526Z" fill="#E5E5E5"/>
<path d="M462.689 534.514C458.451 534.514 454.067 530.342 452.746 528.977C451.032 530.217 444.972 534.349 441.284 533.45C440.193 533.186 439.393 532.528 438.898 531.491C436.678 526.83 442.52 521.761 444.869 519.97C442.641 518.884 437.721 515.694 437.699 508.706C437.694 507.107 438.255 505.793 439.362 504.806C441.839 502.604 446.362 502.711 447.986 502.832C448.417 500.596 450.324 492.887 456.141 492.51C457.489 492.43 458.668 492.859 459.616 493.803C462.286 496.474 462.365 502.551 462.319 504.491C464.593 504.775 472.659 506.05 475.1 509.998C475.937 511.352 476.047 512.871 475.424 514.508C473.132 520.543 468.722 521.242 466.572 521.179C467.821 523.804 470.443 530.605 465.832 533.594C464.828 534.246 463.763 534.514 462.689 534.514ZM452.821 527.514C452.993 527.514 453.164 527.584 453.287 527.721C453.359 527.802 460.443 535.596 465.152 532.541C469.829 529.507 464.997 520.839 464.949 520.752C464.826 520.536 464.843 520.266 464.992 520.067C465.139 519.869 465.394 519.775 465.635 519.83C465.873 519.891 471.571 521.123 474.254 514.06C474.738 512.789 474.666 511.677 474.037 510.659C471.572 506.672 461.711 505.682 461.611 505.671C461.275 505.64 461.028 505.346 461.047 505.01C461.05 504.934 461.464 497.426 458.731 494.692C458.038 494.001 457.225 493.698 456.219 493.76C450.559 494.128 449.132 503.504 449.119 503.598C449.071 503.936 448.783 504.184 448.424 504.13C448.372 504.125 442.754 503.461 440.19 505.747C439.351 506.493 438.944 507.461 438.948 508.703C438.974 516.76 446.022 519.134 446.322 519.23C446.55 519.304 446.717 519.501 446.748 519.74C446.783 519.978 446.677 520.214 446.48 520.347C446.391 520.407 437.793 526.263 440.024 530.948C440.351 531.635 440.859 532.055 441.575 532.227C444.606 532.953 450.445 529.164 452.441 527.639C452.555 527.554 452.687 527.514 452.821 527.514Z" fill="#E5E5E5"/>
<path d="M424.008 491.418C422.754 491.418 421.369 491.222 419.855 490.83C419.52 490.743 419.32 490.402 419.406 490.065C419.495 489.727 419.837 489.533 420.168 489.614C424.019 490.616 426.886 490.248 428.687 488.524C432.207 485.155 430.706 477.641 430.69 477.567C430.653 477.388 430.696 477.205 430.806 477.061C430.914 476.917 431.078 476.826 431.258 476.813C431.617 476.786 440.059 476.058 442.277 466.604C444.481 457.215 433.423 452.739 432.95 452.554C432.783 452.488 432.652 452.353 432.592 452.183C432.531 452.013 432.546 451.826 432.63 451.667C432.649 451.636 434.253 448.66 433.425 445.879C432.994 444.435 431.966 443.271 430.37 442.424C429.421 441.92 428.435 441.85 427.372 442.216C422.744 443.792 418.619 452.704 418.579 452.792C418.433 453.11 418.064 453.249 417.751 453.101C417.436 452.957 417.3 452.584 417.444 452.27C417.62 451.882 421.836 442.776 426.971 441.028C428.363 440.555 429.702 440.651 430.957 441.314C432.862 442.327 434.096 443.745 434.626 445.53C435.363 448.022 434.512 450.529 434.023 451.658C436.515 452.833 445.63 457.803 443.497 466.894C441.444 475.64 434.282 477.576 432.031 477.972C432.342 480.009 432.947 486.184 429.552 489.435C428.167 490.754 426.313 491.418 424.008 491.418Z" fill="#E5E5E5"/>
<path d="M421.904 423.091C421.744 423.091 421.58 423.087 421.416 423.078C421.071 423.061 420.806 422.768 420.824 422.422C420.843 422.077 421.085 421.779 421.479 421.827C423.541 421.92 425.235 421.286 426.518 419.924C430.537 415.668 429.579 405.782 429.568 405.682C429.538 405.399 429.704 405.13 429.971 405.028C430.158 404.956 434.624 403.199 435.889 397.173C437.125 391.287 430.009 388.026 429.938 387.993C429.621 387.852 429.48 387.481 429.619 387.165C429.761 386.847 430.129 386.71 430.443 386.845C430.524 386.882 438.556 390.548 437.111 397.431C435.928 403.081 432.157 405.372 430.852 406.009C431.006 408.099 431.365 416.612 427.429 420.785C425.983 422.319 424.126 423.091 421.904 423.091Z" fill="#E5E5E5"/>
<path d="M479.586 473.928C479.399 473.928 479.215 473.843 479.089 473.682C456.206 443.833 459.829 409.322 461.777 390.782C461.904 389.58 462.023 388.444 462.126 387.387L446 386.469C445.654 386.448 445.393 386.153 445.413 385.807C445.431 385.462 445.667 385.151 446.071 385.218L462.845 386.173C463.015 386.182 463.173 386.262 463.283 386.389C463.395 386.518 463.447 386.688 463.43 386.858C463.314 388.102 463.171 389.456 463.016 390.915C461.087 409.281 457.497 443.465 480.077 472.919C480.287 473.193 480.237 473.586 479.961 473.8C479.853 473.885 479.719 473.928 479.586 473.928Z" fill="white"/>
<path d="M343.872 519.527H206.199C200.994 519.527 196.775 515.289 196.775 510.059V325.284C196.775 320.055 200.994 315.815 206.199 315.815H343.872C349.077 315.815 353.298 320.053 353.298 325.284V510.06C353.296 515.289 349.077 519.527 343.872 519.527Z" fill="#DBEAFE"/>
<path d="M239.232 367.722H212.879C210.981 367.722 209.442 366.176 209.442 364.269V337.799C209.442 335.892 210.981 334.346 212.879 334.346H239.232C241.13 334.346 242.669 335.892 242.669 337.799V364.269C242.669 366.176 241.13 367.722 239.232 367.722Z" fill="white"/>
<path d="M239.232 418.932H212.879C210.981 418.932 209.442 417.386 209.442 415.479V389.008C209.442 387.102 210.981 385.556 212.879 385.556H239.232C241.13 385.556 242.669 387.102 242.669 389.008V415.479C242.669 417.388 241.13 418.932 239.232 418.932Z" fill="white"/>
<path d="M239.232 470.142H212.879C210.981 470.142 209.442 468.596 209.442 466.689V440.219C209.442 438.312 210.981 436.766 212.879 436.766H239.232C241.13 436.766 242.669 438.312 242.669 440.219V466.689C242.669 468.598 241.13 470.142 239.232 470.142Z" fill="white"/>
<path d="M225.34 361.88L214.897 351.272L218.82 347.374L224.82 353.469L233.065 342.703L237.437 346.084L225.34 361.88Z" fill="#1E40AF"/>
<path d="M225.34 413.09L214.897 402.482L218.82 398.586L224.82 404.679L233.065 393.915L237.437 397.296L225.34 413.09Z" fill="#1E40AF"/>
<path d="M225.34 464.301L214.897 453.692L218.82 449.796L224.82 455.889L233.065 445.124L237.437 448.505L225.34 464.301Z" fill="#1E40AF"/>
<path d="M331.121 339.512L258.125 339.986L258.161 345.529L331.157 345.055L331.121 339.512Z" fill="#1E40AF"/>
<path d="M312.229 354.833L258.124 355.185L258.16 360.727L312.265 360.375L312.229 354.833Z" fill="#1E40AF"/>
<path d="M314.314 390.544L260.209 390.895L260.245 396.437L314.35 396.086L314.314 390.544Z" fill="white"/>
<path d="M331.121 405.635L260.208 406.096L260.245 411.638L331.157 411.178L331.121 405.635Z" fill="white"/>
<path d="M333.202 441.337L260.208 441.812L260.244 447.354L333.238 446.88L333.202 441.337Z" fill="white"/>
<path d="M314.312 456.658L260.207 457.01L260.243 462.552L314.348 462.201L314.312 456.658Z" fill="white"/>
<path d="M220.277 71.1879H52.5308V34.6098C52.5308 29.6438 56.5385 25.6182 61.4824 25.6182H191.337C207.32 25.6182 220.277 38.6336 220.277 54.6882V71.1879Z" fill="white"/>
<path d="M93.9635 60.1422C92.4609 60.3048 91.0318 60.3879 89.6818 60.3879C88.3318 60.3879 87.4563 60.3067 87.0609 60.1422C86.6636 59.9778 86.4668 59.721 86.4668 59.37V37.1135C86.4668 36.5057 86.7702 36.0734 87.3754 35.8147C87.9805 35.5561 89.1226 35.4286 90.8 35.4286H103.765C104.254 35.4286 104.499 36.3117 104.499 38.0779C104.499 39.8459 104.387 41.1909 104.166 42.1146C103.943 43.0383 103.66 43.5002 103.309 43.5002L96.2148 43.1492V45.5361C99.3139 45.3957 101.389 45.3255 102.437 45.3255C102.786 45.3255 103.024 45.5139 103.152 45.8871C103.281 46.2622 103.346 46.9808 103.346 48.045C103.346 49.111 103.228 50.1289 102.996 51.0989C102.762 52.0706 102.437 52.5565 102.018 52.5565L96.2166 52.3459V59.3663C96.2166 59.721 95.4662 59.9778 93.9635 60.1422Z" fill="#1E40AF"/>
<path d="M118.756 60.7018C116.823 60.7018 115.163 60.5207 113.778 60.1586C112.391 59.7965 111.116 59.1462 109.95 58.2095C107.598 56.3621 106.421 52.8168 106.421 47.5736C106.421 45.3751 106.743 43.4556 107.381 41.8169C108.023 40.1782 108.913 38.8794 110.055 37.9206C112.291 36.0491 115.192 35.1124 118.756 35.1124C120.598 35.1124 122.199 35.2768 123.562 35.6039C124.923 35.9327 126.211 36.5276 127.423 37.3941C129.869 39.1713 131.092 42.5651 131.092 47.5736C131.092 52.0667 129.985 55.3792 127.772 57.5075C125.56 59.6376 122.553 60.7018 118.756 60.7018ZM117.603 54.6827C117.883 55.0226 118.267 55.1908 118.756 55.1908C119.248 55.1908 119.632 55.0208 119.91 54.6827C120.189 54.3428 120.423 53.6186 120.61 52.5064C120.796 51.3942 120.888 49.846 120.888 47.8544C120.888 45.8666 120.794 44.3332 120.61 43.2561C120.423 42.179 120.189 41.4788 119.91 41.15C119.632 40.823 119.248 40.6585 118.756 40.6585C118.267 40.6585 117.883 40.823 117.603 41.15C117.325 41.4788 117.092 42.1809 116.904 43.2561C116.717 44.3332 116.627 45.8666 116.627 47.8544C116.627 49.8442 116.719 51.3942 116.904 52.5064C117.092 53.6186 117.325 54.3428 117.603 54.6827Z" fill="#1E40AF"/>
<path d="M143.151 59.3697C143.151 59.6746 142.439 59.9184 141.019 60.1069C139.599 60.2935 138.17 60.3877 136.739 60.3877C135.306 60.3877 134.387 60.3064 133.978 60.142C133.57 59.9776 133.366 59.7208 133.366 59.3697V36.7973C133.366 36.1895 134.129 35.7572 135.656 35.4985C137.18 35.2417 139.108 35.1124 141.44 35.1124C143.768 35.1124 145.277 35.1198 145.965 35.1309C146.652 35.142 147.46 35.1826 148.392 35.2528C149.325 35.323 150.064 35.4413 150.612 35.6039C151.159 35.7683 151.765 35.9789 152.428 36.2357C153.092 36.4925 153.612 36.8269 153.984 37.237C154.357 37.6472 154.717 38.1312 155.067 38.6928C155.698 39.6997 156.012 41.1333 156.012 42.9937C156.012 44.8541 155.703 46.4227 155.085 47.6974C154.467 48.974 153.647 49.9384 152.621 50.5943C155.301 54.8287 156.641 57.5223 156.641 58.6677C156.641 59.815 154.346 60.3877 149.757 60.3877C148.429 60.3877 147.508 60.3304 146.996 60.2122C146.485 60.0958 146.158 59.839 146.018 59.44L143.748 52.2108L143.154 52.1757V59.3697H143.151ZM143.151 46.7663H144.059C145.409 46.7663 146.086 45.7132 146.086 43.6071C146.086 42.53 145.906 41.7707 145.545 41.3255C145.183 40.8802 144.769 40.6585 144.304 40.6585H143.151V46.7663Z" fill="#1E40AF"/>
<path d="M163.767 60.3857C163.186 60.3857 162.341 60.3857 161.234 60.3857C160.127 60.3857 159.375 60.3044 158.979 60.14C158.582 59.9755 158.385 59.7187 158.385 59.3677V37.2184C158.385 36.6807 159.103 36.254 160.535 35.9381C161.966 35.6221 163.498 35.4633 165.13 35.4633C166.761 35.4633 167.925 35.6739 168.624 36.0951C169.323 36.5163 169.732 36.9616 169.847 37.429L172.224 46.6959H172.538L174.775 37.8502C174.938 37.2184 175.702 36.6623 177.063 36.1838C178.426 35.7053 179.925 35.4633 181.554 35.4633C183.184 35.4633 184.39 35.5926 185.17 35.8494C185.952 36.1062 186.342 36.4332 186.342 36.8322V59.3677C186.342 59.6725 185.678 59.9164 184.35 60.1049C183.022 60.2915 181.402 60.3857 179.492 60.3857C177.581 60.3857 176.625 60.0457 176.625 59.3677C176.625 57.5202 176.824 54.2317 177.219 49.5041H176.905L175.087 58.6657C175.018 59.0167 174.732 59.2753 174.232 59.4379C173.73 59.6023 172.978 59.6836 171.977 59.6836C170.975 59.6836 170.362 59.6134 170.142 59.473C169.921 59.3326 169.776 59.0647 169.706 58.6657L167.819 49.5041H167.504C167.924 54.326 168.133 57.6126 168.133 59.3677C168.135 59.9774 166.68 60.3155 163.767 60.3857Z" fill="#1E40AF"/>
<path d="M438.681 150.762L439.362 145.75C439.342 145.734 517.991 48.3532 517.991 48.3532C519.729 46.2027 522.965 45.9478 525.22 47.786C527.474 49.6243 527.894 52.8573 526.156 55.0078L447.506 152.388C447.486 152.371 442.744 154.073 442.744 154.073L439.154 155.361C438.643 155.544 438.095 155.098 438.168 154.557L438.681 150.762Z" fill="#1E40AF"/>
<path d="M509.672 80.9262C509.358 80.9262 509.043 80.8135 508.791 80.5863C508.254 80.0986 508.216 79.2654 508.699 78.7259C508.808 78.6077 519.487 66.7395 523.421 60.5117C526.66 55.3812 522.508 52.2387 522.025 51.8969C521.434 51.4812 521.287 50.6628 521.697 50.0661C522.109 49.473 522.92 49.3197 523.514 49.7317C525.876 51.3648 529.361 56.0149 525.631 61.9213C521.58 68.3394 511.085 80.0007 510.642 80.4939C510.386 80.7803 510.029 80.9262 509.672 80.9262Z" fill="#A3A3A3"/>
<path d="M443.673 143.563C443.585 143.563 443.497 143.533 443.423 143.474C443.252 143.335 443.228 143.084 443.366 142.914L458.221 124.521C458.358 124.351 458.61 124.323 458.779 124.463C458.948 124.602 458.974 124.853 458.836 125.023L443.98 143.417C443.903 143.511 443.789 143.563 443.673 143.563Z" fill="white"/>
</svg>
