<svg width="630" height="649" viewBox="0 0 630 649" fill="none" xmlns="http://www.w3.org/2000/svg">
<path d="M518.587 525.053H569.353V508.895H518.587V525.053Z" fill="#DBEAFE"/>
<path d="M210.047 264.615H260.813V248.458H210.047V264.615Z" fill="#DBEAFE"/>
<path d="M546.906 545.425C555.337 545.282 576.955 544.923 585.093 544.829L597.671 544.767L597.012 545.425L596.949 529.268L597.669 529.988C589.24 529.962 567.741 529.884 559.596 529.768L546.906 529.61L547.248 529.268L546.906 545.425ZM546.906 545.425L546.564 529.268L546.556 528.93L546.906 528.926C553.239 528.842 565.957 528.696 572.288 528.646L597.671 528.547L598.396 528.545L598.393 529.268L598.329 545.425L598.326 546.087L597.671 546.084L584.866 546.022C576.779 545.932 555.257 545.568 546.906 545.425Z" fill="#DBEAFE"/>
<path d="M305.506 424.98C313.937 424.837 335.556 424.477 343.694 424.384L356.271 424.322L355.613 424.98L355.549 408.823L356.27 409.543C347.84 409.517 326.341 409.439 318.197 409.322L305.506 409.165L305.848 408.823L305.506 424.98ZM305.506 424.98L305.164 408.823L305.157 408.485L305.506 408.48C311.839 408.397 324.559 408.251 330.889 408.2L356.271 408.102L356.995 408.099L356.992 408.823L356.928 424.98L356.925 425.641L356.27 425.638L343.465 425.576C335.378 425.488 313.858 425.123 305.506 424.98Z" fill="#DBEAFE"/>
<path d="M333.824 445.353C342.255 445.211 363.874 444.851 372.012 444.757L384.59 444.695L383.931 445.353L383.868 429.196L384.588 429.917C376.159 429.891 354.659 429.813 346.515 429.696L333.824 429.538L334.167 429.196L333.824 445.353ZM333.824 445.353L333.482 429.196L333.475 428.858L333.824 428.854C340.157 428.77 352.877 428.624 359.207 428.574L384.59 428.476L385.313 428.473L385.31 429.196L385.247 445.353L385.244 446.015L384.588 446.012L371.784 445.95C363.696 445.862 342.176 445.496 333.824 445.353Z" fill="#DBEAFE"/>
<path d="M362.03 424.98H412.796V408.823H362.03V424.98Z" fill="#DBEAFE"/>
<path d="M0.349846 545.426H51.115V529.268H0.349846V545.426Z" fill="#DBEAFE"/>
<path d="M28.6677 26.5942L79.4329 26.5942V10.4368L28.6677 10.4368V26.5942Z" fill="#DBEAFE"/>
<path d="M0.349428 46.9672L25.9067 46.5441L38.5366 46.3709L51.1146 46.3088L50.4561 46.9672L50.3926 30.8098L51.1131 31.5303L25.7306 31.4321L13.04 31.3094L0.350871 31.152L0.693078 30.8098L0.349428 46.9672ZM0.349428 46.9672L0.00722111 30.8098L0 30.4705L0.350871 30.4662L13.0414 30.3088L25.732 30.186L51.1146 30.0878L51.838 30.085L51.8351 30.8098L51.7716 46.9672L51.7687 47.6285L51.1131 47.6256L38.3085 47.5636L25.5558 47.3903L0.349428 46.9672Z" fill="#DBEAFE"/>
<path d="M518.588 26.5937L544.145 26.1706L556.775 25.9973L569.353 25.9353L568.695 26.5937L568.631 10.4363L569.352 11.1568L543.969 11.0586L531.278 10.9359L518.588 10.7785L518.93 10.4363L518.588 26.5937ZM518.588 26.5937L518.246 10.4363L518.238 10.097L518.588 10.0926L531.278 9.93523L543.969 9.8125L569.352 9.71431L570.076 9.71143L570.073 10.4348L570.01 26.5922L570.007 27.2535L569.352 27.2507L556.547 27.1886L543.794 27.0153L518.588 26.5937Z" fill="#DBEAFE"/>
<path d="M417.464 582.95H586.063L591.485 475.969H412.041L417.464 582.95Z" fill="#DBEAFE"/>
<path d="M423.874 488.458H575.388L573.088 524.282H425.845L423.874 488.458Z" stroke="#BAE6FD" stroke-miterlimit="10"/>
<path d="M428.515 534.801L430.118 567.01H571.075L573.088 534.801H428.515Z" stroke="#BAE6FD" stroke-miterlimit="10"/>
<path d="M515.961 509.739H485.642L484.656 502.098H516.947L515.961 509.739Z" stroke="#BAE6FD" stroke-miterlimit="10"/>
<path d="M515.961 554.725H485.642L484.656 547.084H516.947L515.961 554.725Z" stroke="#BAE6FD" stroke-miterlimit="10"/>
<path d="M440.846 582.95L439.209 594.604L435.916 618.021H429.477V582.95H440.846Z" fill="#DBEAFE"/>
<path d="M440.846 582.95L439.209 594.604H429.477V582.95H440.846Z" fill="#BAE6FD"/>
<path d="M562.682 582.95L564.318 594.604L567.611 618.021H574.05V582.95H562.682Z" fill="#DBEAFE"/>
<path d="M562.682 582.95L564.318 594.604H574.05V582.95H562.682Z" fill="#BAE6FD"/>
<path d="M600.397 1.28467H359.181V208.689H600.397V1.28467Z" stroke="#DBEAFE" stroke-miterlimit="10"/>
<path d="M370.559 8.55342C370.559 10.1836 369.238 11.5048 367.608 11.5048C365.978 11.5048 364.656 10.1836 364.656 8.55342C364.656 6.92324 365.978 5.60205 367.608 5.60205C369.238 5.60061 370.559 6.92179 370.559 8.55342Z" fill="#7DD3FC"/>
<path d="M382.613 8.55342C382.613 10.1836 381.292 11.5048 379.661 11.5048C378.031 11.5048 376.71 10.1836 376.71 8.55342C376.71 6.92324 378.031 5.60205 379.661 5.60205C381.292 5.60061 382.613 6.92179 382.613 8.55342Z" fill="#DBEAFE"/>
<path d="M394.665 8.55342C394.665 10.1836 393.344 11.5048 391.714 11.5048C390.084 11.5048 388.763 10.1836 388.763 8.55342C388.763 6.92324 390.084 5.60205 391.714 5.60205C393.344 5.60061 394.665 6.92179 394.665 8.55342Z" fill="#1E40AF"/>
<path d="M359.181 15.7512H600.397" stroke="#DBEAFE" stroke-miterlimit="10"/>
<path d="M518.247 457.765C519.428 465.853 518.987 474.194 517.015 482.111C516.09 485.818 514.817 489.391 513.285 492.874C511.349 497.329 509.325 501.678 509.813 506.551C510.284 506.866 508.669 506.814 508.617 506.34C495.593 498.926 478.891 497.567 468.868 485.442C464.12 479.701 461.726 472.424 460.59 465.147C459.357 457.222 459.015 448.448 461.059 440.636C462.782 434.03 466.643 427.658 472.85 424.421C479.258 421.089 487.65 421.366 494.396 423.461C508.951 427.982 516.188 443.687 518.247 457.765Z" fill="#1E40AF"/>
<path d="M524.932 554.179C523.153 548.254 521.379 542.33 519.553 536.42C515.98 524.844 512.265 513.311 508.152 501.915C505.689 495.088 503.091 488.327 500.357 481.632C500.823 477.426 501.006 473.234 501.912 469.042C503 463.993 504.583 459.116 506.056 454.174C506.147 453.871 505.654 453.711 505.53 454C502.606 460.808 498.79 469.517 498.695 477.582C495.515 470.006 492.116 462.532 488.459 455.175C488.252 448.903 488.023 442.825 489.032 436.514C489.077 436.229 488.645 436.146 488.593 436.429C487.614 441.728 486.925 447.411 487.318 452.902C484.518 447.375 481.57 441.914 478.431 436.538C478.148 436.055 477.478 436.55 477.726 437.027C482.621 446.451 487.161 456.073 491.42 465.823C485.52 460.59 478.376 456.629 471 453.997C470.676 453.881 470.432 454.351 470.762 454.489C479.156 457.998 486.203 462.958 492.848 469.112C495.911 476.25 498.826 483.453 501.603 490.701C493.453 482.712 482.302 477.456 471.514 474.638C471.146 474.542 471.05 475.104 471.403 475.211C483.887 478.969 493.585 486.047 503.078 494.549C504.182 497.482 505.265 500.42 506.326 503.363C510.349 514.524 514.16 525.761 517.816 537.048C519.569 542.458 521.293 547.877 522.987 553.306C524.809 559.147 526.233 565.314 528.604 570.954C528.831 571.493 529.798 571.37 529.675 570.724C528.605 565.128 526.569 559.631 524.932 554.179Z" fill="#E5E5E5"/>
<path d="M503.328 446.366C500.995 449.942 499.437 453.873 498.637 458.059C498.617 458.166 498.784 458.229 498.823 458.121C500.274 454.182 501.981 450.377 503.909 446.649C504.107 446.268 503.548 446.028 503.328 446.366Z" fill="#D4D4D4"/>
<path d="M480.094 473.501C476.723 471.584 472.248 470.071 468.406 469.565C468.3 469.551 468.234 469.707 468.344 469.753C470.222 470.533 472.197 471.077 474.099 471.808C476.009 472.541 477.871 473.432 479.801 474.103C480.202 474.245 480.477 473.719 480.094 473.501Z" fill="#D4D4D4"/>
<path d="M473.549 440.859C472.365 440.075 471.104 439.068 469.789 438.537C469.582 438.453 469.402 438.709 469.572 438.866C470.615 439.826 472.067 440.54 473.279 441.27C473.517 441.415 473.784 441.013 473.549 440.859Z" fill="#D4D4D4"/>
<path d="M562.153 502.001C552.774 504.785 543.345 507.359 533.967 510.112C533.152 510.356 517.294 479.97 523.025 464.316C528.321 449.828 540.449 438.984 554.908 434.063C561.606 431.788 569.839 429.878 576.916 431.437C583.207 432.83 587.65 437.978 589.695 443.895C592.48 451.936 591.552 461.528 590.037 469.738C588.629 477.351 585.842 484.849 580.807 490.831C575.823 496.752 569.467 499.834 562.153 502.001Z" fill="#1E40AF"/>
<path d="M575.754 473.123C569.782 476.135 563.73 478.317 557.362 480.363C553.374 481.645 548.908 482.801 545.085 484.807C549.045 475.976 553.393 467.329 558.008 458.76C564.068 457.006 570.44 454.271 575.01 449.983C575.26 449.749 574.939 449.398 574.669 449.589C569.67 453.12 564.159 455.242 558.629 457.63C559.878 455.324 561.134 453.021 562.419 450.724C562.777 450.084 561.896 449.449 561.466 450.071C556.55 457.166 552.127 464.685 548.137 472.456C547.148 465.6 546.792 458.921 547.173 451.946C547.183 451.769 546.927 451.754 546.9 451.926C545.74 459.302 545.795 467.108 547.131 474.461C543.842 481.028 540.844 487.754 538.153 494.565C537.083 490.473 535.692 486.446 534.764 482.321C533.428 476.383 532.801 470.335 533.417 464.263C533.434 464.085 533.173 464.072 533.144 464.243C531.324 475.007 532.983 487.164 537.08 497.389C535.512 501.489 534.016 505.605 532.647 509.728C525.643 530.833 521.325 552.593 520.196 574.811C520.17 575.323 520.93 575.375 520.989 574.868C523.537 553.075 528.038 531.382 534.967 510.551C537.688 502.372 540.819 494.432 544.255 486.641C549.795 485.003 555.314 482.783 560.756 480.897C566.065 479.057 571.506 476.931 575.964 473.441C576.138 473.306 575.947 473.025 575.754 473.123Z" fill="#E5E5E5"/>
<path d="M584.499 464.296C578.763 466.337 573.325 469.193 567.594 471.262C567.326 471.358 567.481 471.784 567.751 471.728C573.816 470.476 579.83 468.602 584.716 464.625C584.905 464.472 584.699 464.226 584.499 464.296Z" fill="#D4D4D4"/>
<path d="M537.656 451.919C537.725 451.616 537.28 451.44 537.188 451.753C535.614 457.041 534.528 462.653 536.06 468.058C536.121 468.27 536.453 468.276 536.466 468.032C536.74 462.587 536.436 457.288 537.656 451.919Z" fill="#D4D4D4"/>
<path d="M561.361 439.703C559.437 442.158 558.746 445.642 558.871 448.696C558.88 448.898 559.202 449.015 559.257 448.777C559.956 445.752 561.125 442.994 562.052 440.056C562.189 439.624 561.634 439.355 561.361 439.703Z" fill="#D4D4D4"/>
<path d="M450.578 515.404C453.328 524.131 459.861 536.196 470.211 536.293C476.919 536.356 483.675 535.561 490.4 535.465C497.6 535.354 504.818 535.37 512.003 535.799C512.591 535.831 511.141 514.235 493.833 503.719C488.984 500.774 483.056 499.841 477.554 498.648C471.259 497.281 464.773 496.36 458.319 496.646C454.345 496.804 451.038 497.648 449.623 501.717C448.146 505.978 449.258 511.255 450.578 515.404Z" fill="#1E40AF"/>
<path d="M458.024 504.482C462.23 505.563 466.474 506.807 470.694 508.146C469.567 506.978 468.465 505.791 467.207 504.745C465.395 503.237 463.4 502.034 461.456 500.715C461.293 500.603 461.391 500.292 461.599 500.374C465.437 501.883 469.428 505.032 471.806 508.492C477.066 510.191 482.276 512.067 487.291 514.124C490.85 515.584 494.132 517.327 497.206 519.345C496.102 517.21 495.095 515.017 493.618 513.103C491.322 510.126 488.213 508.468 485.207 506.355C484.923 506.155 485.164 505.755 485.477 505.894C492.268 508.912 496.399 513.811 498.975 520.531C502.525 523.064 505.776 526.018 508.792 529.444C520.242 542.451 529.261 559.756 529.294 577.414C529.296 577.834 528.62 577.954 528.538 577.516C525.289 559.976 518.361 544.224 506.7 530.609C505.881 529.654 505.039 528.743 504.182 527.862C501.032 527.531 497.914 527.111 494.721 527.16C491.036 527.216 487.38 527.701 483.713 527.999C477.671 528.49 470.99 528.561 465.54 525.521C465.3 525.387 465.462 524.97 465.732 525.068C477.881 529.486 490.625 523.881 502.803 526.516C497.608 521.533 491.705 517.777 484.843 514.933C484.472 514.778 484.098 514.635 483.726 514.485C475.929 515.422 467.697 517.454 460.103 514.92C459.878 514.845 459.968 514.503 460.203 514.56C467.541 516.393 474.577 514.088 481.818 513.721C473.935 510.652 465.899 508.21 457.988 505.162C457.321 504.905 457.305 504.297 458.024 504.482Z" fill="#E5E5E5"/>
<path d="M454.585 512.158C458.391 512.784 462.107 512.805 465.934 513.017C466.02 513.021 466.048 513.154 465.955 513.176C462.223 514.015 458.141 513.498 454.505 512.445C454.318 512.392 454.398 512.127 454.585 512.158Z" fill="#D4D4D4"/>
<path d="M480.217 504.672C482.288 505.389 484.214 507.144 485.834 508.578C486.032 508.753 485.766 509.108 485.548 508.948C484.596 508.255 483.616 507.602 482.627 506.962C481.725 506.381 480.717 505.916 479.891 505.231C479.634 505.02 479.91 504.566 480.217 504.672Z" fill="#D4D4D4"/>
<path d="M541.328 532.774C541.201 533.06 541.614 533.33 541.772 533.028C541.788 533.028 541.788 533.028 541.788 533.012C541.852 533.092 541.931 533.171 542.058 533.187C549.053 534.697 556.079 536.239 563.202 536.875C568.924 537.383 575.521 537.701 580.529 534.378C587.316 529.879 591.784 517.845 588.111 510.2C583.772 501.123 570.688 506.05 564.123 509.277C554.03 514.207 545.922 522.537 541.328 532.774Z" fill="#1E40AF"/>
<path d="M536.252 536.97C540.103 533.203 544.361 530.067 548.877 527.361C551.971 522.106 556.721 517.743 561.678 514.313C561.927 514.142 562.139 514.534 561.911 514.711C557.637 518.001 554.3 521.861 551.123 526.058C556.174 523.24 561.515 520.919 566.962 518.855C568.859 515.376 571.947 512.122 575.469 510.33C575.54 510.294 575.629 510.392 575.56 510.447C572.489 512.851 570.024 515.347 567.876 518.511C571.094 517.31 574.344 516.191 577.592 515.113C577.885 515.017 577.995 515.46 577.717 515.568C571.934 517.828 566.023 520.21 560.292 522.96C567.525 523.93 574.037 524.154 581.394 522.897C581.587 522.864 581.672 523.142 581.476 523.198C574.379 525.224 566.241 525.599 559.087 523.531C555.432 525.328 551.864 527.287 548.467 529.479C551.31 529.109 554.169 529.609 557.049 530.181C562.074 531.178 566.989 532.065 572.132 531.889C572.324 531.883 572.375 532.196 572.179 532.231C563.428 533.737 555.155 529.759 546.483 530.794C543.271 533.002 540.233 535.439 537.449 538.171C531.999 543.521 527.638 549.916 524.277 556.757C520.626 564.188 518.645 572.064 515.695 579.74C515.565 580.076 515.098 579.948 515.157 579.591C517.687 564.455 525.224 547.76 536.252 536.97Z" fill="#E5E5E5"/>
<path d="M562.643 516.211C563.153 515.167 564.046 514.277 564.884 513.492C565.617 512.805 566.511 511.918 567.467 511.558C567.555 511.525 567.604 511.645 567.552 511.704C566.836 512.519 565.835 513.115 565.063 513.895C564.283 514.68 563.638 515.599 562.848 516.37C562.737 516.476 562.578 516.342 562.643 516.211Z" fill="#D4D4D4"/>
<path d="M577.075 520.911C578.371 520.586 579.745 520.609 581.064 520.339C582.399 520.066 583.64 519.59 584.933 519.181C585.103 519.127 585.201 519.376 585.052 519.465C582.923 520.73 579.563 521.806 577.075 521.319C576.867 521.276 576.88 520.96 577.075 520.911Z" fill="#D4D4D4"/>
<path d="M500.196 560.939L501.344 573.983L505.243 618.021H539.732L544.601 573.983L546.041 560.939H500.196Z" fill="#37474F"/>
<path d="M500.196 560.939L501.344 573.983H544.601L546.041 560.939H500.196Z" fill="#263238"/>
<path d="M496.781 567.963H549.455V557.382H496.781V567.963Z" fill="#37474F"/>
<path d="M6.53516 618.021L79.6535 617.67L152.772 617.543L299.01 617.3L445.248 617.542L518.367 617.669L591.485 618.021L518.367 618.375L445.248 618.502L299.01 618.741L152.772 618.5L79.6535 618.372L6.53516 618.021Z" fill="#263238"/>
<path d="M564.887 27.3184H33.135V363.723H564.887V27.3184Z" fill="white"/>
<path d="M564.885 363.723C564.797 363.807 33.0196 363.883 32.9142 363.944C32.7987 363.866 32.8564 27.4497 32.7741 27.3183V26.9588H33.1336C33.1928 26.9068 564.953 27.2158 565.024 27.1783C565.145 27.2562 564.8 363.62 564.885 363.723ZM564.885 363.723C564.914 363.794 564.556 26.7018 564.885 27.4584L33.1351 27.6779L33.4946 27.3183C33.4556 27.2086 33.6462 364.69 33.1365 363.504C33.1351 363.504 564.885 363.723 564.885 363.723Z" fill="#263238"/>
<path d="M564.887 27.3184H33.135V40.263H564.887V27.3184Z" fill="#263238"/>
<path d="M45.6176 33.7916C45.6176 35.2326 44.4495 36.3993 43.0099 36.3993C41.5703 36.3993 40.4022 35.2311 40.4022 33.7916C40.4022 32.352 41.5703 31.1838 43.0099 31.1838C44.451 31.1838 45.6176 32.3505 45.6176 33.7916Z" fill="#DC2626"/>
<path d="M56.2667 33.7916C56.2667 35.2326 55.0986 36.3993 53.659 36.3993C52.218 36.3993 51.0513 35.2311 51.0513 33.7916C51.0513 32.352 52.218 31.1838 53.659 31.1838C55.0986 31.1838 56.2667 32.3505 56.2667 33.7916Z" fill="#FDE047"/>
<path d="M66.9156 33.7916C66.9156 35.2326 65.7475 36.3993 64.3079 36.3993C62.8683 36.3993 61.7002 35.2311 61.7002 33.7916C61.7002 32.352 62.8683 31.1838 64.3079 31.1838C65.7475 31.1838 66.9156 32.3505 66.9156 33.7916Z" fill="#22C55E"/>
<path d="M194.113 203.07H139.157V275.134H194.113V203.07Z" fill="#EBEBEB"/>
<path d="M260.3 203.07H205.345V275.134H260.3V203.07Z" fill="#EBEBEB"/>
<path d="M326.488 203.07H271.532V275.134H326.488V203.07Z" fill="#EBEBEB"/>
<path d="M392.675 203.07H337.72V275.134H392.675V203.07Z" fill="#EBEBEB"/>
<path d="M458.861 203.07H403.906V275.134H458.861V203.07Z" fill="#EBEBEB"/>
<path d="M174.577 235.388C177.213 237.97 178.504 241.413 178.504 244.856C178.504 248.246 177.16 251.688 174.577 254.27C171.995 256.906 168.553 258.197 165.162 258.197C165.054 258.197 165.054 258.197 165.054 258.197C161.718 258.197 158.223 256.906 155.693 254.27C154.456 253.139 154.456 251.203 155.693 249.966C156.824 248.783 158.813 248.783 159.997 249.966C161.395 251.42 163.224 252.117 165.162 252.117C166.99 252.117 168.875 251.418 170.272 249.966C171.671 248.566 172.424 246.685 172.424 244.856C172.424 242.919 171.725 241.091 170.272 239.692C168.873 238.238 167.044 237.593 165.162 237.593C163.333 237.593 161.395 238.238 159.997 239.692C158.813 240.875 156.877 240.875 155.693 239.692C155.478 239.477 155.316 239.207 155.101 238.992C155.101 238.885 155.101 238.83 155.048 238.83C155.048 238.722 154.994 238.615 154.939 238.562C154.939 238.4 154.886 238.293 154.886 238.185C154.886 238.131 154.832 238.131 154.832 238.076C154.779 237.754 154.779 237.431 154.832 237.162L156.445 223.23C156.607 222.316 157.091 221.562 157.79 221.077C157.898 221.024 157.951 221.024 158.005 220.969C158.058 220.915 158.113 220.915 158.166 220.861C158.597 220.647 159.027 220.539 159.566 220.539H175.436C177.157 220.539 178.501 221.883 178.501 223.605C178.501 225.22 177.157 226.619 175.436 226.619H162.201L161.555 231.944C162.739 231.622 163.977 231.46 165.161 231.46C168.553 231.46 171.995 232.751 174.577 235.388Z" fill="#C7C7C7"/>
<path d="M240.745 235.334C243.38 237.916 244.671 241.358 244.671 244.749C244.671 248.136 243.38 251.58 240.745 254.216C238.162 256.798 234.72 258.144 231.278 258.144C227.889 258.144 224.445 256.798 221.863 254.216C220.681 253.034 220.681 251.096 221.863 249.912C223.047 248.73 224.984 248.73 226.168 249.912C227.567 251.311 229.396 252.009 231.278 252.009C233.16 252.009 234.988 251.31 236.442 249.912C237.895 248.461 238.594 246.63 238.594 244.749C238.594 242.866 237.895 241.035 236.442 239.637C235.043 238.185 233.215 237.539 231.332 237.487C230.472 237.541 229.665 237.164 229.126 236.518C229.073 236.518 229.073 236.518 229.073 236.465C227.835 235.281 227.835 233.398 228.964 232.161L234.451 226.565H225.736C224.068 226.565 222.724 225.221 222.724 223.499C222.724 221.831 224.068 220.487 225.736 220.487H241.606C243.327 220.487 244.673 221.831 244.673 223.499C244.673 224.036 244.512 224.521 244.296 224.953C244.136 225.221 243.974 225.49 243.759 225.705L236.981 232.699C238.377 233.343 239.668 234.205 240.745 235.334Z" fill="#C7C7C7"/>
<path d="M306.933 235.334C309.568 237.916 310.859 241.358 310.859 244.749C310.859 248.136 309.568 251.58 306.933 254.216C304.35 256.798 300.906 258.144 297.464 258.144C294.075 258.144 290.633 256.798 288.049 254.216C286.867 253.034 286.867 251.096 288.049 249.912C289.233 248.73 291.17 248.73 292.354 249.912C293.753 251.311 295.582 252.009 297.464 252.009C299.347 252.009 301.176 251.31 302.629 249.912C304.08 248.461 304.78 246.63 304.78 244.749C304.78 242.866 304.08 241.035 302.629 239.637C301.229 238.185 299.401 237.539 297.519 237.487C296.658 237.541 295.851 237.164 295.312 236.518C295.259 236.518 295.259 236.518 295.259 236.465C294.021 235.281 294.021 233.398 295.151 232.161L300.637 226.565H291.923C290.256 226.565 288.91 225.221 288.91 223.499C288.91 221.831 290.256 220.487 291.923 220.487H307.792C309.515 220.487 310.859 221.831 310.859 223.499C310.859 224.036 310.697 224.521 310.482 224.953C310.322 225.221 310.16 225.49 309.945 225.705L303.167 232.699C304.565 233.343 305.856 234.205 306.933 235.334Z" fill="#C7C7C7"/>
<path d="M378.054 245.396C378.054 252.442 372.297 258.199 365.251 258.199C358.15 258.199 352.34 252.443 352.34 245.396C352.34 240.931 354.599 237.004 358.097 234.69C356.966 233.236 356.321 231.354 356.321 229.364C356.321 224.522 360.301 220.542 365.251 220.542C370.093 220.542 374.073 224.522 374.073 229.364C374.073 231.354 373.428 233.236 372.299 234.69C375.741 237.002 378.054 240.93 378.054 245.396ZM372.191 245.396C372.191 241.576 369.07 238.401 365.251 238.401C361.377 238.401 358.257 241.575 358.203 245.396C358.257 249.215 361.377 252.335 365.251 252.335C369.07 252.334 372.191 249.215 372.191 245.396ZM362.186 229.364C362.186 231.032 363.53 232.431 365.253 232.431C366.865 232.431 368.211 231.032 368.211 229.364C368.211 227.75 366.867 226.405 365.253 226.405C363.53 226.405 362.186 227.75 362.186 229.364Z" fill="#C7C7C7"/>
<path d="M338.085 300.351H259.935V324.832H338.085V300.351Z" fill="#1E40AF"/>
<path d="M276.592 314.49C276.81 314.223 277.208 314.186 277.475 314.404C278.007 314.839 278.927 315.347 279.786 315.337C280.391 315.337 280.935 315.155 281.299 314.89C281.661 314.623 281.819 314.319 281.819 314.018C281.819 313.862 281.781 313.752 281.709 313.631C281.637 313.509 281.527 313.389 281.347 313.267C280.996 313.039 280.402 312.832 279.689 312.699H279.664C279.097 312.591 278.563 312.445 278.104 312.227C277.644 312.009 277.246 311.707 276.98 311.284C276.798 310.994 276.701 310.655 276.701 310.292C276.701 309.566 277.112 308.938 277.669 308.525C278.238 308.115 278.976 307.884 279.761 307.884C280.923 307.884 281.781 308.451 282.399 308.851C282.676 309.045 282.762 309.432 282.568 309.71C282.386 310.001 281.999 310.086 281.709 309.892C281.092 309.481 280.5 309.118 279.761 309.118C279.217 309.118 278.733 309.287 278.405 309.528C278.079 309.77 277.946 310.037 277.946 310.291C277.946 310.435 277.971 310.532 278.03 310.629C278.091 310.725 278.2 310.835 278.356 310.942C278.672 311.161 279.215 311.354 279.869 311.475H279.894C280.511 311.595 281.078 311.753 281.563 311.983C282.058 312.224 282.494 312.54 282.773 312.988C282.954 313.278 283.063 313.639 283.063 314.015C283.063 314.789 282.627 315.456 282.024 315.89C281.43 316.326 280.645 316.58 279.784 316.58C278.477 316.567 277.379 315.915 276.687 315.37C276.423 315.154 276.385 314.755 276.592 314.49Z" fill="white"/>
<path d="M288.432 316.594C286.484 316.594 284.936 315.021 284.936 313.098V308.792C284.936 308.417 285.226 308.125 285.602 308.125C285.966 308.125 286.279 308.417 286.279 308.792V313.098C286.279 314.285 287.246 315.252 288.433 315.252C289.63 315.252 290.588 314.285 290.588 313.098V308.792C290.588 308.417 290.891 308.125 291.265 308.125C291.64 308.125 291.929 308.417 291.929 308.792V313.098C291.928 315.021 290.367 316.594 288.432 316.594Z" fill="white"/>
<path d="M294.765 315.928V308.791C294.765 308.415 295.068 308.124 295.432 308.124C295.444 308.124 295.444 308.124 295.467 308.124C295.467 308.124 295.467 308.124 295.48 308.124H297.149C298.419 308.124 299.448 309.152 299.448 310.422C299.448 310.942 299.279 311.416 298.987 311.801C299.713 312.262 300.208 313.072 300.208 313.99C300.208 315.431 299.048 316.591 297.62 316.591H295.478C295.465 316.591 295.465 316.579 295.465 316.579C295.441 316.579 295.441 316.591 295.431 316.591C295.068 316.594 294.765 316.29 294.765 315.928ZM296.109 311.404H297.149C297.682 311.404 298.105 310.956 298.105 310.424C298.105 309.892 297.682 309.469 297.149 309.469H296.109V311.404ZM296.109 315.251H297.621C298.31 315.238 298.867 314.693 298.867 313.992C298.867 313.303 298.31 312.758 297.621 312.745H296.109V315.251Z" fill="white"/>
<path d="M309.231 308.792V315.929C309.231 316.292 308.918 316.594 308.554 316.594C308.179 316.594 307.89 316.29 307.89 315.929V310.837L306.149 313.255C306.014 313.437 305.822 313.534 305.604 313.534H305.591H305.58C305.36 313.534 305.157 313.437 305.022 313.255L303.293 310.837V315.929C303.293 316.292 302.989 316.594 302.615 316.594C302.253 316.594 301.951 316.29 301.951 315.929V308.792C301.951 308.428 302.254 308.125 302.615 308.125C302.628 308.125 302.628 308.125 302.653 308.125C302.846 308.125 303.063 308.222 303.184 308.404L305.593 311.742L308.001 308.404C308.133 308.222 308.328 308.125 308.546 308.125C308.546 308.125 308.546 308.125 308.557 308.125C308.917 308.138 309.231 308.428 309.231 308.792Z" fill="white"/>
<path d="M312.239 308.792C312.239 308.417 312.529 308.125 312.903 308.125C313.267 308.125 313.581 308.417 313.581 308.792V315.929C313.581 316.305 313.267 316.594 312.903 316.594C312.528 316.594 312.239 316.303 312.239 315.929V308.792Z" fill="white"/>
<path d="M321.02 309.469H319.096V315.929C319.096 316.305 318.806 316.594 318.432 316.594C318.068 316.594 317.765 316.303 317.765 315.929V309.469H315.855C315.479 309.469 315.19 309.153 315.19 308.792C315.19 308.417 315.481 308.125 315.855 308.125H321.02C321.383 308.125 321.684 308.417 321.684 308.792C321.684 309.153 321.383 309.469 321.02 309.469Z" fill="white"/>
<path d="M309.197 86.3021V97.2946H306.091V86.3021C306.091 82.122 302.916 78.723 299.01 78.723C295.104 78.723 291.929 82.122 291.929 86.3021V97.2946H288.823V86.3021C288.823 80.3157 293.393 75.4468 299.01 75.4468C304.627 75.4468 309.197 80.3157 309.197 86.3021Z" fill="#EBEBEB"/>
<path d="M288.823 89.1611L291.929 89.2853V97.2947H288.823V89.1611Z" fill="#C7C7C7"/>
<path d="M309.197 89.9899V97.2946H306.091V89.8628L309.197 89.9899Z" fill="#C7C7C7"/>
<path d="M313.178 93.2271H284.841V116.744H313.178V93.2271Z" fill="#1E40AF"/>
<path d="M300.209 104.832L301.395 110.459H296.36L297.547 104.832C296.838 104.383 296.36 103.602 296.36 102.705C296.36 101.301 297.488 100.188 298.877 100.188C300.266 100.188 301.394 101.301 301.394 102.705C301.395 103.602 300.917 104.383 300.209 104.832Z" fill="#263238"/>
<path d="M145.411 175.909C145.411 175.738 145.555 175.592 145.728 175.592H145.767H148.342C149.794 175.592 150.968 176.781 150.968 178.232C150.968 179.683 149.793 180.858 148.342 180.858L146.058 180.886V184.516C146.058 184.688 145.913 184.833 145.728 184.833C145.557 184.833 145.411 184.689 145.411 184.516V175.909ZM148.34 180.237C149.436 180.224 150.333 179.326 150.333 178.23C150.333 177.134 149.435 176.238 148.34 176.238H146.056V180.237H148.34Z" fill="#263238"/>
<path d="M153.052 175.909C153.052 175.738 153.198 175.592 153.368 175.592C153.553 175.592 153.699 175.737 153.699 175.909V184.514C153.699 184.686 153.554 184.832 153.368 184.832C153.198 184.832 153.052 184.688 153.052 184.514V175.909Z" fill="#263238"/>
<path d="M156.377 181.611C156.377 179.816 157.777 178.363 159.518 178.363C161.181 178.363 162.501 179.683 162.634 181.374V181.387V181.426C162.634 181.598 162.489 181.716 162.318 181.716H157.013C157.079 183.128 158.187 184.198 159.519 184.198C160.377 184.198 161.17 183.749 161.606 183.023C161.698 182.864 161.896 182.838 162.029 182.917C162.173 183.023 162.227 183.208 162.134 183.366C161.58 184.252 160.617 184.832 159.521 184.832C157.777 184.832 156.377 183.379 156.377 181.611ZM157.052 181.095H161.948C161.737 179.881 160.708 178.997 159.519 178.997C158.305 178.997 157.288 179.868 157.052 181.095Z" fill="#263238"/>
<path d="M170.302 178.679V184.513C170.302 184.685 170.158 184.831 169.986 184.831C169.814 184.831 169.67 184.686 169.67 184.513V183.55C169.116 184.315 168.232 184.831 167.241 184.831C165.539 184.831 164.179 183.365 164.179 181.596C164.179 179.827 165.539 178.362 167.241 178.362C168.232 178.362 169.116 178.863 169.67 179.63V178.679C169.67 178.495 169.814 178.363 169.986 178.363C170.158 178.363 170.302 178.496 170.302 178.679ZM169.669 181.598C169.669 180.147 168.574 178.984 167.24 178.984C165.92 178.984 164.811 180.147 164.811 181.598C164.811 183.049 165.92 184.198 167.24 184.198C168.573 184.198 169.669 183.049 169.669 181.598Z" fill="#263238"/>
<path d="M172.598 183.485C172.704 183.353 172.902 183.326 173.047 183.444C173.496 183.774 174.21 184.197 175.027 184.197C175.528 184.197 175.964 184.038 176.256 183.801C176.572 183.59 176.744 183.3 176.744 183.008C176.731 182.705 176.611 182.494 176.282 182.217C176.005 182.006 175.542 181.847 174.909 181.742L174.881 181.729C174.301 181.624 173.787 181.491 173.416 181.228C173.007 180.99 172.717 180.568 172.717 180.066C172.717 179.55 173.007 179.103 173.416 178.798C173.798 178.534 174.34 178.362 175 178.362C175.831 178.362 176.425 178.744 176.927 179.062C177.072 179.168 177.112 179.365 177.02 179.511C176.927 179.656 176.729 179.696 176.584 179.604C176.108 179.286 175.633 178.957 175 178.957C174.473 178.957 174.049 179.101 173.772 179.326C173.508 179.537 173.364 179.801 173.364 180.066C173.364 180.33 173.482 180.515 173.733 180.713C174.023 180.91 174.459 181.069 175.053 181.162H175.079C175.7 181.254 176.201 181.439 176.65 181.69C177.073 181.967 177.376 182.47 177.376 183.01C177.376 183.551 177.073 183.987 176.638 184.317C176.189 184.647 175.661 184.832 175.027 184.832C173.984 184.819 173.166 184.33 172.639 183.908C172.504 183.788 172.491 183.618 172.598 183.485Z" fill="#263238"/>
<path d="M179.077 181.611C179.077 179.816 180.476 178.363 182.219 178.363C183.882 178.363 185.202 179.683 185.333 181.374V181.387V181.426C185.333 181.598 185.189 181.716 185.017 181.716H179.712C179.779 183.128 180.886 184.198 182.219 184.198C183.077 184.198 183.869 183.749 184.305 183.023C184.398 182.864 184.596 182.838 184.727 182.917C184.871 183.023 184.925 183.208 184.832 183.366C184.278 184.252 183.315 184.832 182.219 184.832C180.478 184.832 179.077 183.379 179.077 181.611ZM179.751 181.095H184.648C184.437 179.881 183.406 178.997 182.219 178.997C181.005 178.997 179.988 179.868 179.751 181.095Z" fill="#263238"/>
<path d="M191.075 181.611C191.075 179.816 192.474 178.363 194.217 178.363C195.88 178.363 197.2 179.683 197.331 181.374V181.387V181.426C197.331 181.598 197.187 181.716 197.015 181.716H191.71C191.776 183.128 192.884 184.198 194.218 184.198C195.076 184.198 195.868 183.749 196.303 183.023C196.395 182.864 196.593 182.838 196.726 182.917C196.87 183.023 196.924 183.208 196.831 183.366C196.277 184.252 195.314 184.832 194.218 184.832C192.474 184.832 191.075 183.379 191.075 181.611ZM191.747 181.095H196.644C196.433 179.881 195.403 178.997 194.215 178.997C193.002 178.997 191.984 179.868 191.747 181.095Z" fill="#263238"/>
<path d="M204.194 181.004C204.194 179.908 203.309 179.012 202.201 179.012C201.105 179.012 200.22 179.908 200.194 181.004V184.514V184.568C200.181 184.62 200.168 184.673 200.128 184.712C200.075 184.792 199.982 184.831 199.89 184.831H199.81C199.718 184.805 199.638 184.738 199.599 184.659C199.586 184.646 199.586 184.633 199.586 184.618C199.586 184.605 199.573 184.592 199.573 184.592V184.513V181.003V180.896V178.692C199.573 178.521 199.706 178.375 199.89 178.375C200.06 178.375 200.193 178.521 200.193 178.692V179.313C200.668 178.744 201.394 178.376 202.2 178.376C203.651 178.376 204.826 179.565 204.826 181.003V184.513C204.826 184.698 204.682 184.831 204.509 184.831C204.338 184.831 204.193 184.698 204.193 184.513V181.004H204.194Z" fill="#263238"/>
<path d="M209.921 178.679C209.921 178.838 209.762 178.997 209.603 178.997H208.771V183.709C208.771 184.026 209.089 184.184 209.246 184.184C209.405 184.184 209.575 184.355 209.575 184.513C209.575 184.672 209.405 184.831 209.246 184.831C208.599 184.831 208.111 184.355 208.111 183.709V178.997H207.306C206.989 178.997 206.989 178.838 206.989 178.679C206.989 178.521 206.989 178.363 207.306 178.363H208.111V175.962C208.111 175.803 208.27 175.646 208.428 175.646C208.599 175.646 208.771 175.805 208.771 175.962V178.363H209.603C209.762 178.363 209.921 178.522 209.921 178.679Z" fill="#263238"/>
<path d="M211.952 181.611C211.952 179.816 213.351 178.363 215.094 178.363C216.757 178.363 218.077 179.683 218.209 181.374V181.387V181.426C218.209 181.598 218.064 181.716 217.892 181.716H212.587C212.654 183.128 213.761 184.198 215.094 184.198C215.952 184.198 216.744 183.749 217.181 183.023C217.273 182.864 217.471 182.838 217.602 182.917C217.747 183.023 217.8 183.208 217.708 183.366C217.153 184.252 216.19 184.832 215.094 184.832C213.353 184.832 211.952 183.379 211.952 181.611ZM212.626 181.095H217.523C217.312 179.881 216.282 178.997 215.094 178.997C213.88 178.997 212.863 179.868 212.626 181.095Z" fill="#263238"/>
<path d="M220.175 178.694C220.175 178.509 220.32 178.376 220.504 178.376C220.663 178.376 220.809 178.509 220.809 178.694V180.119C220.835 180.066 220.861 180.012 220.902 179.96C221.39 179.195 222.247 178.376 223.489 178.376C223.661 178.376 223.807 178.509 223.807 178.694C223.807 178.864 223.661 179.01 223.489 179.01C222.644 179.01 222.064 179.485 221.615 180.066C221.179 180.646 220.928 181.306 220.835 181.57C220.809 181.624 220.809 181.65 220.809 181.676V184.513C220.809 184.698 220.663 184.831 220.504 184.831C220.32 184.831 220.175 184.698 220.175 184.513V178.694Z" fill="#263238"/>
<path d="M232.184 178.679C232.184 178.838 232.025 178.997 231.868 178.997H231.036V183.709C231.036 184.026 231.354 184.184 231.511 184.184C231.67 184.184 231.841 184.355 231.841 184.513C231.841 184.672 231.67 184.831 231.511 184.831C230.864 184.831 230.376 184.355 230.376 183.709V178.997H229.571C229.255 178.997 229.255 178.838 229.255 178.679C229.255 178.521 229.255 178.363 229.571 178.363H230.376V175.962C230.376 175.803 230.535 175.646 230.693 175.646C230.864 175.646 231.036 175.805 231.036 175.962V178.363H231.868C232.025 178.363 232.184 178.522 232.184 178.679Z" fill="#263238"/>
<path d="M239.695 180.91C239.695 179.775 238.771 179.01 237.636 179.01C236.514 179.01 235.59 179.775 235.59 180.91V184.513V184.552C235.59 184.579 235.577 184.591 235.577 184.605C235.564 184.631 235.564 184.644 235.55 184.657C235.511 184.737 235.445 184.79 235.352 184.816C235.352 184.816 235.339 184.829 235.326 184.829H235.3H235.261C235.169 184.829 235.076 184.79 235.01 184.724C234.984 184.685 234.971 184.657 234.958 184.617C234.945 184.578 234.945 184.55 234.945 184.511V180.909V180.803V175.906C234.945 175.735 235.089 175.589 235.261 175.589C235.446 175.589 235.59 175.734 235.59 175.906V179.312C236.078 178.731 236.818 178.36 237.636 178.36C239.128 178.36 240.342 179.417 240.342 180.907V184.51C240.342 184.682 240.198 184.828 240.013 184.828C239.841 184.828 239.697 184.683 239.697 184.51L239.695 180.91Z" fill="#263238"/>
<path d="M242.572 181.611C242.572 179.816 243.971 178.363 245.712 178.363C247.376 178.363 248.695 179.683 248.828 181.374V181.387V181.426C248.828 181.598 248.684 181.716 248.511 181.716H243.206C243.272 183.128 244.38 184.198 245.712 184.198C246.57 184.198 247.363 183.749 247.799 183.023C247.891 182.864 248.089 182.838 248.222 182.917C248.366 183.023 248.42 183.208 248.327 183.366C247.773 184.252 246.81 184.832 245.714 184.832C243.971 184.832 242.572 183.379 242.572 181.611ZM243.245 181.095H248.141C247.93 179.881 246.901 178.997 245.712 178.997C244.498 178.997 243.481 179.868 243.245 181.095Z" fill="#263238"/>
<path d="M259.227 175.459C261.695 175.459 263.636 177.557 263.65 180.145C263.637 182.732 261.697 184.83 259.227 184.83C256.732 184.83 254.779 182.732 254.766 180.145C254.779 177.557 256.732 175.459 259.227 175.459ZM259.227 184.185C261.26 184.185 262.976 182.403 262.989 180.146C262.976 177.862 261.26 176.121 259.227 176.121C257.128 176.121 255.413 177.862 255.413 180.146C255.413 182.402 257.128 184.185 259.227 184.185Z" fill="#263238"/>
<path d="M268.057 176.239H265.271C265.1 176.239 264.955 176.095 264.955 175.909C264.955 175.738 265.1 175.592 265.271 175.592H271.475C271.646 175.592 271.791 175.737 271.791 175.909C271.791 176.093 271.646 176.239 271.475 176.239H268.689V184.514C268.689 184.686 268.543 184.832 268.372 184.832C268.2 184.832 268.055 184.688 268.055 184.514V176.239H268.057Z" fill="#263238"/>
<path d="M274.218 175.909C274.218 175.738 274.362 175.592 274.536 175.592H274.575H277.149C278.6 175.592 279.776 176.781 279.776 178.232C279.776 179.683 278.6 180.858 277.149 180.858L274.865 180.886V184.516C274.865 184.688 274.719 184.833 274.536 184.833C274.364 184.833 274.218 184.689 274.218 184.516V175.909ZM277.149 180.237C278.244 180.224 279.142 179.326 279.142 178.23C279.142 177.134 278.244 176.238 277.149 176.238H274.865V180.237H277.149Z" fill="#263238"/>
<path d="M285.265 181.585C285.265 179.788 286.744 178.363 288.591 178.363C289.356 178.363 290.082 178.628 290.65 179.077C290.781 179.169 290.809 179.367 290.689 179.513C290.583 179.631 290.399 179.67 290.253 179.565C289.791 179.195 289.21 178.984 288.589 178.984C287.085 178.984 285.898 180.16 285.898 181.585C285.898 183.036 287.086 184.198 288.589 184.198C289.21 184.198 289.791 183.987 290.253 183.629C290.397 183.524 290.583 183.564 290.689 183.683C290.807 183.827 290.781 184.026 290.622 184.145C290.081 184.566 289.355 184.831 288.589 184.831C286.744 184.832 285.265 183.405 285.265 181.585Z" fill="#263238"/>
<path d="M295.823 178.363C297.526 178.363 298.886 179.842 298.886 181.598C298.886 183.353 297.527 184.832 295.823 184.832C294.134 184.832 292.761 183.353 292.761 181.598C292.762 179.842 294.134 178.363 295.823 178.363ZM295.823 184.198C297.143 184.198 298.252 183.036 298.252 181.598C298.252 180.16 297.143 178.984 295.823 178.984C294.504 178.984 293.395 180.16 293.395 181.598C293.395 183.036 294.505 184.198 295.823 184.198Z" fill="#263238"/>
<path d="M306.488 183.577C305.921 184.342 305.022 184.83 304.006 184.83C302.265 184.83 300.878 183.379 300.878 181.611C300.878 179.816 302.265 178.363 304.006 178.363C305.022 178.363 305.919 178.864 306.488 179.631V175.909C306.488 175.738 306.634 175.592 306.817 175.592C306.989 175.592 307.135 175.737 307.135 175.909V181.479V181.612V184.516C307.135 184.688 306.99 184.833 306.817 184.833C306.634 184.833 306.488 184.689 306.488 184.516V183.577ZM306.488 181.716V181.505C306.435 180.119 305.34 179.01 304.006 179.01C302.647 179.01 301.524 180.171 301.524 181.611C301.524 183.036 302.647 184.185 304.006 184.185C305.34 184.185 306.435 183.089 306.488 181.716Z" fill="#263238"/>
<path d="M309.364 181.611C309.364 179.816 310.764 178.363 312.506 178.363C314.168 178.363 315.489 179.683 315.622 181.374V181.387V181.426C315.622 181.598 315.475 181.716 315.305 181.716H309.998C310.065 183.128 311.172 184.198 312.506 184.198C313.364 184.198 314.157 183.749 314.591 183.023C314.684 182.864 314.882 182.838 315.013 182.917C315.16 183.023 315.212 183.208 315.12 183.366C314.565 184.252 313.602 184.832 312.506 184.832C310.764 184.832 309.364 183.379 309.364 181.611ZM310.037 181.095H314.934C314.723 179.881 313.695 178.997 312.505 178.997C311.291 178.997 310.274 179.868 310.037 181.095Z" fill="#263238"/>
<path d="M321.375 183.485C321.48 183.353 321.678 183.326 321.824 183.444C322.273 183.774 322.986 184.197 323.803 184.197C324.306 184.197 324.741 184.038 325.031 183.801C325.348 183.59 325.52 183.3 325.52 183.008C325.507 182.705 325.389 182.494 325.058 182.217C324.781 182.006 324.319 181.847 323.685 181.742L323.658 181.729C323.077 181.624 322.562 181.491 322.192 181.228C321.783 180.99 321.492 180.568 321.492 180.066C321.492 179.55 321.783 179.103 322.192 178.798C322.575 178.534 323.116 178.362 323.777 178.362C324.609 178.362 325.203 178.744 325.704 179.062C325.851 179.168 325.888 179.365 325.796 179.511C325.704 179.656 325.506 179.696 325.361 179.604C324.886 179.286 324.41 178.957 323.777 178.957C323.249 178.957 322.826 179.101 322.55 179.326C322.286 179.537 322.14 179.801 322.14 180.066C322.14 180.33 322.258 180.515 322.51 180.713C322.8 180.91 323.236 181.069 323.829 181.162H323.857C324.476 181.254 324.979 181.439 325.426 181.69C325.85 181.967 326.153 182.47 326.153 183.01C326.153 183.551 325.85 183.987 325.413 184.317C324.964 184.647 324.437 184.832 323.803 184.832C322.761 184.819 321.942 184.33 321.414 183.908C321.282 183.788 321.268 183.618 321.375 183.485Z" fill="#263238"/>
<path d="M327.855 181.611C327.855 179.816 329.254 178.363 330.997 178.363C332.66 178.363 333.98 179.683 334.113 181.374V181.387V181.426C334.113 181.598 333.966 181.716 333.795 181.716H328.489C328.555 183.128 329.663 184.198 330.996 184.198C331.853 184.198 332.646 183.749 333.082 183.023C333.174 182.864 333.372 182.838 333.504 182.917C333.651 183.023 333.703 183.208 333.609 183.366C333.055 184.252 332.092 184.832 330.996 184.832C329.254 184.832 327.855 183.379 327.855 181.611ZM328.528 181.095H333.426C333.213 179.881 332.185 178.997 330.996 178.997C329.781 178.997 328.765 179.868 328.528 181.095Z" fill="#263238"/>
<path d="M340.973 181.004C340.973 179.908 340.088 179.012 338.98 179.012C337.885 179.012 337.001 179.908 336.973 181.004V184.514V184.568C336.96 184.62 336.946 184.673 336.907 184.712C336.854 184.792 336.763 184.831 336.669 184.831H336.589C336.497 184.805 336.418 184.738 336.379 184.659C336.366 184.646 336.366 184.633 336.366 184.618C336.366 184.605 336.353 184.592 336.353 184.592V184.513V181.003V180.896V178.692C336.353 178.521 336.484 178.375 336.67 178.375C336.842 178.375 336.973 178.521 336.973 178.692V179.313C337.448 178.744 338.173 178.376 338.98 178.376C340.432 178.376 341.607 179.565 341.607 181.003V184.513C341.607 184.698 341.46 184.831 341.291 184.831C341.119 184.831 340.973 184.698 340.973 184.513V181.004Z" fill="#263238"/>
<path d="M346.701 178.679C346.701 178.838 346.542 178.997 346.385 178.997H345.553V183.709C345.553 184.026 345.869 184.184 346.027 184.184C346.184 184.184 346.357 184.355 346.357 184.513C346.357 184.672 346.186 184.831 346.027 184.831C345.381 184.831 344.892 184.355 344.892 183.709V178.997H344.088C343.77 178.997 343.77 178.838 343.77 178.679C343.77 178.521 343.77 178.363 344.088 178.363H344.892V175.962C344.892 175.803 345.051 175.646 345.209 175.646C345.381 175.646 345.553 175.805 345.553 175.962V178.363H346.385C346.542 178.363 346.701 178.522 346.701 178.679Z" fill="#263238"/>
<path d="M355.939 178.679C355.939 178.838 355.78 178.997 355.622 178.997H354.79V183.709C354.79 184.026 355.105 184.184 355.264 184.184C355.422 184.184 355.594 184.355 355.594 184.513C355.594 184.672 355.422 184.831 355.264 184.831C354.618 184.831 354.129 184.355 354.129 183.709V178.997H353.324C353.007 178.997 353.007 178.838 353.007 178.679C353.007 178.521 353.007 178.363 353.324 178.363H354.129V175.962C354.129 175.803 354.287 175.646 354.446 175.646C354.618 175.646 354.79 175.805 354.79 175.962V178.363H355.622C355.782 178.363 355.939 178.522 355.939 178.679Z" fill="#263238"/>
<path d="M361.522 178.363C363.224 178.363 364.584 179.842 364.584 181.598C364.584 183.353 363.225 184.832 361.522 184.832C359.832 184.832 358.459 183.353 358.459 181.598C358.459 179.842 359.832 178.363 361.522 178.363ZM361.522 184.198C362.841 184.198 363.95 183.036 363.95 181.598C363.95 180.16 362.843 178.984 361.522 178.984C360.202 178.984 359.093 180.16 359.093 181.598C359.093 183.036 360.202 184.198 361.522 184.198Z" fill="#263238"/>
<path d="M370.429 178.668C370.429 178.496 370.573 178.363 370.732 178.363C370.917 178.363 371.063 178.496 371.063 178.668V182.178C371.063 183.287 371.947 184.171 373.042 184.171C374.151 184.171 375.035 183.286 375.049 182.178V178.668C375.049 178.615 375.062 178.55 375.101 178.509C375.101 178.496 375.114 178.482 375.114 178.47C375.127 178.47 375.127 178.457 375.142 178.457C375.168 178.418 375.221 178.391 375.26 178.378H375.288C375.301 178.378 375.314 178.365 375.327 178.365H375.367H375.406C375.46 178.378 375.513 178.404 375.565 178.431C375.592 178.457 375.631 178.498 375.644 178.537C375.672 178.576 375.685 178.629 375.685 178.669V182.18V182.298V184.317C375.685 186.006 374.312 187.353 372.609 187.353C372.134 187.353 371.685 187.235 371.275 187.05C371.131 186.957 371.064 186.773 371.144 186.628C371.223 186.469 371.395 186.43 371.552 186.469C371.869 186.628 372.24 186.721 372.609 186.721C373.955 186.721 375.038 185.652 375.051 184.318V183.895C374.561 184.449 373.851 184.819 373.044 184.819C371.606 184.806 370.43 183.631 370.43 182.18V178.668H370.429Z" fill="#263238"/>
<path d="M381.094 178.363C382.796 178.363 384.156 179.842 384.156 181.598C384.156 183.353 382.797 184.832 381.094 184.832C379.404 184.832 378.031 183.353 378.031 181.598C378.031 179.842 379.403 178.363 381.094 178.363ZM381.094 184.198C382.413 184.198 383.522 183.036 383.522 181.598C383.522 180.16 382.415 178.984 381.094 178.984C379.774 178.984 378.665 180.16 378.665 181.598C378.665 183.036 379.772 184.198 381.094 184.198Z" fill="#263238"/>
<path d="M386.241 178.668C386.241 178.483 386.386 178.352 386.559 178.352C386.729 178.352 386.874 178.483 386.874 178.668V182.192C386.874 183.301 387.759 184.185 388.855 184.199C389.962 184.186 390.862 183.301 390.862 182.192V178.668C390.862 178.483 391.021 178.352 391.178 178.352C391.363 178.352 391.509 178.483 391.509 178.668V182.192C391.509 183.643 390.333 184.832 388.856 184.832C387.405 184.832 386.243 183.643 386.243 182.192V178.668H386.241Z" fill="#263238"/>
<path d="M394.463 178.694C394.463 178.509 394.607 178.376 394.794 178.376C394.952 178.376 395.097 178.509 395.097 178.694V180.119C395.123 180.066 395.149 180.012 395.189 179.96C395.677 179.195 396.535 178.376 397.775 178.376C397.947 178.376 398.093 178.509 398.093 178.694C398.093 178.864 397.949 179.01 397.775 179.01C396.931 179.01 396.349 179.485 395.901 180.066C395.466 180.646 395.215 181.306 395.123 181.57C395.097 181.624 395.097 181.65 395.097 181.676V184.513C395.097 184.698 394.952 184.831 394.794 184.831C394.609 184.831 394.463 184.698 394.463 184.513V178.694Z" fill="#263238"/>
<path d="M408.836 181.004C408.836 179.908 407.951 179.012 406.843 179.012C405.747 179.012 404.863 179.908 404.836 181.004V184.514V184.568C404.823 184.62 404.809 184.673 404.771 184.712C404.718 184.792 404.625 184.831 404.533 184.831H404.453C404.361 184.805 404.282 184.738 404.243 184.659C404.23 184.646 404.23 184.633 404.23 184.618C404.23 184.605 404.217 184.592 404.217 184.592V184.513V181.003V180.896V178.692C404.217 178.521 404.348 178.375 404.534 178.375C404.706 178.375 404.837 178.521 404.837 178.692V179.313C405.312 178.744 406.039 178.376 406.844 178.376C408.296 178.376 409.471 179.565 409.471 181.003V184.513C409.471 184.698 409.324 184.831 409.153 184.831C408.981 184.831 408.837 184.698 408.837 184.513V181.004H408.836Z" fill="#263238"/>
<path d="M412.174 178.668C412.174 178.483 412.318 178.352 412.492 178.352C412.662 178.352 412.806 178.483 412.806 178.668V182.192C412.806 183.301 413.692 184.185 414.787 184.199C415.895 184.186 416.794 183.301 416.794 182.192V178.668C416.794 178.483 416.953 178.352 417.111 178.352C417.296 178.352 417.441 178.483 417.441 178.668V182.192C417.441 183.643 416.266 184.832 414.789 184.832C413.338 184.832 412.175 183.643 412.175 182.192V178.668H412.174Z" fill="#263238"/>
<path d="M429.65 181.004C429.622 179.908 428.752 178.997 427.643 178.997C426.547 178.997 425.65 179.908 425.65 181.004V184.529V184.568C425.65 184.581 425.637 184.594 425.637 184.594V184.62C425.61 184.699 425.545 184.753 425.478 184.792C425.426 184.818 425.371 184.831 425.319 184.831H425.279H425.253C425.24 184.831 425.225 184.818 425.225 184.818C425.198 184.818 425.174 184.792 425.146 184.779C425.133 184.779 425.119 184.766 425.107 184.753L425.067 184.714C425.054 184.701 425.054 184.688 425.041 184.688C425.041 184.675 425.041 184.675 425.028 184.66C425.028 184.66 425.028 184.647 425.015 184.634C425.015 184.621 425.015 184.608 425.002 184.595V184.556V184.53V181.006C425.002 179.91 424.118 178.999 423.009 178.999C421.9 178.999 421.016 179.91 421.016 181.006V184.53C421.016 184.636 420.965 184.728 420.872 184.78C420.859 184.793 420.82 184.819 420.793 184.819C420.78 184.832 420.765 184.832 420.741 184.832H420.7H420.661C420.541 184.819 420.436 184.714 420.397 184.594V184.527V181.003V180.896V178.678C420.397 178.508 420.541 178.375 420.7 178.375C420.885 178.375 421.018 178.508 421.018 178.678V179.299C421.493 178.731 422.205 178.375 423.011 178.375C424.014 178.375 424.872 178.929 425.321 179.748C425.783 178.931 426.655 178.375 427.644 178.375C429.097 178.375 430.269 179.549 430.269 181.001V184.526C430.269 184.685 430.138 184.829 429.954 184.829C429.783 184.829 429.651 184.685 429.651 184.526L429.65 181.004Z" fill="#263238"/>
<path d="M432.946 181.742V181.61V181.478V175.907C432.946 175.737 433.09 175.591 433.262 175.591C433.446 175.591 433.593 175.735 433.593 175.907V179.629C434.159 178.864 435.058 178.362 436.074 178.362C437.816 178.362 439.203 179.814 439.203 181.609C439.203 183.378 437.816 184.829 436.074 184.829C435.058 184.829 434.159 184.341 433.593 183.576V184.513C433.593 184.685 433.446 184.83 433.262 184.83C433.09 184.83 432.946 184.686 432.946 184.513V181.742ZM433.594 181.61C433.594 183.036 434.716 184.185 436.075 184.185C437.448 184.185 438.557 183.037 438.557 181.61C438.557 180.171 437.448 179.01 436.075 179.01C434.742 179.01 433.646 180.119 433.594 181.505V181.61Z" fill="#263238"/>
<path d="M441.195 181.611C441.195 179.816 442.594 178.363 444.337 178.363C445.999 178.363 447.32 179.683 447.453 181.374V181.387V181.426C447.453 181.598 447.306 181.716 447.135 181.716H441.829C441.896 183.128 443.003 184.198 444.337 184.198C445.195 184.198 445.988 183.749 446.422 183.023C446.515 182.864 446.712 182.838 446.844 182.917C446.991 183.023 447.043 183.208 446.951 183.366C446.396 184.252 445.433 184.832 444.337 184.832C442.594 184.832 441.195 183.379 441.195 181.611ZM441.868 181.095H446.764C446.554 179.881 445.526 178.997 444.336 178.997C443.123 178.997 442.106 179.868 441.868 181.095Z" fill="#263238"/>
<path d="M449.417 178.694C449.417 178.509 449.561 178.376 449.747 178.376C449.906 178.376 450.051 178.509 450.051 178.694V180.119C450.077 180.066 450.103 180.012 450.143 179.96C450.631 179.195 451.489 178.376 452.729 178.376C452.901 178.376 453.047 178.509 453.047 178.694C453.047 178.864 452.901 179.01 452.729 179.01C451.884 179.01 451.302 179.485 450.855 180.066C450.42 180.646 450.169 181.306 450.075 181.57C450.049 181.624 450.049 181.65 450.049 181.676V184.513C450.049 184.698 449.905 184.831 449.746 184.831C449.561 184.831 449.415 184.698 449.415 184.513L449.417 178.694Z" fill="#263238"/>
<path d="M234.291 149.785C234.24 149.735 234.19 149.709 234.112 149.658C234.112 149.632 234.086 149.632 234.086 149.582C234.035 149.531 233.985 149.481 233.959 149.429C233.959 149.429 233.933 149.429 233.933 149.403C233.907 149.351 233.856 149.25 233.804 149.199L227.56 134.314C227.253 133.626 227.586 132.785 228.325 132.505C229.014 132.198 229.829 132.531 230.135 133.244L235.105 145.045L240.075 133.244C240.381 132.531 241.223 132.198 241.911 132.505C242.624 132.786 242.956 133.626 242.676 134.314L236.38 149.199C236.354 149.25 236.33 149.352 236.278 149.403C236.278 149.429 236.278 149.429 236.252 149.429C236.226 149.479 236.151 149.53 236.125 149.582C236.099 149.634 236.099 149.634 236.074 149.658C236.024 149.709 235.972 149.735 235.921 149.785C235.921 149.785 235.921 149.785 235.871 149.811C235.82 149.837 235.742 149.914 235.667 149.94C235.641 149.94 235.641 149.94 235.617 149.966C235.54 149.966 235.489 149.992 235.413 150.016C235.413 150.016 235.387 150.016 235.362 150.016C235.261 150.042 235.183 150.042 235.107 150.042C235.03 150.042 234.928 150.042 234.851 150.016C234.851 150.016 234.825 150.016 234.801 150.016C234.75 149.99 234.648 149.966 234.597 149.966C234.597 149.94 234.571 149.94 234.571 149.94C234.571 149.94 234.571 149.94 234.545 149.94C234.495 149.914 234.392 149.837 234.316 149.787C234.316 149.787 234.317 149.785 234.291 149.785Z" fill="#263238"/>
<path d="M244.647 143.669C244.673 140.202 247.374 137.297 250.866 137.297C254.18 137.297 256.805 139.769 257.008 143.21C257.008 143.236 257.008 143.286 257.008 143.337C257.008 143.389 257.008 143.516 256.982 143.566C256.906 144.177 256.37 144.586 255.657 144.586H247.552C247.681 145.172 247.961 145.835 248.418 146.268C248.954 146.88 249.973 147.338 250.864 147.414C251.783 147.491 252.879 147.261 253.515 146.778C254.051 146.217 255.096 146.294 255.427 146.701C255.758 147.058 256.013 147.823 255.427 148.357C254.178 149.504 252.675 150.039 250.864 150.039C247.374 150.015 244.673 147.134 244.647 143.669ZM247.425 142.42H254.637C254.382 141.4 253.082 139.897 250.864 139.718C248.7 139.819 247.629 141.374 247.425 142.42Z" fill="#263238"/>
<path d="M268.383 138.647C268.383 139.36 267.796 139.998 267.032 139.998C266.446 139.998 265.936 140.151 265.503 140.483C265.018 140.79 264.636 141.223 264.33 141.706C263.718 142.522 263.412 143.491 263.285 143.848V148.691C263.285 149.43 262.647 150.042 261.883 150.042C261.144 150.042 260.531 149.43 260.531 148.691V138.648C260.531 137.909 261.142 137.323 261.883 137.323C262.647 137.323 263.285 137.909 263.285 138.648V138.827C263.438 138.648 263.642 138.445 263.821 138.318C264.661 137.757 265.757 137.298 267.032 137.323C267.796 137.321 268.383 137.908 268.383 138.647Z" fill="#263238"/>
<path d="M274.506 134.11C274.506 134.876 273.919 135.512 273.13 135.512C272.364 135.512 271.754 134.874 271.754 134.11V133.575C271.754 132.811 272.366 132.198 273.13 132.198C273.919 132.198 274.506 132.811 274.506 133.575V134.11ZM274.506 138.724V148.665C274.506 149.43 273.919 150.041 273.13 150.041C272.364 150.041 271.754 149.429 271.754 148.665V138.724C271.754 137.908 272.366 137.322 273.13 137.322C273.919 137.322 274.506 137.908 274.506 138.724Z" fill="#263238"/>
<path d="M283.072 136.455V136.812H283.838C284.603 136.812 285.24 137.424 285.24 138.214C285.24 138.978 284.603 139.616 283.838 139.616H283.072V148.613C283.072 149.378 282.46 150.015 281.67 150.015C280.88 150.015 280.268 149.378 280.268 148.613V139.616H279.605C278.816 139.616 278.179 138.978 278.179 138.214C278.179 137.424 278.816 136.812 279.605 136.812H280.268V136.455C280.268 135.512 280.369 134.696 280.752 133.957C281.109 133.192 281.822 132.606 282.587 132.377C283.097 132.224 283.582 132.174 284.116 132.174C284.881 132.174 285.518 132.812 285.518 133.576C285.518 134.366 284.881 135.004 284.116 135.004C283.786 135.004 283.556 135.03 283.453 135.08C283.351 135.106 283.325 135.131 283.3 135.157C283.276 135.156 283.072 135.512 283.072 136.455Z" fill="#263238"/>
<path d="M290.9 134.11C290.9 134.876 290.314 135.512 289.524 135.512C288.758 135.512 288.148 134.874 288.148 134.11V133.575C288.148 132.811 288.76 132.198 289.524 132.198C290.314 132.198 290.9 132.811 290.9 133.575V134.11ZM290.9 138.724V148.665C290.9 149.43 290.314 150.041 289.524 150.041C288.758 150.041 288.148 149.429 288.148 148.665V138.724C288.148 137.908 288.76 137.322 289.524 137.322C290.315 137.322 290.9 137.908 290.9 138.724Z" fill="#263238"/>
<path d="M294.396 143.695C294.396 140.151 297.353 137.323 300.87 137.297C302.398 137.297 303.826 137.857 304.922 138.699C305.508 139.158 305.609 140.024 305.203 140.585C304.694 141.197 303.876 141.299 303.291 140.84C302.629 140.357 301.813 140.024 300.871 140.024C298.807 140.024 297.099 141.731 297.099 143.695C297.099 145.657 298.807 147.339 300.871 147.339C301.788 147.339 302.63 147.009 303.291 146.523C303.852 146.09 304.694 146.193 305.203 146.804C305.61 147.364 305.508 148.18 304.922 148.689C303.826 149.479 302.398 150.041 300.87 150.041C297.353 150.041 294.396 147.185 294.396 143.695Z" fill="#263238"/>
<path d="M320.629 143.695V148.691C320.629 149.43 320.018 150.042 319.278 150.042C318.614 150.042 318.106 149.557 317.953 148.946C316.984 149.635 315.838 150.042 314.563 150.042C312.83 150.042 311.325 149.328 310.229 148.181C309.134 147.009 308.497 145.429 308.497 143.696C308.497 141.938 309.134 140.357 310.229 139.21C311.325 138.038 312.83 137.298 314.563 137.298C315.836 137.298 316.984 137.732 317.953 138.42C318.107 137.784 318.616 137.298 319.278 137.298C320.018 137.298 320.629 137.909 320.629 138.674V143.695ZM317.927 143.695C317.927 142.625 317.546 141.707 316.932 141.07C316.321 140.381 315.455 140.024 314.563 140.024C313.644 140.024 312.779 140.381 312.193 141.07C311.582 141.707 311.224 142.625 311.224 143.695C311.224 144.74 311.581 145.657 312.193 146.32C312.779 146.958 313.646 147.315 314.563 147.315C315.455 147.315 316.321 146.958 316.932 146.32C317.546 145.657 317.927 144.739 317.927 143.695Z" fill="#263238"/>
<path d="M331.365 138.698C331.365 139.463 330.703 140.1 329.937 140.1H329.301V147.211C330.092 147.211 330.703 147.848 330.703 148.637C330.703 149.427 330.092 150.039 329.301 150.039C327.746 150.039 326.472 148.765 326.472 147.211V140.1H325.733C324.941 140.1 324.331 139.463 324.331 138.698C324.331 137.908 324.941 137.296 325.733 137.296H326.472V133.601C326.472 132.811 327.109 132.198 327.9 132.198C328.69 132.198 329.301 132.811 329.301 133.601V137.296H329.937C330.703 137.297 331.365 137.908 331.365 138.698Z" fill="#263238"/>
<path d="M338.608 134.11C338.608 134.876 338.022 135.512 337.232 135.512C336.468 135.512 335.855 134.874 335.855 134.11V133.575C335.855 132.811 336.468 132.198 337.232 132.198C338.022 132.198 338.608 132.811 338.608 133.575V134.11ZM338.608 138.724V148.665C338.608 149.43 338.022 150.041 337.232 150.041C336.468 150.041 335.855 149.429 335.855 148.665V138.724C335.855 137.908 336.468 137.322 337.232 137.322C338.022 137.322 338.608 137.908 338.608 138.724Z" fill="#263238"/>
<path d="M344.169 148.18C343.073 147.058 342.409 145.478 342.409 143.695C342.409 141.961 343.073 140.458 344.169 139.235C345.315 138.038 346.792 137.298 348.552 137.298C350.235 137.298 351.762 138.038 352.808 139.235C353.955 140.459 354.592 141.962 354.592 143.695C354.592 145.478 353.955 147.059 352.808 148.18C351.762 149.378 350.235 150.117 348.552 150.117C346.792 150.117 345.315 149.378 344.169 148.18ZM345.187 143.695C345.187 144.791 345.519 145.683 346.105 146.396C346.742 147.007 347.584 147.339 348.552 147.339C349.443 147.339 350.261 147.009 350.897 146.396C351.534 145.682 351.892 144.791 351.892 143.695C351.892 142.649 351.535 141.731 350.897 141.044C350.261 140.484 349.443 140.075 348.552 140.075C347.584 140.075 346.742 140.484 346.105 141.044C345.519 141.731 345.187 142.649 345.187 143.695Z" fill="#263238"/>
<path d="M369.561 142.599V148.691C369.561 149.43 368.975 150.042 368.236 150.042C367.523 150.042 366.886 149.43 366.886 148.691V142.599C366.886 141.171 365.689 140.024 364.235 140.024C362.807 140.024 361.685 141.171 361.685 142.599V148.691C361.685 148.767 361.685 148.844 361.634 148.946C361.507 149.557 360.947 150.042 360.284 150.042C359.519 150.042 358.933 149.43 358.933 148.691V142.599V138.648C358.933 137.909 359.519 137.297 360.284 137.297C360.82 137.297 361.304 137.603 361.533 138.087C362.298 137.603 363.241 137.297 364.235 137.297C367.19 137.297 369.561 139.718 369.561 142.599Z" fill="#263238"/>
<path d="M630 57.1035C630 57.1035 620.514 133.056 604.922 150.146C586.205 170.649 572.622 167.651 565.064 178.222C565.048 178.222 565.048 178.238 565.048 178.238C557.491 167.651 543.908 170.664 525.175 150.146C509.583 133.056 500.113 57.1035 500.113 57.1035C541.198 37.1587 565.048 14.8069 565.048 14.8069C565.048 14.8069 565.048 14.8069 565.064 14.8228C565.798 15.5086 589.553 37.4778 630 57.1035Z" fill="#1E40AF"/>
<path opacity="0.1" d="M565.064 14.8242V178.223C565.048 178.223 565.048 178.239 565.048 178.239C557.491 167.652 543.908 170.666 525.175 150.148C509.583 133.058 500.113 57.1049 500.113 57.1049C541.198 37.1587 565.048 14.8069 565.048 14.8069C565.048 14.8069 565.048 14.8069 565.064 14.8242Z" fill="black"/>
<path d="M510.19 63.2228C510.19 63.2228 518.202 127.383 531.372 141.827C547.197 159.171 558.678 156.624 565.064 165.557C571.449 156.624 582.931 159.172 598.757 141.827C611.926 127.383 619.923 63.2228 619.923 63.2228C585.218 46.3694 565.064 27.4888 565.064 27.4888C565.064 27.4888 544.894 46.3694 510.19 63.2228Z" fill="#1E40AF"/>
<path opacity="0.2" d="M619.906 63.2257C619.906 63.2257 611.895 127.379 598.721 141.83C582.91 159.161 571.441 156.63 565.047 165.537V27.5076C565.664 28.0866 585.738 46.6322 619.906 63.2257Z" fill="white"/>
<path d="M565.056 121.964C579.107 121.964 590.497 110.573 590.497 96.5223C590.497 82.4712 579.107 71.0806 565.056 71.0806C551.004 71.0806 539.614 82.4712 539.614 96.5223C539.614 110.573 551.004 121.964 565.056 121.964Z" fill="#455A64"/>
<path d="M562.156 113.052L550.826 101.268L555.031 97.2269L561.277 103.723L574.741 83.0649L579.628 86.2502L562.156 113.052Z" fill="white"/>
<path d="M619.906 167.075L616.307 167.739L615.503 171.532L614.7 167.739L611.102 167.072L614.684 166.197L615.503 162.615L616.323 166.197L619.906 167.075Z" fill="#1E40AF"/>
<path d="M513.33 138.234L509.734 138.898L508.929 142.692L508.125 138.898L504.527 138.231L508.109 137.356L508.929 133.774L509.748 137.356L513.33 138.234Z" fill="#1E40AF"/>
<path d="M529.752 38.2503L526.154 38.916L525.349 42.7091L524.545 38.916L520.947 38.2489L524.529 37.3739L525.349 33.7915L526.17 37.3739L529.752 38.2503Z" fill="#1E40AF"/>
<path d="M613.467 150.015L611.457 150.388L611.007 152.507L610.558 150.388L608.548 150.015L610.549 149.526L611.007 147.523L611.466 149.526L613.467 150.015Z" fill="#1E40AF"/>
<path d="M627.375 107.815L625.364 108.188L624.915 110.307L624.465 108.188L622.454 107.815L624.457 107.326L624.915 105.323L625.372 107.326L627.375 107.815Z" fill="#1E40AF"/>
<path d="M610.304 33.7915L608.294 34.164L607.845 36.2837L607.394 34.164L605.384 33.7901L607.385 33.3006L607.845 31.2993L608.302 33.3006L610.304 33.7915Z" fill="#1E40AF"/>
<path d="M558.941 187.353L556.929 187.724L556.48 189.844L556.031 187.724L554.02 187.352L556.023 186.862L556.48 184.86L556.938 186.862L558.941 187.353Z" fill="#1E40AF"/>
<path d="M502.152 143.169L500.142 143.542L499.691 145.662L499.242 143.542L497.231 143.169L499.233 142.68L499.691 140.677L500.15 142.68L502.152 143.169Z" fill="#1E40AF"/>
<path d="M505.281 84.405L503.271 84.7761L502.82 86.8958L502.371 84.7761L500.361 84.4036L502.362 83.9141L502.82 81.9114L503.279 83.9141L505.281 84.405Z" fill="#1E40AF"/>
<path d="M589.634 159.528C588.883 159.528 588.883 160.693 589.634 160.693C590.385 160.693 590.386 159.528 589.634 159.528Z" fill="#1E40AF"/>
<path d="M496.942 53.8677C496.191 53.8677 496.191 55.0329 496.942 55.0329C497.691 55.0344 497.693 53.8677 496.942 53.8677Z" fill="#1E40AF"/>
<path d="M607.845 162.812C607.094 162.812 607.094 163.978 607.845 163.978C608.594 163.978 608.595 162.812 607.845 162.812Z" fill="#1E40AF"/>
<path d="M548.797 71.7651C548.048 71.7651 548.046 72.9304 548.797 72.9304C549.547 72.9318 549.548 71.7651 548.797 71.7651Z" fill="#1E40AF"/>
<path d="M494.835 95.2446C494.084 95.2446 494.084 96.4099 494.835 96.4099C495.585 96.4099 495.586 95.2446 494.835 95.2446Z" fill="#1E40AF"/>
<path d="M481.241 88.8884C480.711 88.8884 480.709 89.7129 481.241 89.7129C481.771 89.7129 481.772 88.8884 481.241 88.8884Z" fill="#1E40AF"/>
<path d="M592.477 26.1821C591.947 26.1821 591.946 27.0066 592.477 27.0066C593.007 27.0066 593.008 26.1821 592.477 26.1821Z" fill="#1E40AF"/>
<path d="M534.917 167.356C534.387 167.356 534.385 168.181 534.917 168.181C535.447 168.181 535.448 167.356 534.917 167.356Z" fill="#1E40AF"/>
<path d="M522.027 159.776C520.589 159.776 520.586 162.011 522.027 162.011C523.465 162.011 523.468 159.776 522.027 159.776Z" fill="#1E40AF"/>
<path d="M244.439 257.455V281.743H250.844V292.812L261.913 281.743H337.095V257.455H244.439Z" fill="white"/>
<path d="M244.439 257.455C244.498 265.644 244.741 273.738 244.742 281.743L244.439 281.44L250.844 281.423L251.165 281.421L251.166 281.743L251.196 292.813L250.597 292.564L261.636 281.465C261.761 281.329 261.744 281.348 261.914 281.349C280.643 281.296 318.37 281.237 337.096 281.222L336.575 281.743L336.646 257.455L337.095 257.904C313.998 257.863 267.533 257.621 244.439 257.455ZM244.439 257.455L290.647 257.165L337.095 257.005L337.542 257.003L337.544 257.455L337.615 281.743L337.616 282.265L337.093 282.263L299.502 282.22C299.705 282.084 260.808 282.364 262.19 282.021L251.091 293.058L250.489 293.657L250.492 292.81L250.522 281.741L250.843 282.061L244.437 282.044L244.134 282.042V281.739C244.137 273.556 244.38 265.459 244.439 257.455Z" fill="#263238"/>
<path d="M260.638 266.243V269.5H259.718V266.243C259.718 265.004 258.778 263.998 257.62 263.998C256.464 263.998 255.522 265.004 255.522 266.243V269.5H254.603V266.243C254.603 264.47 255.957 263.027 257.62 263.027C259.285 263.026 260.638 264.468 260.638 266.243Z" fill="#263238"/>
<path d="M254.602 267.089L255.522 267.127V269.499H254.602V267.089Z" fill="#263238"/>
<path d="M260.638 267.335V269.499H259.718V267.297L260.638 267.335Z" fill="#263238"/>
<path d="M261.818 268.295H253.423V275.262H261.818V268.295Z" fill="#263238"/>
<path d="M275.209 266.721C274.001 268.976 272.253 270.732 269.995 271.935C271.197 269.675 272.953 267.928 275.209 266.721Z" fill="#263238"/>
<path d="M269.995 266.721C272.25 267.928 274.006 269.675 275.209 271.935C272.949 270.732 271.202 268.976 269.995 266.721Z" fill="#263238"/>
<path d="M276.289 269.327C273.84 270.068 271.363 270.074 268.914 269.327C271.362 268.581 273.84 268.587 276.289 269.327Z" fill="#263238"/>
<path d="M272.601 265.641C273.342 268.09 273.347 270.566 272.601 273.015C271.854 270.566 271.86 268.088 272.601 265.641Z" fill="#263238"/>
<path d="M287.927 266.721C286.719 268.976 284.972 270.732 282.713 271.935C283.915 269.675 285.673 267.928 287.927 266.721Z" fill="#263238"/>
<path d="M282.713 266.721C284.968 267.928 286.724 269.675 287.927 271.935C285.668 270.732 283.921 268.976 282.713 266.721Z" fill="#263238"/>
<path d="M289.006 269.327C286.558 270.068 284.081 270.074 281.632 269.327C284.081 268.581 286.559 268.587 289.006 269.327Z" fill="#263238"/>
<path d="M285.32 265.641C286.061 268.09 286.067 270.566 285.32 273.015C284.574 270.566 284.579 268.088 285.32 265.641Z" fill="#263238"/>
<path d="M300.646 266.721C299.439 268.976 297.692 270.732 295.432 271.935C296.635 269.675 298.391 267.928 300.646 266.721Z" fill="#263238"/>
<path d="M295.432 266.721C297.687 267.928 299.443 269.675 300.646 271.935C298.388 270.732 296.639 268.976 295.432 266.721Z" fill="#263238"/>
<path d="M301.726 269.327C299.277 270.068 296.801 270.074 294.352 269.327C296.799 268.581 299.277 268.587 301.726 269.327Z" fill="#263238"/>
<path d="M298.04 265.641C298.78 268.09 298.786 270.566 298.04 273.015C297.292 270.566 297.298 268.088 298.04 265.641Z" fill="#263238"/>
<path d="M313.365 266.721C312.158 268.976 310.41 270.732 308.151 271.935C309.354 269.675 311.11 267.928 313.365 266.721Z" fill="#263238"/>
<path d="M308.151 266.721C310.407 267.928 312.163 269.675 313.365 271.935C311.106 270.732 309.359 268.976 308.151 266.721Z" fill="#263238"/>
<path d="M314.446 269.327C311.997 270.068 309.52 270.074 307.071 269.327C309.519 268.581 311.997 268.587 314.446 269.327Z" fill="#263238"/>
<path d="M310.758 265.641C311.498 268.09 311.504 270.566 310.758 273.015C310.011 270.566 310.017 268.088 310.758 265.641Z" fill="#263238"/>
<path d="M326.083 266.721C324.876 268.976 323.129 270.732 320.87 271.935C322.072 269.675 323.83 267.928 326.083 266.721Z" fill="#263238"/>
<path d="M320.87 266.721C323.125 267.928 324.881 269.675 326.083 271.935C323.825 270.732 322.077 268.976 320.87 266.721Z" fill="#263238"/>
<path d="M327.163 269.327C324.715 270.068 322.238 270.074 319.789 269.327C322.238 268.581 324.716 268.587 327.163 269.327Z" fill="#263238"/>
<path d="M323.477 265.641C324.218 268.09 324.224 270.566 323.477 273.015C322.729 270.566 322.736 268.088 323.477 265.641Z" fill="#263238"/>
<path d="M142.935 550.791L59.5574 618.021H64.2559L160.549 550.791H142.935Z" fill="#C7C7C7"/>
<path d="M150.768 550.791L109.569 618.021H114.266L164.762 550.791H150.768Z" fill="#C7C7C7"/>
<path d="M170.967 550.791L212.166 618.021H207.469L156.974 550.791H170.967Z" fill="#C7C7C7"/>
<path d="M178.165 550.791L261.541 618.021H256.844L160.549 550.791H178.165Z" fill="#C7C7C7"/>
<path d="M317.32 526.13V506.461L202.825 501.764L142.347 340.294H3.77734L52.8055 526.13L169.944 559.011H177.284L317.32 526.13Z" fill="#455A64"/>
<path opacity="0.1" d="M3.77734 340.294H19.6315L70.7143 509.69L174.347 539.049L317.32 506.461V526.13L177.284 559.011H169.944L52.8055 526.13L3.77734 340.294Z" fill="black"/>
<path d="M254.988 648.593C251.49 647.262 172.897 582.869 171.452 578.52C170.895 576.872 179.606 564.879 190.542 550.687C192.903 547.622 195.36 544.471 197.874 541.286C214.167 520.583 231.939 498.998 231.939 498.998L284.638 541.92L249.123 583.026L241.335 592.057C241.335 592.057 260.399 630.169 261.471 635.11C262.526 640.037 258.485 649.924 254.988 648.593Z" fill="#AD6359"/>
<path d="M254.988 648.593C251.489 647.262 172.897 582.869 171.452 578.52C170.783 576.511 183.779 559.224 197.874 541.286L249.121 583.026L241.333 592.057C241.333 592.057 260.397 630.169 261.47 635.11C262.525 640.037 258.485 649.924 254.988 648.593Z" fill="#EBEBEB"/>
<path d="M254.988 648.593C251.49 647.262 172.897 582.869 171.452 578.52C170.895 576.872 179.606 564.879 190.542 550.687L241.333 592.055C241.333 592.055 260.397 630.167 261.47 635.108C262.525 640.036 258.485 649.924 254.988 648.593Z" fill="#1E40AF"/>
<path d="M256.436 644.526C243.526 633.407 190.409 589.785 176.805 579.776C176.693 579.694 176.634 579.766 176.737 579.858C189.292 591.157 242.761 634.347 256.26 644.741C256.545 644.962 256.709 644.76 256.436 644.526Z" fill="#263238"/>
<path d="M258.731 628.14C255.71 625.453 251.442 624.435 248.213 624.9C245.112 625.347 241.652 626.713 239.507 629.522C239.445 629.603 239.587 629.723 239.665 629.652C244.641 625.112 253.042 624.426 258.595 628.306C258.708 628.384 258.835 628.232 258.731 628.14Z" fill="#263238"/>
<path d="M245.369 597.552C240.155 593.158 232.518 590.011 225.707 591.639C225.443 591.703 225.537 592.077 225.759 592.124C232.54 593.573 238.571 595.454 244.927 598.277C245.376 598.475 245.743 597.867 245.369 597.552Z" fill="#263238"/>
<path d="M248.14 602.476C242.927 598.082 235.289 594.934 228.478 596.562C228.214 596.625 228.308 596.999 228.53 597.047C235.311 598.495 241.342 600.376 247.698 603.199C248.147 603.397 248.514 602.789 248.14 602.476Z" fill="#263238"/>
<path d="M250.911 607.397C245.698 603.003 238.058 599.855 231.249 601.483C230.985 601.546 231.079 601.92 231.301 601.968C238.082 603.416 244.113 605.297 250.469 608.12C250.918 608.319 251.283 607.712 250.911 607.397Z" fill="#263238"/>
<path d="M253.68 612.319C248.468 607.925 240.829 604.777 234.018 606.405C233.754 606.468 233.848 606.842 234.07 606.89C240.849 608.338 246.882 610.22 253.238 613.042C253.689 613.242 254.054 612.634 253.68 612.319Z" fill="#263238"/>
<path d="M190.412 570.012C184.482 565.182 176.965 574.39 182.905 579.229C188.835 584.059 196.352 574.851 190.412 570.012Z" fill="white"/>
<path d="M262.596 588.151C261.741 583.751 256.607 583.159 253.078 584.108C247.363 585.646 241.257 589.362 237.238 593.666C237.14 593.773 237.188 593.887 237.28 593.952C237.082 594.423 237.27 595.106 237.879 595.155C243.76 595.635 249.989 596.876 255.843 595.535C259.261 594.752 263.406 592.312 262.596 588.151ZM246.944 594.058C244.046 593.892 241.173 593.586 238.269 593.528C241.363 591.672 244.363 589.691 247.642 588.149C249.207 587.414 250.828 586.687 252.482 586.171C255.055 585.367 263.841 585.201 259.665 591.368C257.365 594.767 250.4 594.254 246.944 594.058Z" fill="#263238"/>
<path d="M222.535 584.888C226.549 589.355 232.355 591.928 237.439 594.924C237.966 595.235 238.512 594.784 238.622 594.286C238.734 594.286 238.84 594.22 238.819 594.077C238.014 588.243 235.162 581.688 231.376 577.14C229.038 574.331 224.5 571.858 221.266 574.961C218.209 577.898 220.191 582.28 222.535 584.888ZM221.812 579.278C221.95 571.832 229.037 577.028 230.677 579.167C231.731 580.541 232.639 582.069 233.494 583.572C235.288 586.723 236.597 590.068 238.058 593.368C235.651 591.743 233.126 590.338 230.661 588.804C227.723 586.976 221.734 583.383 221.812 579.278Z" fill="#263238"/>
<path d="M339.372 461.281C335.39 488.885 266.287 567.862 258.302 576.92C257.124 578.254 256.484 578.982 256.484 578.982L200.654 534.987L201.312 534.159L251.731 469.78L103.711 467.109L160.447 424.09C160.447 424.09 164.975 426.776 174.47 425.507C207.198 421.123 280.983 411.43 298.343 412.341C320.737 413.537 343.025 435.956 339.372 461.281Z" fill="#263238"/>
<path d="M269.848 445.841C267.9 447.768 266.333 450.186 264.648 452.341C262.866 454.619 261.056 456.876 259.277 459.156C259.259 459.179 259.242 459.201 259.225 459.224C259.544 458.554 259.856 457.879 260.186 457.215C261.32 454.938 262.234 452.583 263.568 450.41C263.65 450.277 263.447 450.15 263.363 450.282C261.993 452.439 260.409 454.486 259.23 456.76C258.676 457.832 258.15 458.913 257.659 460.015C257.391 460.619 257.115 461.222 256.873 461.836C256.761 462.116 256.623 462.415 256.539 462.718C255.741 463.776 254.952 464.841 254.185 465.922C252.486 468.322 250.978 470.863 249.259 473.244C249.166 473.373 249.37 473.494 249.464 473.373C251.204 471.136 253.15 469.054 254.917 466.835C256.717 464.575 258.425 462.25 260.113 459.908C261.76 457.622 263.374 455.314 265.018 453.025C266.674 450.722 268.633 448.454 269.986 445.956C270.034 445.869 269.924 445.766 269.848 445.841Z" fill="#37474F"/>
<path d="M264.19 566.017C261.009 563.243 257.602 560.692 254.256 558.119C250.898 555.536 247.526 552.971 244.14 550.424C237.364 545.329 230.618 540.188 223.772 535.187C220.011 532.439 216.225 529.729 212.322 527.186C212.147 527.073 211.964 527.35 212.118 527.482C218.555 532.989 225.397 537.994 232.166 543.078C238.948 548.17 245.747 553.246 252.606 558.236C256.358 560.968 260.095 563.786 264.008 566.283C264.164 566.384 264.327 566.137 264.19 566.017Z" fill="#37474F"/>
<path d="M144.025 351.178C159.379 380.418 177.6 411.447 194.871 415.942C211.298 420.219 250.382 379.287 257.011 365.698C259.297 361.013 228.354 340.491 223.974 343.939C215.719 350.438 197.647 371.037 195.074 370.521C192.396 369.974 170.571 350.469 150.791 334.055C138.801 324.106 133.389 330.923 144.025 351.178Z" fill="#AD6359"/>
<path d="M229.558 296.441L217.731 337.84C217.247 339.05 217.831 340.065 219.033 340.102L240.567 340.779C241.769 340.817 243.14 339.864 243.623 338.654L255.45 297.255C255.936 296.043 255.351 295.03 254.149 294.993L232.616 294.316C231.414 294.277 230.043 295.228 229.558 296.441Z" fill="#A6A6A6"/>
<path d="M232.115 296.499L220.29 337.897C219.806 339.107 220.389 340.122 221.592 340.16L243.125 340.837C244.328 340.875 245.698 339.922 246.182 338.712L258.009 297.313C258.494 296.1 257.909 295.088 256.707 295.051L235.173 294.373C233.971 294.336 232.6 295.286 232.115 296.499Z" fill="#DBDBDB"/>
<path d="M237.959 298.591C237.905 299.6 237.042 300.376 236.033 300.321C235.023 300.266 234.248 299.404 234.303 298.395C234.356 297.385 235.218 296.61 236.229 296.665C237.238 296.72 238.014 297.582 237.959 298.591Z" fill="#455A64"/>
<path d="M266.974 342.261C268.791 330.227 267.41 326.86 274.337 317.518C278.882 311.388 276.919 305.855 269.768 309.3C258.074 314.936 252.47 329.967 252.027 335.74L266.974 342.261Z" fill="#AD6359"/>
<path d="M251.451 373.797C251.451 373.797 262.679 360.687 265.884 348.055C268.1 339.32 270.802 319.778 251.708 300.832C247.178 296.339 237.537 293.148 242.269 303.173C245.63 310.294 249.913 313.795 251.114 318.293C251.114 318.293 238.37 315.69 234.044 320.403C232.112 322.51 226.971 328.382 223.621 333.524C223.621 333.524 224.545 334.555 225.902 335.694C225.902 335.694 222.278 340.478 223.039 349.571L251.451 373.797Z" fill="#AD6359"/>
<path d="M266.668 339.379C264.533 335.165 259.856 326.313 253.511 320.401C246.465 313.834 231.119 303.084 226.327 308.337C222.812 312.188 228.309 316.807 228.309 316.807C228.309 316.807 221.03 313.702 218.616 317.874C216.416 321.678 220.883 324.996 220.883 324.996C220.883 324.996 216.144 323.871 214.731 327.941C213.03 332.838 223.242 334.393 225.805 340.841C226.38 342.29 266.668 339.379 266.668 339.379Z" fill="#AD6359"/>
<path d="M247.815 329.004C245.157 325.371 237.003 318.67 228.5 316.744C228.308 316.701 228.17 316.823 228.338 316.9C237.251 321.008 244.723 326.535 247.753 329.071C247.795 329.105 247.845 329.046 247.815 329.004Z" fill="#263238"/>
<path d="M240.979 335.925C238.364 333.025 229.65 326.495 220.967 324.838C220.773 324.802 220.645 324.934 220.815 325.003C230.303 328.912 237.745 333.643 240.922 335.994C240.965 336.027 241.014 335.962 240.979 335.925Z" fill="#263238"/>
<path d="M213.315 349.264L245.549 383.443C245.549 383.443 211.508 421.608 195.525 417.617C179.542 413.626 149.321 370.364 139.632 342.896C132.928 323.89 143.505 326.941 154.607 336.26C165.71 345.577 194.75 368.705 196.019 368.361C197.288 368.014 213.315 349.264 213.315 349.264Z" fill="#1E40AF"/>
<path opacity="0.1" d="M202.398 417.262C199.884 417.944 197.555 418.128 195.524 417.617C179.545 413.626 149.321 370.364 139.635 342.896C135.218 330.369 138.301 327.429 144.109 329.559C161.522 355.395 184.701 390.021 202.398 417.262Z" fill="black"/>
<path d="M235.091 389.126C230.423 384.413 212.023 364.429 208.341 359.842C208.086 359.524 208.224 359.284 208.533 359.582C222.863 373.368 230.928 384.079 235.27 388.935C235.38 389.056 235.209 389.244 235.091 389.126Z" fill="#263238"/>
<path d="M179.869 443.707C179.869 443.707 74.0456 463.06 73.5026 462.413C73.016 461.849 85.1478 347.37 121.067 328.023C126.761 324.956 140.506 323.149 146.373 329.136C163.1 346.209 181.256 442.155 179.869 443.707Z" fill="#1E40AF"/>
<path d="M178.767 434.217L74.5496 452.097C74.9452 448.95 75.4665 445.193 76.1191 440.97L176.845 423.688C177.616 427.678 178.259 431.241 178.767 434.217Z" fill="#EBEBEB"/>
<path d="M175.722 418.101L77.0504 435.032C77.355 433.16 77.6857 431.228 78.0452 429.238L174.59 412.675C174.993 414.526 175.365 416.348 175.722 418.101Z" fill="#EBEBEB"/>
<path d="M141.7 346.57C135.795 346.541 128.268 335.684 126.152 327.849C126.011 327.312 127.946 322.488 130.021 316.514C131.265 312.884 132.566 308.814 133.484 305.014L155.921 316.566C155.921 316.566 151.653 323.966 150.091 330.603C149.967 331.159 149.897 331.687 149.877 332.201C149.867 332.275 149.867 332.367 149.848 332.468C149.619 335.547 147.41 346.594 141.7 346.57Z" fill="#AD6359"/>
<path d="M155.93 316.565C155.93 316.565 151.656 323.961 150.094 330.61C149.974 331.157 149.89 331.687 149.883 332.204C149.879 332.278 149.874 332.37 149.851 332.46C149.08 332.402 148.257 332.249 147.368 331.999C133.578 328.334 133.815 310.217 134.141 305.347L155.93 316.565Z" fill="#263238"/>
<path d="M132.52 278.851C128.929 287.203 130.739 312.674 136.273 318.919C144.294 327.972 158.799 330.353 166.837 320.397C174.63 310.746 171.683 277.594 165.375 271.778C156.083 263.211 137.825 266.515 132.52 278.851Z" fill="#AD6359"/>
<path d="M155.765 297.178C155.747 297.114 155.64 297.27 155.648 297.339C155.859 299.035 155.814 301.013 154.329 301.719C154.282 301.741 154.295 301.826 154.352 301.813C156.204 301.375 156.236 298.75 155.765 297.178Z" fill="#263238"/>
<path d="M154.083 295.542C151.328 295.585 151.62 301.092 154.171 301.05C156.682 301.01 156.392 295.504 154.083 295.542Z" fill="#263238"/>
<path d="M165.783 296.629C165.793 296.563 165.921 296.703 165.922 296.773C165.958 298.482 166.287 300.432 167.86 300.917C167.909 300.933 167.909 301.018 167.851 301.013C165.954 300.848 165.544 298.253 165.783 296.629Z" fill="#263238"/>
<path d="M167.213 294.768C169.945 294.414 170.45 299.905 167.919 300.232C165.427 300.555 164.923 295.064 167.213 294.768Z" fill="#263238"/>
<path d="M151.777 293.137C152.518 292.909 153.162 292.576 153.871 292.274C154.671 291.935 155.341 291.746 155.838 290.986C156.103 290.579 155.947 289.881 155.576 289.587C154.711 288.9 153.628 289.073 152.65 289.444C151.587 289.845 150.872 290.427 150.303 291.408C149.75 292.358 150.801 293.439 151.777 293.137Z" fill="#263238"/>
<path d="M169.195 291.883C168.426 291.799 167.73 291.593 166.978 291.431C166.127 291.249 165.433 291.19 164.803 290.539C164.465 290.189 164.487 289.476 164.796 289.115C165.513 288.276 166.609 288.241 167.642 288.42C168.761 288.614 169.574 289.048 170.319 289.905C171.038 290.733 170.21 291.994 169.195 291.883Z" fill="#263238"/>
<path d="M154.758 312.342C155.106 312.795 155.432 313.399 156.038 313.537C156.62 313.671 157.348 313.504 157.917 313.373C157.973 313.36 158.019 313.425 157.978 313.469C157.446 314.056 156.464 314.33 155.701 314.08C154.954 313.836 154.67 313.121 154.584 312.395C154.571 312.294 154.706 312.277 154.758 312.342Z" fill="#263238"/>
<path d="M156.646 307.324C157.679 308.753 159.125 309.488 160.659 309.704C161.343 309.805 162.058 309.79 162.753 309.689C162.89 309.679 163.384 309.581 163.519 309.545C163.717 309.506 163.817 309.335 163.841 309.145L163.84 309.133C163.836 309.07 163.537 305.492 163.537 305.492C164.029 305.707 166.534 306.679 166.459 305.994C165.819 300.333 165.109 294.037 163.278 288.537C163.228 288.352 162.943 288.412 162.969 288.598C163.368 294.063 164.725 299.421 165.213 304.905C164.417 304.65 163.115 304.168 162.428 304.218C162.33 304.247 162.916 308.674 162.906 308.712C160.714 309.11 159.016 308.531 156.796 307.164C156.665 307.071 156.537 307.194 156.646 307.324Z" fill="#263238"/>
<path d="M162.2 309.435C162.2 309.435 160.981 311.093 159.306 311.695C158.689 311.918 158.024 312.008 157.325 311.825C155.891 311.453 155.851 310.138 156.109 309.012C156.319 308.086 156.746 307.286 156.746 307.286C156.746 307.286 158.844 309.239 162.2 309.435Z" fill="#263238"/>
<path d="M159.306 311.695C158.69 311.918 158.024 312.008 157.325 311.824C155.891 311.453 155.851 310.138 156.109 309.012C157.646 309.165 159.17 310.202 159.306 311.695Z" fill="#FF9CBD"/>
<path d="M130.173 301.856C136.813 302.371 140.337 294.477 138.83 288.094C138.83 288.094 156.471 290.567 157.423 276.395C157.423 276.395 161.619 282.837 169.627 283.105L170.792 288.085C172.607 287.575 174.574 282.441 170.171 278.369C170.171 278.369 169.917 271.3 164.739 267.02C159.561 262.74 154.363 265.491 154.363 265.491C154.363 265.491 150.247 262.002 143.735 262.788C137.223 263.572 134.501 269.486 134.501 269.486C134.501 269.486 125.739 271.093 124.204 277.296C122.669 283.499 125.85 287.69 125.85 287.69C125.85 287.69 123.637 290.114 124.713 295.426C125.404 298.841 128.181 301.701 130.173 301.856Z" fill="#263238"/>
<path d="M157.042 275.133C157.15 276.291 157.188 277.452 157.056 278.596C156.983 279.742 156.734 280.864 156.391 281.94C155.663 284.078 154.235 285.942 152.264 286.998C150.348 288.206 147.993 288.381 145.742 288.585C144.598 288.541 143.442 288.58 142.292 288.472C141.144 288.348 139.996 288.195 138.831 288.094C139.957 288.377 141.101 288.609 142.245 288.871C143.397 289.061 144.575 289.096 145.748 289.214C148.079 289.136 150.543 288.957 152.668 287.71C154.779 286.51 156.357 284.434 156.99 282.126C157.614 279.822 157.591 277.396 157.042 275.133Z" fill="#263238"/>
<path d="M166.085 283.395C164.124 282.665 162.296 281.746 160.75 280.471C159.958 279.856 159.297 279.103 158.698 278.3C158.073 277.501 157.681 276.561 157.234 275.605C157.351 276.642 157.612 277.706 158.165 278.635C158.678 279.581 159.391 280.427 160.23 281.102C161.07 281.777 162.002 282.333 162.999 282.71C163.991 283.089 165.028 283.362 166.085 283.395Z" fill="#263238"/>
<path d="M152.411 305.782C149.102 305.622 146.185 303.238 145.495 299.846C144.679 295.833 147.28 291.904 151.291 291.089C155.303 290.271 159.231 292.872 160.048 296.885C160.864 300.896 158.263 304.825 154.252 305.642C153.631 305.767 153.015 305.812 152.411 305.782ZM153.083 291.939C152.56 291.913 152.024 291.952 151.489 292.062C148.013 292.769 145.76 296.173 146.467 299.648C147.176 303.122 150.58 305.379 154.053 304.669C157.53 303.961 159.781 300.558 159.075 297.081C158.476 294.143 155.95 292.078 153.083 291.939Z" fill="#1E40AF"/>
<path d="M169.406 304.529C166.569 304.391 164.134 301.359 163.869 297.494C163.734 295.543 164.165 293.665 165.08 292.208C166.024 290.699 167.373 289.811 168.878 289.708C170.386 289.601 171.839 290.3 172.981 291.666C174.086 292.987 174.767 294.788 174.9 296.737C175.179 300.822 172.933 304.315 169.893 304.524C169.729 304.534 169.568 304.536 169.406 304.529ZM169.322 290.694C169.197 290.689 169.071 290.69 168.945 290.699C167.767 290.78 166.693 291.503 165.92 292.735C165.118 294.017 164.741 295.683 164.859 297.426C165.103 300.965 167.321 303.707 169.825 303.534C172.32 303.363 174.151 300.344 173.91 296.806C173.79 295.064 173.189 293.464 172.219 292.303C171.386 291.305 170.369 290.745 169.322 290.694Z" fill="#1E40AF"/>
<path d="M159.858 297.758L159.169 297.043C160.227 296.023 162.74 294.576 164.68 296.388L164.003 297.113C162.266 295.487 159.956 297.666 159.858 297.758Z" fill="#1E40AF"/>
<path d="M128.461 302.095L127.55 301.701C127.735 301.277 129.411 297.537 131.599 297.026C133.643 296.554 145.524 296.718 146.091 296.733L146.065 297.725C142.234 297.625 133.403 297.624 131.825 297.992C130.38 298.33 128.907 301.069 128.461 302.095Z" fill="#1E40AF"/>
<path d="M136.44 301.407C136.44 301.407 131.51 292.807 127.658 294.493C123.806 296.18 127.004 308.29 131.17 310.283C135.334 312.275 137.254 308.455 137.254 308.455L136.44 301.407Z" fill="#AD6359"/>
<path d="M128.662 297.943C128.594 297.93 128.571 298.027 128.629 298.055C131.541 299.551 132.879 302.497 133.731 305.503C132.933 304.303 131.765 303.581 130.171 304.516C130.087 304.565 130.15 304.695 130.237 304.684C131.499 304.531 132.373 304.826 133.119 305.893C133.649 306.648 133.972 307.572 134.325 308.421C134.442 308.704 134.943 308.603 134.868 308.283C134.862 308.26 134.855 308.235 134.85 308.211C135.273 304.364 132.764 298.702 128.662 297.943Z" fill="#263238"/>
<path d="M150.203 335.174C150.2 335.124 150.124 335.121 150.121 335.173C149.883 339.987 149.003 351.112 141.251 349.586C138.128 348.971 135.468 346.773 133.279 344.664C131.031 342.499 126.146 336.443 122.922 329.801C122.859 329.671 122.674 329.768 122.716 329.911C123.243 331.723 124.652 334.971 126.487 337.957C128.253 340.831 130.328 343.553 132.839 345.878C135.191 348.055 138.038 350.27 141.362 350.768C144.524 351.242 147.053 349.616 148.306 346.909C149.952 343.352 150.384 339.025 150.203 335.174Z" fill="#263238"/>
<path d="M109.198 337.169C92.6734 351.653 50.3263 408.643 60.7239 420.856C71.1966 433.155 136.479 424.591 155.274 417.845C160.865 415.838 143.925 380.535 137.732 379.128C132.576 377.957 104.655 387.49 104.037 385.877C103.338 384.055 108.864 371.667 117.614 349.119C127.701 323.122 116.497 330.771 109.198 337.169Z" fill="#AD6359"/>
<path d="M165.321 371.051C178.472 370.546 181.926 372.434 192.797 366.114C199.932 361.967 205.641 364.742 201.08 372.013C193.617 383.903 176.787 388.118 170.532 387.899L165.321 371.051Z" fill="#AD6359"/>
<path d="M129.619 380.08C129.619 380.08 145.002 373.449 158.964 371.525C168.618 370.195 189.944 369.64 208.009 392.44C212.293 397.847 214.564 408.591 204.357 402.302C197.107 397.833 193.86 392.809 189.17 390.977C189.17 390.977 190.435 404.987 184.85 409.068C182.355 410.892 175.426 415.71 169.495 418.692C169.495 418.692 168.499 417.575 167.438 415.98C167.438 415.98 161.86 419.299 152.18 417.388L129.619 380.08Z" fill="#AD6359"/>
<path d="M168.381 371.725C172.652 374.528 181.604 380.618 187.193 388.147C193.402 396.51 203.11 414.293 196.889 418.814C192.328 422.128 188.025 415.665 188.025 415.665C188.025 415.665 190.488 423.861 185.712 425.954C181.36 427.862 178.331 422.661 178.331 422.661C178.331 422.661 178.97 427.889 174.425 428.919C168.958 430.158 168.515 418.996 161.895 415.466C160.409 414.672 168.381 371.725 168.381 371.725Z" fill="#AD6359"/>
<path d="M177.264 393.234C180.848 396.527 187.069 406.096 188.116 415.467C188.139 415.68 187.992 415.811 187.928 415.622C184.586 405.55 179.545 396.854 177.184 393.292C177.153 393.245 177.223 393.198 177.264 393.234Z" fill="#263238"/>
<path d="M169.003 399.747C171.803 402.907 177.775 413.056 178.51 422.589C178.526 422.801 178.368 422.924 178.315 422.732C175.255 412.064 171.065 403.497 168.921 399.801C168.892 399.752 168.967 399.707 169.003 399.747Z" fill="#263238"/>
<path d="M189.183 390.892C193.284 392.56 195.825 394.91 199.143 397.745C200.785 399.147 202.453 400.527 204.242 401.74C205.871 402.845 208.268 404.506 210.249 403.232C211.35 402.523 211.483 401.044 211.373 399.857C211.249 398.523 210.199 395.979 209.532 394.815C209.499 394.756 209.6 394.695 209.635 394.754C210.254 395.792 211.443 398.119 211.746 399.291C212.019 400.352 212.195 401.572 211.796 402.628C210.942 404.896 208.162 404.927 206.281 404.091C205.154 403.591 204.115 402.86 203.116 402.147C202.15 401.457 201.218 400.721 200.304 399.961C198.432 398.402 196.65 396.737 194.796 395.156C192.758 393.419 191.32 392.526 189.102 391.028C189.03 390.976 189.102 390.859 189.183 390.892Z" fill="#263238"/>
<path d="M196.541 406.651C195.69 404.131 190.775 393.499 189.087 390.984C189.043 390.919 189.131 390.851 189.182 390.91C192.164 394.364 196.625 403.189 197.593 405.97C198.549 408.72 199.617 412.217 199.322 415.144C198.881 419.561 195.867 420.102 194.763 420.21C193.444 420.339 192.166 419.936 191.066 419.218C189.842 418.42 188.731 416.905 187.981 415.675C187.942 415.61 188.03 415.536 188.076 415.601C189.432 417.494 191.801 419.467 194.233 419.392C195.288 419.36 196.39 418.992 197.112 418.192C197.961 417.253 198.154 415.925 198.175 414.706C198.219 411.945 197.417 409.238 196.541 406.651Z" fill="#263238"/>
<path d="M129.619 380.08L145.745 425.133C145.745 425.133 63.9873 435.068 58.4845 420.459C52.9817 405.849 89.4998 354.491 105.084 340.031C123.144 323.275 124.588 329.735 119.38 345.671C113.928 362.356 104.231 386.305 104.231 386.305L129.619 380.08Z" fill="#1E40AF"/>
<path d="M78.7786 395.314C82.7292 393.097 86.8977 391.258 91.1255 389.635C95.3129 388.028 99.6533 386.879 104.027 385.904C106.525 385.348 109.042 384.914 111.56 384.462C111.636 384.447 111.655 384.566 111.579 384.582C107.175 385.491 102.83 386.791 98.5631 388.2C94.3122 389.605 90.0946 391.084 85.9 392.643C83.5262 393.525 81.1957 394.52 78.8537 395.48C78.7425 395.525 78.679 395.371 78.7786 395.314Z" fill="#263238"/>
<path d="M129.417 379.932C129.004 379.997 106.414 385.022 105.663 385.285C105.787 384.964 110.877 373.731 111.635 372.088C111.71 371.924 111.778 371.757 111.852 371.594C112.327 370.875 112.806 370.159 113.252 369.421C113.824 368.475 114.389 367.523 114.956 366.575C114.973 366.546 114.931 366.516 114.913 366.544C114.305 367.466 113.696 368.385 113.092 369.31C112.813 369.737 112.548 370.173 112.286 370.611C112.792 369.447 113.283 368.279 113.773 367.103C114.556 365.232 115.277 363.34 115.993 361.442C116.016 361.381 115.925 361.349 115.897 361.408C114.397 364.683 112.795 367.909 111.284 371.178C109.777 374.443 104.023 386.476 104.059 386.469C104.095 386.505 128.995 380.387 129.477 380.24C129.667 380.182 129.62 379.901 129.417 379.932Z" fill="#263238"/>
<path d="M128.078 408.132C126.309 403.107 124.58 398.066 122.625 393.105C121.514 390.287 120.418 387.462 119.281 384.654C119.237 384.549 119.051 384.606 119.084 384.717C120.659 389.832 122.252 394.956 124.061 399.998C125.86 405.015 127.619 410.045 129.485 415.038C130.546 417.877 131.688 420.674 132.92 423.446C132.944 423.501 133.04 423.472 133.022 423.413C131.617 418.242 129.859 413.191 128.078 408.132Z" fill="#263238"/>
<path d="M146.709 425.908C146.04 424.505 145.222 422.495 144.495 421.12C144.303 420.756 144.033 420.801 144.179 421.178C144.667 422.44 145.037 423.843 145.516 425.137C144.371 425.248 143.225 425.333 142.08 425.456C140.756 425.598 139.433 425.746 138.11 425.884C135.519 426.152 132.922 426.395 130.325 426.61C125.065 427.046 119.796 427.371 114.521 427.583C103.95 428.009 93.3346 428.051 82.7738 427.379C79.8196 427.192 76.8668 426.946 73.9255 426.61C70.938 426.269 67.7123 425.881 65.2707 425.32C65.1927 425.303 65.1638 425.435 65.2418 425.459C67.7542 426.243 70.1092 426.809 72.7083 427.199C75.3608 427.597 78.0262 427.922 80.6975 428.161C86.0183 428.633 91.3637 428.822 96.7033 428.867C107.293 428.956 117.891 428.585 128.452 427.794C131.411 427.573 134.368 427.316 137.321 427.024C138.811 426.877 140.301 426.73 141.788 426.555C143.275 426.379 146.822 426.148 146.709 425.908Z" fill="#263238"/>
<path d="M252.038 424.907H149.106V429.518H252.038V424.907Z" fill="#C7C7C7"/>
<path d="M252.037 424.907V429.518H182.069L185.596 424.907H252.037Z" fill="#A6A6A6"/>
<path d="M196.222 429.519H286.31L299.345 365.96H209.257L196.222 429.519Z" fill="#A6A6A6"/>
<path d="M200.431 429.519H290.52L303.556 365.96H213.467L200.431 429.519Z" fill="#C7C7C7"/>
<path d="M260.116 395.372C260.21 398.376 258.2 401.245 255.627 401.782C253.053 402.319 250.892 400.321 250.798 397.317C250.704 394.314 252.714 391.445 255.287 390.908C257.86 390.371 260.022 392.369 260.116 395.372Z" fill="white"/>
<path d="M461.822 561.456C460.479 564.95 395.833 643.334 391.48 644.767C389.831 645.318 377.867 636.57 363.709 625.587C360.651 623.216 357.509 620.749 354.331 618.225C333.68 601.865 312.153 584.024 312.153 584.024L355.245 531.464L396.238 567.112L405.242 574.929C405.242 574.929 443.416 555.988 448.36 554.931C453.29 553.891 463.163 557.963 461.822 561.456Z" fill="#AD6359"/>
<path d="M461.822 561.456C460.479 564.95 395.833 643.334 391.48 644.767C389.47 645.428 372.224 632.376 354.331 618.225L396.236 567.112L405.241 574.929C405.241 574.929 443.415 555.988 448.359 554.931C453.29 553.891 463.163 557.963 461.822 561.456Z" fill="#EBEBEB"/>
<path d="M461.822 561.456C460.479 564.95 395.833 643.334 391.48 644.767C389.831 645.318 377.867 636.57 363.709 625.587L405.242 574.93C405.242 574.93 443.416 555.989 448.36 554.932C453.29 553.891 463.163 557.963 461.822 561.456Z" fill="#1E40AF"/>
<path d="M457.758 559.994C446.6 572.868 402.806 625.844 392.753 639.418C392.671 639.528 392.743 639.587 392.836 639.486C404.175 626.969 447.538 573.638 457.975 560.172C458.194 559.888 457.994 559.723 457.758 559.994Z" fill="#263238"/>
<path d="M441.382 557.648C438.684 560.66 437.654 564.925 438.108 568.155C438.544 571.258 439.9 574.722 442.701 576.878C442.782 576.94 442.904 576.797 442.833 576.719C438.309 571.729 437.651 563.327 441.548 557.785C441.624 557.671 441.474 557.544 441.382 557.648Z" fill="#263238"/>
<path d="M410.75 570.911C406.339 576.11 403.168 583.738 404.774 590.554C404.836 590.818 405.21 590.725 405.259 590.503C406.729 583.727 408.631 577.701 411.472 571.354C411.673 570.906 411.067 570.538 410.75 570.911Z" fill="#263238"/>
<path d="M415.683 568.155C411.272 573.355 408.099 580.983 409.707 587.798C409.769 588.063 410.143 587.97 410.192 587.747C411.662 580.972 413.563 574.946 416.405 568.597C416.604 568.151 415.998 567.783 415.683 568.155Z" fill="#263238"/>
<path d="M420.614 565.4C416.203 570.6 413.03 578.228 414.637 585.044C414.7 585.308 415.074 585.215 415.123 584.993C416.593 578.218 418.494 572.193 421.337 565.845C421.535 565.398 420.929 565.028 420.614 565.4Z" fill="#263238"/>
<path d="M425.545 562.647C421.134 567.846 417.963 575.473 419.568 582.29C419.63 582.554 420.006 582.462 420.054 582.239C421.523 575.465 423.425 569.439 426.268 563.09C426.466 562.643 425.86 562.274 425.545 562.647Z" fill="#263238"/>
<path d="M383.033 625.779C378.184 631.693 387.368 639.239 392.225 633.315C397.075 627.399 387.89 619.853 383.033 625.779Z" fill="white"/>
<path d="M401.404 553.653C397.002 554.495 396.392 559.628 397.331 563.158C398.85 568.877 402.548 574.997 406.838 579.028C406.944 579.128 407.059 579.079 407.123 578.988C407.593 579.186 408.276 579.002 408.328 578.391C408.826 572.512 410.088 566.286 408.765 560.428C407.996 557.01 405.568 552.857 401.404 553.653ZM407.261 569.324C407.086 572.222 406.77 575.093 406.702 577.997C404.855 574.897 402.886 571.892 401.354 568.607C400.623 567.039 399.901 565.416 399.39 563.76C398.594 561.186 398.456 552.398 404.61 556.594C408.004 558.907 407.469 565.87 407.261 569.324Z" fill="#263238"/>
<path d="M398.012 593.704C402.493 589.704 405.083 583.906 408.097 578.832C408.408 578.306 407.961 577.759 407.463 577.648C407.463 577.535 407.398 577.43 407.253 577.448C401.417 578.235 394.853 581.065 390.293 584.837C387.477 587.166 384.99 591.696 388.082 594.94C391.008 598.007 395.397 596.039 398.012 593.704ZM392.4 594.41C384.954 594.248 390.173 587.178 392.317 585.544C393.695 584.495 395.226 583.592 396.732 582.742C399.888 580.96 403.238 579.659 406.543 578.209C404.91 580.612 403.498 583.132 401.956 585.592C400.117 588.522 396.505 594.5 392.4 594.41Z" fill="#263238"/>
<path d="M394.117 559.076L346.141 615.943L201.423 512.894L187.172 502.74C187.172 502.74 183.07 505.429 176.901 508.743C168.335 513.343 155.791 519.148 144.741 520.638C126.203 523.152 98.3018 522.518 82.9603 501.473C70.0387 483.753 74.4585 460.892 74.4585 460.892L94.8812 452.414C94.8812 452.414 143.45 412.939 174.61 412.11C187.845 411.745 206.985 422.005 224.696 432.696C242.393 443.372 394.117 559.076 394.117 559.076Z" fill="#263238"/>
<path d="M187.172 502.739C187.172 502.739 183.07 505.428 176.901 508.741C166.229 495.645 143.586 471.818 142.9 470.973L187.172 502.739Z" fill="#37474F"/>
<path d="M112.663 439.218C109.765 441.179 106.958 443.266 104.098 445.28C101.285 447.261 98.3814 449.119 95.7043 451.287C92.9811 453.491 90.3965 455.849 87.8263 458.23C86.586 459.378 85.3558 460.536 84.1574 461.726C82.969 462.906 81.6406 464.088 80.6501 465.441C80.5577 465.567 80.7382 465.721 80.8595 465.645C82.2427 464.781 83.4903 463.589 84.7494 462.556C86.1095 461.442 87.4524 460.308 88.8068 459.186C91.4174 457.02 94.0785 454.918 96.6833 452.745C99.2708 450.588 101.673 448.221 104.236 446.035C106.981 443.696 109.871 441.521 112.718 439.309C112.773 439.269 112.722 439.178 112.663 439.218Z" fill="#37474F"/>
<path d="M379.301 553.601C376.394 556.661 373.701 559.957 370.988 563.191C368.265 566.437 365.559 569.698 362.87 572.972C357.492 579.526 352.07 586.049 346.782 592.675C343.877 596.315 341.009 599.984 338.304 603.775C338.184 603.944 338.452 604.139 338.591 603.992C344.366 597.795 349.657 591.173 355.024 584.625C360.401 578.065 365.76 571.487 371.037 564.848C373.925 561.213 376.899 557.601 379.56 553.797C379.666 553.641 379.426 553.468 379.301 553.601Z" fill="#37474F"/>
<path d="M270.536 561.938C263.191 556.004 246.469 544.387 238.847 538.811C231.263 533.263 223.684 527.701 215.984 522.317C213.773 520.771 211.542 519.256 209.314 517.735C207.091 516.218 204.773 514.813 202.596 513.239C202.469 513.148 202.352 513.359 202.476 513.45C204.476 514.92 206.36 516.566 208.325 518.091C210.201 519.546 212.061 521.02 213.952 522.456C217.643 525.258 221.371 528.009 225.093 530.77C232.642 536.368 240.247 541.898 247.933 547.307C252.297 550.378 265.738 559.467 270.201 562.39C270.464 562.563 270.789 562.142 270.536 561.938Z" fill="#37474F"/>
<path d="M318.06 500.93C311.275 495.166 295.785 484.059 288.666 478.721C281.465 473.321 274.302 467.873 267.072 462.51C259.899 457.191 252.727 451.873 245.554 446.553C238.6 441.397 231.682 436.159 224.328 431.579C220.304 429.072 216.173 426.744 211.923 424.641C207.795 422.597 203.505 420.518 199.081 419.211C198.948 419.172 198.873 419.366 198.99 419.434C202.617 421.517 206.432 423.28 210.104 425.293C213.734 427.283 217.308 429.375 220.821 431.563C228.121 436.111 235.004 441.26 241.921 446.363C256.283 456.96 270.616 467.6 285.084 478.052C293.178 483.902 309.311 495.98 317.728 501.369C317.992 501.539 318.301 501.135 318.06 500.93Z" fill="#37474F"/>
</svg>
